/* XPM */
static char *collectible[] = {
/* columns rows colors chars-per-pixel */
"60 60 160 2 ",
"   c None",
".  c #020701",
"X  c #040C03",
"o  c #061004",
"O  c #091506",
"+  c #0B1907",
"@  c #0C1C09",
"#  c #0F200B",
"$  c #11260E",
"%  c #132A0F",
"&  c #0E2513",
"*  c #0E291A",
"=  c #112611",
"-  c #142C12",
";  c #112E1B",
":  c #153113",
">  c #193617",
",  c #18361B",
"<  c #1A3B1A",
"1  c #092420",
"2  c #092824",
"3  c #0E342F",
"4  c #143422",
"5  c #193C22",
"6  c #11362E",
"7  c #13392D",
"8  c #0E3531",
"9  c #0E3A34",
"0  c #123C35",
"q  c #113E39",
"w  c #1C401E",
"e  c #1E4422",
"r  c #1F4829",
"t  c #154035",
"y  c #1F4D32",
"u  c #11423B",
"i  c #1A493B",
"p  c #1F533D",
"a  c #204B28",
"s  c #22502E",
"d  c #235534",
"f  c #245B3D",
"g  c #143D43",
"h  c #134742",
"j  c #154D47",
"k  c #184F4C",
"l  c #1F5540",
"z  c #16514B",
"x  c #19534C",
"c  c #1A5651",
"v  c #1A5A53",
"b  c #1B5E5C",
"n  c #255F44",
"m  c #205B49",
"M  c #205F51",
"N  c #1E615D",
"B  c #256045",
"V  c #25664D",
"C  c #216050",
"Z  c #266953",
"A  c #21635C",
"S  c #226B5E",
"D  c #1D5C61",
"F  c #1E6662",
"G  c #1D6966",
"H  c #1E656E",
"J  c #1C6F78",
"K  c #206661",
"L  c #216C66",
"P  c #23656E",
"I  c #226D6A",
"U  c #237167",
"Y  c #24716D",
"T  c #206871",
"R  c #247572",
"E  c #267976",
"W  c #287876",
"Q  c #26747B",
"!  c #29737C",
"~  c #257C7B",
"^  c #297D7B",
"/  c #2A817F",
"(  c #297681",
")  c #257C82",
"_  c #2A7983",
"`  c #2B8484",
"'  c #2C8887",
"]  c #2B858A",
"[  c #27888D",
"{  c #2C8B8C",
"}  c #2F908F",
"|  c #2C8693",
" . c #2C8C92",
".. c #2B8E9B",
"X. c #2D9294",
"o. c #2D969B",
"O. c #2D999B",
"+. c #309497",
"@. c #309B9D",
"#. c #2F9DA3",
"$. c #2B9AA9",
"%. c #3396A3",
"&. c #339EAC",
"*. c #2FA1A4",
"=. c #2FA5A9",
"-. c #31A3A6",
";. c #32A4AA",
":. c #31AAAD",
">. c #2CA4B5",
",. c #2FADB4",
"<. c #2DA7B9",
"1. c #2DAABB",
"2. c #34A5B2",
"3. c #33ACB5",
"4. c #39AAB7",
"5. c #34ADBD",
"6. c #39ADBC",
"7. c #32B2B7",
"8. c #34B4BB",
"9. c #2EAEC1",
"0. c #31AFC0",
"q. c #2EB2C6",
"w. c #2FBACE",
"e. c #35B3C3",
"r. c #3BB5C5",
"t. c #35BAC3",
"y. c #3BB9C4",
"u. c #31B6C9",
"i. c #3AB7C8",
"p. c #35BCCC",
"a. c #3ABDCC",
"s. c #31BFD3",
"d. c #35BFD2",
"f. c #35C1C8",
"g. c #37C0CD",
"h. c #36C6CC",
"j. c #3DC0CF",
"k. c #36C1D4",
"l. c #35C4D7",
"z. c #38C1D2",
"x. c #3EC3D1",
"c. c #3CC5D5",
"v. c #3FC7D5",
"b. c #3DCBD7",
"n. c #36C5D8",
"m. c #3AC7D9",
"M. c #36CAD8",
"N. c #3FCCDB",
"B. c #39CADC",
"V. c #39CDDE",
"C. c #3ECDDD",
"Z. c #36CDE0",
"A. c #39CFE1",
"S. c #39D2E2",
"D. c #3ED1E2",
"F. c #3ED6E5",
"G. c #3CD7E9",
"H. c #3DD5E8",
"J. c #41C0D0",
"K. c #43D1E3",
/* pixels */
"                                                                                                                        ",
"                                                                                                                        ",
"                                                                                                                        ",
"                                                                                                                        ",
"                                                                                                                        ",
"                                                                                                                        ",
"                                                                                                                        ",
"                                                                                                                        ",
"                                                                                                                        ",
"                                                                                                                        ",
"                                                                                                                        ",
"                                                                                                                        ",
"                                                                                                                        ",
"                                                                                                                        ",
"                                                                                                                        ",
"                                                                                                                        ",
"                                                                                                                        ",
"                                                  ! _             _ !                                                   ",
"                                      _ | _ g Q 4.i.i.6.%.P P %.6.i.i.6.Q g _ | (                                       ",
"                                  | 4.6.6.2.Q 6.e.5.5.e.i.4.6.a.e.e.e.p.a.) 2.5.6.2.[                                   ",
"                              T 4.a.e.5.5.| ;.0.<.<.<.0.2.Q E 5.p.q.<.9.d.e...5.5.5.i.&.D                               ",
"                            ) v.K.H.k.e.&.| 5.>.>.>.<.u.[ x x X.d.q.9.<.9.n.$.2.5.5.i.J.6.H                             ",
"                          H e.b.C.F.H.C.$.2.i.0.e.0.9.p.E Z Z E k.w.p.p.p.m.p.$.e.i.a.v.y.e.J                           ",
"                          o.;.-.;.:.a.p.5.a.v.j.v.p.p.v.L Z Z Y C.Z.A.F.C.C.C.e.e.t.t.g.8.g.,.                          ",
"                        Q o.X.X.X.@.4.>.p.p.t.t.p.p.g.p.A V V U F.C.M.p.8.4.t.p.<.e.4.:.-.=.*.E                         ",
"                        ` { X.X.} +.#.o.t.7.:.,.4.4.7.e.N B n S F.8.:.#.O.o.-.4.o.;.@.{ X.X.X.{                         ",
"                      b { { { { { X.X.| 4.:.*.=.=.*.;.2.m f f C t.;.o.X.X.X.X.;.[ O.o.{ { { { { D                       ",
"                      I ` { ' ` ` | ` ) ;.*.*.*.#.O.@.o.p d d l #.@.X.| { { | o.E { X.{ ` { { { I                       ",
"                      I ` ` ` / ` { I G O.O.O.O.X.X.X.) y s s y ` X.{ ` ` ` [ { b E { ` / ` ` ` I                       ",
"                      N E E E W E ` x x { { { { { ` { N r a a r K { / ^ ^ ^ ^ ^ h c ` E W E E E F                       ",
"                      k I I I I E E 6 t E E E E E E E i e e e e i E E Y Y Y Y I 7 0 E E I I E Y x                       ",
"                      3 v N N N I N * 4 N L I I L L x 5 < < < w 5 c L K A A A x 4 * G Y K F F v 8                       ",
"                        8 j x N F 0 = , u v v v v j 4 < < > > < < 4 z v c x x 0 , = u G G b z 9                         ",
"                          1 8 q 3   - > ; 9 u u 3 * - : : : : : : - * 9 u q 3 ; > -   9 h 9 2                           ",
"                                    $ - - - * & & - - % % - - % % - - & & * - - - $                                     ",
"                                    @ $ $ $ $ $ $ $ $ $ $ $ $ $ $ $ $ $ $ $ $ $ $ @                                     ",
"                                    O # # # # # # @ @ @ @ # # @ @ @ @ # # # # # # O                                     ",
"                                    X @ @ @ @ @ @ + + + @ @ @ @ + + + @ @ @ @ @ @ X                                     ",
"                                      o O O O O O O O O O O O O O O O O O O O O o                                       ",
"                                      X o o o o o o o o o o o o o o o o o o o o X                                       ",
"                                        . X X X X X X X X X X X X X X X X X X .                                         ",
"                                            . . . . . . . . . . . . . . . .                                             ",
"                                                                                                                        ",
"                                                                                                                        ",
"                                                                                                                        ",
"                                                                                                                        ",
"                                                                                                                        ",
"                                                                                                                        ",
"                                                                                                                        ",
"                                                                                                                        ",
"                                                                                                                        ",
"                                                                                                                        ",
"                                                                                                                        ",
"                                                                                                                        ",
"                                                                                                                        ",
"                                                                                                                        ",
"                                                                                                                        ",
"                                                                                                                        ",
"                                                                                                                        ",
"                                                                                                                        "
};
