/* XPM */
static char *dirt_02[] = {
/* columns rows colors chars-per-pixel */
"60 60 160 2 ",
"   c #5C533F",
".  c #6D624A",
"X  c #71664B",
"o  c #74694E",
"O  c #766A53",
"+  c #7A6D54",
"@  c #7D6F58",
"#  c #7D7155",
"$  c #7E7159",
"%  c #817457",
"&  c #83755C",
"*  c #87785D",
"=  c #897B5E",
"-  c #867760",
";  c #877860",
":  c #8C7D62",
">  c #907F65",
",  c #8E805F",
"<  c #8F8063",
"1  c #938565",
"2  c #938465",
"3  c #938466",
"4  c #938566",
"5  c #928467",
"6  c #938467",
"7  c #948564",
"8  c #948565",
"9  c #958664",
"0  c #948665",
"q  c #958665",
"w  c #968765",
"e  c #948466",
"r  c #948566",
"t  c #958566",
"y  c #948467",
"u  c #948567",
"i  c #958567",
"p  c #958766",
"a  c #958667",
"s  c #958767",
"d  c #968766",
"f  c #968667",
"g  c #968767",
"h  c #928365",
"j  c #968867",
"k  c #978867",
"l  c #978867",
"z  c #988867",
"x  c #988967",
"c  c #988967",
"v  c #918168",
"b  c #928168",
"n  c #938368",
"m  c #948368",
"M  c #948369",
"N  c #948468",
"B  c #948568",
"V  c #958568",
"C  c #948469",
"Z  c #958569",
"A  c #968569",
"S  c #958668",
"D  c #958768",
"F  c #968668",
"G  c #978668",
"H  c #968768",
"J  c #978768",
"K  c #968669",
"L  c #978769",
"P  c #96866A",
"I  c #97876A",
"U  c #97866B",
"Y  c #968569",
"T  c #98876A",
"R  c #98876B",
"E  c #99876B",
"W  c #98876C",
"Q  c #98876B",
"!  c #978868",
"~  c #978869",
"^  c #978869",
"/  c #988868",
"(  c #988968",
")  c #998968",
"_  c #988869",
"`  c #988969",
"'  c #998969",
"]  c #998A68",
"[  c #998A69",
"{  c #9A8B69",
"}  c #98886A",
"|  c #99886A",
" . c #98896A",
".. c #99896A",
"X. c #98886B",
"o. c #99886B",
"O. c #99896B",
"+. c #9A896B",
"@. c #9A8A6A",
"#. c #9A8B6A",
"$. c #9B8B6A",
"%. c #9A8A6B",
"&. c #9B8A6B",
"*. c #9B8B6B",
"=. c #9B8C6B",
"-. c #9C8C6A",
";. c #9C8D6A",
":. c #9C8C6B",
">. c #9D8C6B",
",. c #9C8D6B",
"<. c #9D8D6B",
"1. c #9D8E6B",
"2. c #99886C",
"3. c #99896C",
"4. c #99886D",
"5. c #9A896C",
"6. c #9A8A6C",
"7. c #9B8A6C",
"8. c #9B8B6C",
"9. c #9B8A6E",
"0. c #9C8B6D",
"q. c #9C8B6F",
"w. c #9C8C6C",
"e. c #9C8D6C",
"r. c #9D8D6C",
"t. c #9C8C6D",
"y. c #9D8C6D",
"u. c #9D8E6C",
"i. c #9E8E6C",
"p. c #9E8E6D",
"a. c #9F8F6D",
"s. c #9F8F6E",
"d. c #9E8E6F",
"f. c #9F8E6F",
"g. c #9B8B6B",
"h. c #9F906D",
"j. c #9C8A70",
"k. c #9E8C70",
"l. c #A08F6D",
"z. c #A08F6F",
"x. c #A08F6F",
"c. c #A0906D",
"v. c #A0906E",
"b. c #A1916E",
"n. c #A0906F",
"m. c #A2916F",
"M. c #A2926F",
"N. c #A3936F",
"B. c #A1916E",
"V. c #A08F70",
"C. c #A08F71",
"Z. c #A09070",
"A. c #A19170",
"S. c #A39271",
"D. c #A49370",
"F. c #A49371",
"G. c #A59472",
"H. c #A39371",
"J. c #A99774",
"K. c #AC9B76",
/* pixels */
"n 9.9.n n < $ % h h h n h 9.% % ; 9.9.N.h ; 9.9.h N.9.h n 9.9.h n n n ; 9.9.9.9.= @ % n ; ; h 9.< # = D.9.h h ; h h n 9.",
"h h n n 9.h ; % h z.9.h h N.< ; 9.K.N.h h ; ; n h D.D.9.9.h 9.h < h h n n h 9.h % ; 9.9.9.h 9.D.h h 9.9.N.9.; h z.9.n D.",
"h h = 9.h h 9.; n 9.9.h < h 9.N.h n h h 9.! 9.N.h 9.N.9.h ; h ; % 9.n ; k.9.9.; h z.h h 9.9.9.h 9.h h 9.h n ; 9.9.n 9.n ",
"h h ! h h 9.h n n 9.D.z.< n 9.9.* ; n h h h 9.9.n 9.9.; ; ; h 9.= h n h n n ; * 9.h < 9.; % # = = = # h 9.h h 9.= ; 9.9.",
", j D.9.j ; ; T 9.! 9.N.9.; ; < h N.! x 9.n h h ; n ; h ; h h ; ; ; h n n n % ; h 9.h ; % 9.9.9.h 9.j 9.h 9.9.h % % h 9.",
"9.h 9.9.; h h ; n n ; 9.! * ; ; ! h 9.N.h 9.h 9.h n 9.9.h ; n ; ; n ; n n ; ; ; ; T h ; n $ h = h 9.9.h 9.9.9.h $ < h ; ",
"= N.N.9.h 9.h % * ; % D.9.< % n h < h 9.9.h 9.h n n 9.N.h h 9.< h 9.n h 9.h ; ; n T n 9.% O h h ! = x * h x 9.n < 9.; h ",
"% 9.h 9.9.9.; % h = 9.n ; % % h h ; % h 9.; ; h 9.h h 9.h n n ; n 9.n ; 9.9.h ; n ; ; h h h h % n 9.N.h = = h h 9.! 9.h ",
"% % * = 9.x h < ; % h = h h = j 9.= h 9.n % = 9.9.N.9.h 9.h ; n k.9.9.h n n h h ; h = h < = * ; 9.h j 9.# # h * + h h h ",
"h 9.h % ! = = h % % T % h h ; h < h < = 9.; + * n 9.; 9.9.h 9.9.n n h 9.T n 9.n h ; % < = * h 9.< j = * * = % . + h = h ",
"D.h % n ; = h N.h V.h ; < 9.% j 9.= < h 9.h h % % % % % * 9.T % * 9.h ; n 9.9.; n < = 9.9.N.h ; h h = = * , # o = j , 9.",
"9.= < 9.9.h h 9.9.n < h * ; ; x h ! 9.h > ; = ; 9.; h h ; = * * * ; ; % h 9.h % ; ; h * 9.9.< h h 9.h , % = , , , j , = ",
"9.= * h h h h N.h % 9.h h = 9.N.9.h h n h % ; h ; = h n h h % ; h % % n h h 9.9.; h = % = h h = * x 9.< = h = h 9.j < = ",
"9.< % 9.9.h < h.; h 9.9.9.h ! * * * 9.; % 9.< % h ; ; = h 9.; % ; % + h h ; h 9.< h ; ; ; 9.x # < 9.= % % j + h 9.9.; n ",
"h # = x 9.D.h h 9.N.h 9.9.9.; h h h = % ; h ; > ; ; % 9.D.h ; = @ ; h h ; n N.# j h 9.< ; h j = h h * = % h x h x N.N.h ",
"+   X # 9.h * h h * % h 9.h h 9.9.< h h T ; ; 9.; ; n 9.; % ; h h 9.n 9.; h n ; ; ! K.h j h = 9.h 9.h = % % 9.9.9.h 9.h ",
"= + # X h * h h + , % % 9.h * h h ; h = n h ; % 9.D.T % = 9.; h h = n ; h h h h % 9.9.9.D.! < 9.x j h % = % # x N.h h * ",
"N.9.9.% = = x h o X . % N.= ; n ; $ n 9.; h ; % ; ; ; ! 9.9.; < ; % * h h ; ; % 9.9.; 9.h ; 9.h N.* < + h * * # O * = = ",
"9.< + * h = h x x , % h N.9.9.9.h ; n n ; $ ; h % % ; 9.; 9.= % + + = n h n 9.N.9.9.9.9.9.D.h h h = % % = = h = # % h h ",
"h h = , x # + = h , x 9.9.9.9.z.; $ ; ; * ; n h 9.h h 9.9.h < h h 9.h ; 9.9.h 9.9.9.D.h 9.9.n 9.N.x % % x h 9.9.= = 9.h ",
"; h x h = # # N.% ; j 9.j h h = ; ; = n % n h ; h < < h h % + n 9.h * = 9.n % < 9.h 9.9.9.n h h 9.9.9.9.h o = h = h 9.< ",
"h 9.x = # = N.h * h ; 9.h j < h * % n ; % ; ; n n < h 9.9.h = h = ; h n n 9.9.9.z.n h 9.9.h h N.9.h h 9.x * % h x 9.h h ",
"9.9.j h h h 9.= h = n 9.h = ; T % ; n n ; T 9.k.n n 9.h h h ; 9.; ; n 9.h 9.n 9.9.n n h ; ; 9.9.9.9.h h * * % * h * 9.h ",
"= 9.9.9.9.< x = ; < 9.h ; $ = % n n $ ; h k.9.9.h 9.% * h % $ 9.h n h n 9.h ; 9.h 9.h 9.D.h n 9.h 9.9.h h 9.h 9.9.9.h h ",
"h h 9.9.! h h % n 9.< h = % ; T ; % ; n 9.k.h ; n h n n h ; 9.9.; n % h h T 9.h 9.9.h 9.9.; 9.9.j N.x 9.9.h 9.N.h 9.h ; ",
"h h x N.h n 9.9.N.9.; h $ ; h 9.9.9.n h D.k.h h h n 9.; % ; D.n ; ; % T n 9.k.n n n h = h 9.9.9.9.h j x x h j h h 9.9.h ",
"; h 9.h h 9.D.h.N.9.9.h n h ; h h n ; h n n < = ; h D.D.9.n k.9.; 9.n h T n D.n n n = h 9.h < 9.j 9.9.T 9.* = = D.h 9.h ",
"* 9.! h 9.9.h = h N.n = < % ; h ; T n ; > V.h n h n 9.9.h h 9.n $ V.h n h D.9.h h T n 9.h n h h h 9.9.9.= % = < 9.h ; % ",
"9.D.9.9.N.n ; T h 9.< % h T % ; ; n n ; ; ; h 9.h h h 9.h h ; % h 9.; h n n 9.9.; ; 9.; ; 9.9.* h n < 9.h ; h ; < h * h ",
"h n 9.h n n h n n = h 9.n n % % ; h h n * ; ; 9.% x ; ; % 9.9.; n ; ; h ; ; 9.; n h n = % ; n 9.9.h ; 9.% % ; % % n = ; ",
"% h 9.; n 9.; n h ; h h n n ; ; ; n n n n h T h h N.; ; h n n ; n 9.h ; ; ; ; h D.9.h h h 9.h h h ; ; 9.= = 9.n ; h 9.h ",
"h 9.! 9.n h n D.n h h n n ; 9.h 9.9.; h D.9.* ; D.; % h n h ; n ; 9.9.N.9.n h 9.9.9.9.n h 9.9.h ; ; n 9.h ; z.= ; 9.j h ",
"9.9.9.h h = ! 9.9.9.h n h n h ; n 9.9.9.9.n ; % ; 9.% ; h 9.; h h N.x < h = h ; h h h h ; h x 9.9.h n h n h h * h ; 9.9.",
"n h n ; 9.h n h h 9.h h ; h 9.T h ; h ! < n 9.; h 9.h < h 9.h % ; 9.n = h h h % % ; ; h n 9.h h h ; n k.h h = 9.h 9.! h ",
"h ; = h h ; h 9.9.9.= * n 9.9.h 9.n 9.n 9.h 9.< h ! ! n 9.9.h ; h 9.9.h < < h 9.9.; = 9.N.9.9.% h h * h n n 9.9.n D.h % ",
"; ; h N.; = 9.h ! N.h % h h T n 9.9.n ; n h 9.h D.9.; h 9.n h T = ; h h = = z.N.9.% h N.9.h n ; h 9.h < h n 9.; h N.n % ",
"h 9.x h % = n h 9.N.; h ; % k.n h h h n 9.h h 9.9.9.h * 9.h h n n h ; 9.9.h = j D.h 9.N.h h n h n ; h n n h % 9.h h 9.n ",
"! j ; 9.z.h n = ; 9.< ! 9.h 9.9.9.h h 9.9.9.! h h h n < h 9.9.< n ; h h ; * h 9.h 9.9.n 9.h h n 9.h ; 9.9.; * h 9.9.9.; ",
"9.j ; n h h N.9.h % ; 9.h ; h 9.9.h 9.h ; ! h h ; h 9.h n n z.h 9.n ; ; ; * 9.j 9.N.h h h n h h 9.9.= h h ; 9.9.9.n h h ",
"h 9.h 9.h 9.N.h % h ! 9.9.9.; 9.9.D.D.9.9.9.h h h 9.9.; ; h N.h h ; n ; < = h 9.n 9.h ; n h h 9.n 9.h n 9.h 9.h 9.h ; h ",
"% n j < 9.9.9.# % 9.; = * ; ; n h.9.9.h.9.h 9.N.9.h n 9.9.h ; 9.h + * * ; ; < = h ; = h 9.n h 9.h.h n 9.9.j * = 9.h 9.h ",
"# h = ; h h 9.! x < = % % * h ; h < j h 9.9.9.9.9.; h h h h h h 9.= T T h ; h = h ; % ; h ; h 9.9.n ; ; h 9.h 9.D.z.n ; ",
"; h 9.9.h 9.h h h h % ; 9.N.D.h * = D.h h 9.9.h h h n h 9.9.N.N.T h h % h * * h ; h = D.h ; 9.9.; T ; ; 9.9.= h n 9.9.; ",
"9.9.D.h 9.h h ; = h = 9.K.j = < h h 9.9.; 9.h h 9.9.9.9.9.h ; 9.9.n h > ; ; h ; + # ; D.h h n ; ; ; n n n * h 9.; h n ; ",
"% 9.9.h 9.O ; % ; h < ; n % . < h % 9.D.9.h 9.h 9.9.9.9.9.h ; h n = n n % ; ; 9.% ; ; h h 9.h = n h h n 9.% * 9.h % ; 9.",
"; h - 9.; h 9.; 9.9.; n D.h j D.h * 9.N.9.9.h h ! 9.9.9.h h N.h n h h * h % * 9.* % % h ; ; n n h n n n % % T = * ; 9.h ",
"* h h % h N.N.= n N.= = D.9.x h h = = h.N.9.h h h 9.! 9.D.9.h h n n h h h h 9.; @ ; h n n 9.9.D.n n 9.n % ; < ; 9.n 9.h ",
"h h 9.; 9.D.9.h 9., h h 9.9.9.N.h % 9.N.9.9.9.n N.x 9.h h 9.h h h n 9.! n h n ; n 9.h h n 9.9.D.h 9.9.h ; n n < h 9.9.h ",
"; ; ; % j ! n ; 9.h 9.* % h 9.9.# + x 9.h 9.x N.9.h 9.% < 9.; 9.h n h = 9.* ; % h 9.h 9.; h h ! h 9.N.! 9.9.; % % = % ; ",
"h ; + ; D.9.h ! 9.9.= h < 9.j * D.= x h * 9.h N.9.h 9.< 9.h h h ; % ; = ; n ; ; < ; h 9.n h N.n 9.9.9.n 9.h < + h ! 9.; ",
"; $ ; h h T h < h h # = 9.+ , h j x 9.= * 9.x h = h j h 9.* h h.; h N.* h h $ n 9.h 9.9.N.9.x 9.9.D.N.n n ; ; = ; n n n ",
"+ % h n h 9.; h % ; ; h * # = D.9.9.j % h 9.= * = N.9.9.h.x 9.h < h h 9.h 9.n 9.< 9.h n 9.9.h D.D.9.9.9.9.9.; % % n h ; ",
"; h ; h h h h 9.h h 9.9.9.h 9.9.N.9.9.h h 9.9.x 9.x h N.N.9.= = h ; n k.h n 9.n h n 9.9.9.9.9.N.9.N.9.9.h N.; ; ; h V.; ",
"; % h ; h 9.h 9.h h h ; h , h h 9.9.9.< h 9.N.j 9.N.! x 9.h h < 9.h D.9.h h 9.9.h n < = h h h 9.9.N.9.h 9.h 9.; h 9.n 9.",
"h ; = ; n h h h = 9., x ; h x 9.x 9.h h h.9.x x h 9.9.x x , * 9.9.h < 9.x h n 9.h n h ; 9.h D.9.9.; 9.n n h h h ; ; ; h ",
"; % % % h % ; ; * % < 9.h * h h < = h N.N.h 9.9.h h 9.N.x < h h 9.h * D.h ; h 9.N.D.9.h h n ; h 9.9.9.n 9.h ; n < % 9.n ",
"n h ; ; n n n 9.9.; h h h 9.n % h h h N.N.9.9.N.h h 9.9.< h 9.9.N.D.N.9.h h h 9.h j n h n D.h % ; 9.9.9.9.h h k.- % h = ",
"; h 9.% ; ; n n 9.h ; j 9.9.N.9.h h * h x 9.9.h ! N.9.N.D.n 9.9.x 9.N.9.h < n h h h ; n ; ; h h 9.h 9.N.9.h h h % ; h ; ",
"h ; h n h * ; ; n T ; x 9.h 9.h * h 9.h 9.9.h 9.9.h h 9.n n ! 9.h 9.N.x 9.h < ; ; n ; h n h h ! x 9.9.h h 9.; h n n 9.9.",
"! n n ; 9.; % ; ; h ; h 9.9.+ * = h h h N.9.! h ; h h = $ ! 9.h h 9.9.h x h h ; % ; % ; ; * h 9.h x 9.x N.9.= h 9.n % h "
};
