/* XPM */
static char *dirt[] = {
/* columns rows colors chars-per-pixel */
"60 60 160 2 ",
"   c #5D5C3D",
".  c #625F3B",
"X  c #66653F",
"o  c #69693F",
"O  c #766F3F",
"+  c #77713F",
"@  c #7C703F",
"#  c #656541",
"$  c #686743",
"%  c #676A42",
"&  c #6C6C43",
"*  c #716F42",
"=  c #6E7245",
"-  c #6E7549",
";  c #747445",
":  c #7A7644",
">  c #767946",
",  c #7C7A46",
"<  c #737649",
"1  c #787648",
"2  c #767A49",
"3  c #7C7D49",
"4  c #817743",
"5  c #837C46",
"6  c #897D46",
"7  c #827E48",
"8  c #897F48",
"9  c #907E47",
"0  c #7D824B",
"q  c #798450",
"w  c #7F8650",
"e  c #7D8653",
"r  c #7D8551",
"t  c #7F8952",
"y  c #858047",
"u  c #888047",
"i  c #888147",
"p  c #8A8047",
"a  c #818048",
"s  c #808049",
"d  c #838048",
"f  c #838049",
"g  c #838149",
"h  c #828249",
"j  c #838249",
"k  c #80804A",
"l  c #81814A",
"z  c #83804A",
"x  c #80834A",
"c  c #81834A",
"v  c #80824B",
"b  c #82824A",
"n  c #83834A",
"m  c #82824B",
"M  c #82834B",
"N  c #848048",
"B  c #848049",
"V  c #858149",
"C  c #878048",
"Z  c #878148",
"A  c #858248",
"S  c #848249",
"D  c #858249",
"F  c #858349",
"G  c #868249",
"H  c #878249",
"J  c #85804A",
"K  c #84824A",
"L  c #84834A",
"P  c #85834A",
"I  c #84834B",
"U  c #86824A",
"Y  c #87834B",
"T  c #82844B",
"R  c #83844B",
"E  c #83854B",
"W  c #84844B",
"Q  c #85844B",
"!  c #86844A",
"~  c #87854B",
"^  c #86864B",
"/  c #81834D",
"(  c #82824D",
")  c #87804C",
"_  c #84834C",
"`  c #85834D",
"'  c #82844C",
"]  c #83844C",
"[  c #82854C",
"{  c #83854C",
"}  c #81864F",
"|  c #84854C",
" . c #87844C",
".. c #86854C",
"X. c #85864C",
"o. c #84864D",
"O. c #85874D",
"+. c #86864C",
"@. c #87864C",
"#. c #83834B",
"$. c #898049",
"%. c #898149",
"&. c #8A8149",
"*. c #898249",
"=. c #8B8349",
"-. c #88834A",
";. c #89834A",
":. c #88834B",
">. c #88844A",
",. c #89854B",
"<. c #8A844A",
"1. c #89874B",
"2. c #8C854B",
"3. c #8C874B",
"4. c #88864C",
"5. c #88874D",
"6. c #8A874C",
"7. c #8B864D",
"8. c #8B844E",
"9. c #8A844B",
"0. c #80894F",
"q. c #878A4D",
"w. c #85894F",
"e. c #878A4F",
"r. c #85894E",
"t. c #8B894C",
"y. c #88894E",
"u. c #8A894E",
"i. c #8B894E",
"p. c #8C884C",
"a. c #8C884D",
"s. c #8F884F",
"d. c #8F8B4E",
"f. c #8A894E",
"g. c #91844B",
"h. c #918A4D",
"j. c #838750",
"k. c #838651",
"l. c #898651",
"z. c #818851",
"x. c #848950",
"c. c #878852",
"v. c #848B52",
"b. c #868B52",
"n. c #868D50",
"m. c #878F53",
"M. c #868F54",
"N. c #848B52",
"B. c #888B50",
"V. c #888A51",
"C. c #888D51",
"Z. c #8D8E50",
"A. c #8E8E52",
"S. c #8A8C51",
"D. c #858F58",
"F. c #918C50",
"G. c #8B9154",
"H. c #869158",
"J. c #8E9658",
"K. c #909051",
/* pixels */
") $., > : 5 ) 0 , : s.0.s.) ) $.) ) ) ) 2 x.e t c.7 5 0 ) ) ) , 7 ) 5 5 7 7 5 5 $.s.5 p 7 5 5 p ) ) ) ) x.) ) ) 7 ) 5 7 ",
"8 ) 3 , 7 3 1 3 7 $.) ) ) ) ) , 5 3 0 2 3 0 0 0 0 0 ) x.0 ) $.5 3 ) 5 ) , 3 $.7 5 7 ) ) 7 ) $.) , : 0 0 ) ) m.) 5 , 5 $.",
"s.) > $.7 3 3 e V.) , : 7 0 5 ) 5 x.x.0 3 0 3 , ) ) ) x.0 0 ) 5 5 s.5 5 5 : 7 ) , 0 ) ) ) ) 8 d , : s.) ) 0 , $.5 5 5 ) ",
"7 0 ) 7 > 3 3 ) x.7 1 3 ) 3 ) 3 0 0 m.3 > 2 0 0 ) x.x.x.) 0.s.) $.) : 5 ) V.s.7 3 0 $.) ) p 5 $.) 0 V.) 0 ) 5 ) 5 5 ) , ",
"3 , , 3 : 3 2 3 3 - 1 ) 5 ) 0.5 ) 3 1 % 2 0 2 e e J.x.0 0 ) s.p 5 5 5 $.: ) 0 ) ) 7 5 5 ) s.$.) 5 $.s.0 0 5 5 ) 5 5 3 ) ",
", 7 0 1 : , 3 3 2 % 1 > , 7 ) ) , , % 1 2 3 ) 0 x.x.0 2 ) ) ) 5 5 5 0.) : ) ) $., ) s.3 ) d 5 ) 5 s.) ) , , ) ) 8 5 ) ) ",
") ) 2 3 7 1 , 7 2 ) , 1 0 ) ) ) 3 ) , 0 ) 0 ) s.) 2 0.) , 3 3 s.g.5 5 ) V.) ) ) ) ) ) 5 5 5 5 7 5 5 ) ) $.$.$.$.5 ) ) x.",
"3 3 3 ) 3 1 7 0 3 0 , , ) s.$.: , ) ) 5 ) ) 5 $.) 3 ) 0.0 3 ) 5 5 p 4 5 0.$.$.F.s.0.5 8 ) ) 5 7 $.5 ) ) ) ) ) ) 0 ) ) ) ",
", 3 ) 3 3 7 3 0 c.0 3 , : : 5 ) ) s.$.) 0.) ) x.x.> ) ) 5 0.) , 5 , 5 ) $.$.5 7 0 ) $.$.7 s.$.$.8 p 0.5 $.$.0.) 0.$., : ",
") 3 3 ) , : , 3 3 3 : , > , 5 0.) 7 , ) 0.$.5 ) t , 2 ) ) 0 0 , ) p d , ) $.8 5 , ) p $.8 $.) p 5 p s.5 $.) 0.) 5 5 : 3 ",
", ) 1 , 1 1 , , 3 1 % , , 7 ) ) , , 5 ) ) 0.0 $.) 3 0 ) 0 1 , 5 5 ) ) 3 s.g.5 h.$.7 ) ) 8 $.$.) x.5 ) 8 $.0 ) ) 7 $.) ) ",
"3 x.) : 2 1 , 7 3 * : , 1 3 0.: 1 1 , 3 3 ) 0.0 2 > 0 ) , 0 0 ) 5 $., , 5 $.$.) $.$.) ) $.5 $.) 5 5 $.$.V.) 7 5 5 , , ) ",
") 2 , 5 0 1 , d % 1 1 1 ) 3 1 % 0.> 2 0 2 2 ) 0.) , 3 , 0 ) ) ) ) ) + $.5 5 $.) 5 ) ) d 0 5 0.5 5 $.$.) , ) , 5 3 3 5 , ",
"1 ) , , 1 1 , 3 , 1 1 * 3 ) > 2 ) 1 , ) x.2 1 ) x.) 0 1 ) 0 3 5 3 : 5 ) $.$.$.g.7 , ) 5 ) 5 $.) 7 ) ) 5 3 7 ) $.) 3 1 , ",
", ) , 2 1 0 1 1 : : 1 % , , 5 3 , : 1 , 0 1 3 = 1 3 q 3 3 , ) ) ) 7 : ) s.H.$.8 ) ) , 5 $.) ) ) 5 ) 5 ) 0 > ) s.5 1 1 3 ",
"0 1 ) 0.0 5 = 3 : : 2 % , ) 5 ) , o X > , : 3 0 0 0 0 0., , 2 0 3 , 1 , ) ) 5 5 ) 5 : , ) 0 , 8 5 $.) 0 0.s.s.0 7 , 3 0 ",
"1 1 1 , : 5 ) $.: , , 1 ) s.5 ) 0.% X 0 ) 5 s., > , 0 ) 0 1 % 1 % 3 , d ) ) $.) ) > , ) ) , 0 5 , ) 3 5 0.0.0.0.) , 7 ) ",
"1 , , , s.) 5 5 , , 3 , ) ) 5 ) 0 1 % > ) , , 1 % % > 1 1 1 0 1 1 1 > : 0 5 $.0 ) , ) > 5 : ) , 0 ) , ) d 5 0.) , : > 1 ",
") 3 ) ) ) ) : 5 ) ) ) $.) 5 ) s.3 1 % 2 2 0.) 3 % 1 3 3 0 0 ) , ) 3 = 2 ) s.) 7 7 3 , , 7 3 ) ) 0.s.) s.d ) 0 , , 3 0 5 ",
", 5 ) 5 1 , , ) ) ) ) 0.5 ) V.0.3 3 % % 3 ) 1 1 1 3 3 1 , ) ) ) 3 1 1 0 0 0.) 5 , , ) d ) ) ) x.s.s.5 ) $.0 , ) ) , ) ) ",
"s.) ) ) 5 x.) , s.) ) ) 3 ) s., ) , 1 1 , = 1 1 > ) = 2 s.$.$.) 3 1 7 $.) ) , , ) ) 5 ) 5 ) 0 ) ) 0.5 s.) 5 0 ) > , ) ) ",
"0.s.d $.) 0.) ) 0.H.K.5 ) , ) 5 $.0 ) ) 0 , 0.0 1 1 % 0 ) , 0 ) , , ) 5 3 0 0 ) , , 5 0 , 7 ) ) ) x.) ) ) , 3 , , 3 0 ) ",
") ) 5 p ) ) ) 0.0.s.$.5 ) ) ) ) $.) ) c., 0 , 1 1 % 1 ) ) ) ) 5 , ) 5 7 3 , ) 0 3 , 7 0.3 3 7 0 , > > 2 : ) ) 5 ) , 5 s.",
"s.) ) ) 5 0.0.x.) ) 5 d d ) $.) ) 3 3 ) ) 0 1 = % 1 , , 0 3 , 3 ) $.5 0.d 5 0.0.) 5 , 0 V.) 0 2 0 % X 1 1 , 0.) s.$.) 7 ",
"0.) 0.) ) ) 0.V.7 $., 5 ) 5 5 ) 0.) 5 ) ) 3 0 1 1 1 1 1 0 , 3 c.) d ) 3 ) , 0 0.$.) 3 3 , = 1 2 = > 2 3 3 3 ) 0.s.$.5 p ",
"d ) $.s.) H.0.) ) ) 0.x.) 0 0 ) x.x.0.x.) , 0 3 > 1 # # : ) x.x.) 0.) ) ) ) ) 0 0 ) 3 , 2 2 1 > , , 2 0 ) 2 0 x.V.$.$.$.",
"5 5 ) 0.) H.0.0.) 0 , x.H.t 0 H.t x.x.) ) $.0 3 2 % % % , x.) ) x.) : ) ) 0.0.5 7 3 d , > , 1 1 > 3 0 1 0 x.x.H.x.) ) 5 ",
", $.) 5 d s.) 0 ) ) 0 ) x.t x.V.) 0 ) ) ) ) 0 3 3 2 3 3 t x.) 0 ) x., ) s.) ) $.5 , , , 0 ) 0 ) 0 0 ) 3 0 x.c.0.0 x.$., ",
"$.$.) s.s.) 5 4 ) x.) 0 0.) 0 0 0 ) H.x.0 0 ) 1 d 2 2 3 ) ) 0.d ) 0.0 0.) 5 , 0 % 1 , 3 , , ) ) 7 ) ) ) ) 0 0 V.0.x.5 d ",
") ) $.$.$.5 ) 5 3 0 , 0 ) ) ) ) ) ) c.t 0 3 0 , ) 3 0 , , ) ) ) ) ) 0 3 ) ) 1 2 % 1 > 3 , 3 , : ) $.) ) ) ) ) x.x.) 0.) ",
", ) ) 5 5 $.5 , 1 ) ) 0 ) 0.) ) 0 0 0 % ) ) ) ) ) ) , ) 0.) , > 0 3 ) , ) 3 3 3 , : # , 3 , 1 : 3 , 0 7 0.) ) c.3 0.) 7 ",
") 0 ) $.0.5 , 0 2 ) 0 ) ) ) 0 0 2 > x.0 d 0 0 0 0 5 ) 5 ) ) 3 1 , > , , 7 ) , 3 0 * # 1 , 1 , , 5 7 0 5 0.5 $.) x.) 5 , ",
", 0 s.s.$.x.x.0.x.0.) 3 , 7 , , , 3 ) ) , 5 3 3 0.$.0.d ) x.) , > = , , ) 0 = - = % o > p , , , , 3 0 ) ) ) 5 , ) $.) 5 ",
"$.0.) ) ) x.x.> 0 0 0 : ) 0 , , ) $.5 5 , , , , , ) ) ) ) ) ) ) 3 1 0 ) 5 , 0 3 > 1 * > ) , 3 0 , 5 ) ) 0.7 d 0 x.) ) 5 ",
") V.x.0.0 3 3 > 0 0 3 , 5 : 3 , 3 3 , : , % = 7 ) ) ) ) 3 ) $.0 0 + ) 5 ) 0 ) 0.) , 3 0 0 > 2 3 5 7 7 , 7 ) , , 0 x.) 3 ",
") ) 0.) ) 0 0.) x.0 0 , 7 ) 3 1 , 3 ) 0 = 1 , ) 5 5 5 $.5 0.) ) : : ) 3 ) 3 ) s.0 ) , 3 1 % * : ) ) 0 ) 0 2 1 , d ) ) ) ",
") V.0.) 0 t x.) 0 0.3 0 ) ) : 1 2 > ) 1 5 ) 0 1 , , ) 7 ) : 0 3 7 7 , ) 0.) 3 0.0 7 , 1 % % , , , 3 ) , 5 1 , 3 , , $.0.",
") $.) ) ) x.H.0 , 0 1 2 3 ) % = 2 = : : 3 0 , = % % , e 2 , 3 : , , 5 $.) 1 % 3 0 1 3 1 , 1 3 3 , 3 , , ) 3 3 1 , ) 5 5 ",
"0.) ) ) ) V.) , , 7 0 ) ) 1 - 1 1 2 2 1 > 3 1 % % 1 % = % 1 , 1 1 , 7 ) 3 2 # % 3 , 2 0 1 1 3 3 3 3 , 0 ) 5 7 ) 5 0 0.) ",
"$.) ) x.V.) 5 , ) 5 5 H.0 1 = 1 = 1 = 1 > ) o % 3 1   X % 1 1 2 , 5 0.3 1 , 3 > 3 , % 2 % % 7 3 : 3 0 3 1 , 3 5 : ) , , ",
"7 3 ) ) x.5 ) 0 ) ) 0 ) , 1 > , , , 0 2 1 2 1 3 1   X 1 1 1 3 3 7 ) 3 5 3 1 , 3 3 , 1 3 3 : 3 : 5 , 3 0 7 0 2 , 3 ) ) ) ",
"2 3 0.) ) ) ) V.) ) 0.0 , , 0 ) , 3 , ) 0 3 1 2 # 1 - % = 1 3 , 7 $.5 ) 0 0 ) ) 3 0 3 2 7 5 3 , 3 5 , : ) 3 , 2 e 5 3 0 ",
"0 0 x.) t ) $.) 0., 7 ) ) 0.) , 5 , 2 ) H.2 % 1 0 1 = 1 2 1 3 3 : ) $.) , 0 0 0.) , 3 0 7 7 5 , 3 : , 5 , 1 1 2 1 3 0 0 ",
"0 ) ) 0 0.) ) 0 ) 5 $.x.) ) ) ) 1 ) 5 , 0 - 1 3 2 2 1 1 % 3 , ) 5 5 s., 0 , 0 ) : , 1 7 7 : 0 3 , 3 = ) 3 1 1 1 1 2 ) 0.",
"0.) , ) 0.5 , , s.) 0 , ) ) ) 0 3 3 ) , 2 s.) x.x.0 * % 1 > , 5 5 7 $., 7 , ) , 2 % 1 ) 5 , , ) 5 , 1 3 1 1 , , 3 ) g.s.",
"s.) ) , , 7 ) 5 5 , 0 , 0 0.) ) 1 1 1 1 3 ) 3 , , 1 % % ) 0 , ) ) $.5 ) ) ) 1 1 1 % % , 5 ) 1 2 3 3 : 0 ) 1 1 , , , ) ) ",
"5 $.) 2 3 ) ) ) : ) ) , e x.d 1 % # % ) 1 1 > 3 , , 3 : c., 3 , ) ) ) 0 ) ) , 1 % % % 2 0 * > 1 : 3 , , ) , 0 2 ) ) ) 5 ",
") ) : 3 , 7 7 0 5 d ) , 0 0.3 , ) # % 0 ) , , 1 1 1 1 * ) 7 , , ) s.) , , > , 3 3 1 3 , 3 3 $., 5 5 0 , : 5 0 0 ) ) ) ) ",
") ) $., 5 5 ) 5 d 5 7 ) 0 0 ) 2 2 %   = 3 , 1 % 2 1 1 2 3 > 7 ) x.0.) 0 > , , 0 , , 2 * 3 ) , : ) ) , 0 3 ) ) ) , : ) s.",
", ) s.$.s.d 5 5 , 5 8 ) ) ) 0 0 2 2 1 1 % 1 1 3 0.1 0 3 > : 3 0.0.0 , : : 0.) ) , 0 , ) 1 1 3 5 ) , 5 ) 0.0 ) , : $.) , ",
", 0.) $.8 d ) 5 @ ) $.8 h.) 3 1 3 ) ) , 3 = 2 ) ) x.0 > 1 $.5 ) 0 , + : , ) s.$., ) ) , : 3 ) 3 , 3 ) 5 s.) 0 $.5 s., 0 ",
"$.) 0.5 5 3 ) l.5 h.$.$.s.5 , : $.5 ) ) ) = 0 3 ) ) ) x.0.) , ) 0 , 7 5 ) ) ) 3 , $.5 0.) 3 0 3 0 ) ) 0 ) $.) $.9 8 $.$.",
") 5 ) s.) ) 7 , 8 $.5 ) $.) ) $.) ) ) ) ) 3 ) , ) ) x.m.s.) ) ) 5 , 5 $., ) ) , ) ) ) V.) 7 ) > 1 3 , ) $.$.5 8 ) ) V.) ",
", 5 0 ) ) $.5 $.) , 5 ) , ) 7 ) ) $.) 0.3 0 ) 3 0 > 0 0 ) , 5 5 ) : , ) ) 7 ) ) ) ) 0.x.) ) 3 3 ) : 1 ) 5 ) $.) ) s.V.) ",
") ) $.5 ) ) s.5 1 1 : , 0 0 : , 5 5 5 ) 3 ) 3 0 t ) 0 0.) 5 ) 7 , , 5 5 ) 7 V.5 5 , ) ) $.5 ) 3 , , , ) V.$.$.$.$.) c.l.",
") s.s.) ) ) 0.3 3 , $.5 3 , , d ) s.) ) 0 0 ) ) ) x.) V.s.s.x.) ) 5 7 5 7 ) ) $.) 8 s.8 5 ) 0 0 % > H.V.) $.) 5 ) ) 7 ) ",
"5 ) d 7 5 0.> x.) ) ) 5 ) 5 5 5 , ) , 0 s.3 0 x.$.0 x.) ) x.0.x., 4 7 ) $.) ) $.$.8 $.5 ) ) 0.3 , ) ) 0 x.) ) s.) 0 7 : ",
") 7 ) 1 0 2 > ) ) , ) ) 5 d $.) ) ) 0 0 5 0.0.) 0.0.) ) 0 ) , s.5 ) , $.) $.8 s.$.5 8 ) 3 3 ) 5 ) 5 ) ) ) ) ) ) ) , 7 ) ",
") 0 5 ) ) : ) , 5 ) ) ) $.5 ) ) ) 0., 0 H.x.) 0.) ) ) 0.0 0.0.) 0.5 5 $.$.$.7 $.7 5 ) 5 3 , ) 7 ) , , ) , 5 , ) 5 5 ) 0.",
") 7 $.) 1 $., ) ) ) ) 5 5 5 ) , 0 ) ) m.x.0 ) 0 0 ) ) ) s.V.) ) ) , 3 ) 8 s.7 , ) 7 $.5 7 $.s.5 5 3 , 3 ) , 5 $.5 8 ) ) "
};
