/* XPM */
static char *p_left[] = {
/* columns rows colors chars-per-pixel */
"60 48 251 2 ",
"   c None",
".  c black",
"X  c #010000",
"o  c #010100",
"O  c #010101",
"+  c #020101",
"@  c #010201",
"#  c #020202",
"$  c #030202",
"%  c #020302",
"&  c #030302",
"*  c #040302",
"=  c #040303",
"-  c #030503",
";  c #040403",
":  c #050403",
">  c #050404",
",  c #050504",
"<  c #060404",
"1  c #060504",
"2  c #060505",
"3  c #070505",
"4  c #040704",
"5  c #090606",
"6  c #080706",
"7  c #0A0706",
"8  c #0A0707",
"9  c #050804",
"0  c #070B06",
"q  c #0B0807",
"w  c #0A0908",
"e  c #0B0908",
"r  c #0C0808",
"t  c #0D0908",
"y  c #0D0909",
"u  c #0C0A09",
"i  c #0E0A09",
"p  c #0D0B0A",
"a  c #0F0B0A",
"s  c #0F0D0B",
"d  c #0F0D0C",
"f  c #100C0B",
"g  c #110C0B",
"h  c #110C0C",
"j  c #100D0C",
"k  c #120D0C",
"l  c #110F0D",
"z  c #130E0D",
"x  c #0A1009",
"c  c #13100E",
"v  c #16100F",
"b  c #17100F",
"n  c #171110",
"m  c #161210",
"M  c #171412",
"N  c #181110",
"B  c #181210",
"V  c #191211",
"C  c #1A1211",
"Z  c #1A1312",
"A  c #181412",
"S  c #191513",
"D  c #1A1614",
"F  c #1B1614",
"G  c #1B1714",
"H  c #1B1715",
"J  c #1C1715",
"K  c #1E1614",
"L  c #131D10",
"P  c #1E1917",
"I  c #1F1A17",
"U  c #201715",
"Y  c #201716",
"T  c #241A18",
"R  c #251A18",
"E  c #251A19",
"W  c #251B19",
"Q  c #271C1A",
"!  c #281D1A",
"~  c #281D1B",
"^  c #291E1B",
"/  c #291E1C",
"(  c #2A1E1C",
")  c #2B1F1D",
"_  c #2C1F1D",
"`  c #1B2917",
"'  c #1F301B",
"]  c #26201D",
"[  c #28221E",
"{  c #29231F",
"}  c #2C201D",
"|  c #2C201E",
" . c #2D201E",
".. c #2F2220",
"X. c #2C2521",
"o. c #2E2723",
"O. c #2F2723",
"+. c #2F2823",
"@. c #302320",
"#. c #312321",
"$. c #322421",
"%. c #322422",
"&. c #332522",
"*. c #342523",
"=. c #342623",
"-. c #352624",
";. c #352724",
":. c #362724",
">. c #372725",
",. c #342C27",
"<. c #352C27",
"1. c #382825",
"2. c #382826",
"3. c #392926",
"4. c #3A2A27",
"5. c #3B2A27",
"6. c #352D28",
"7. c #3B2B28",
"8. c #3C2B28",
"9. c #3D2C29",
"0. c #3E2C29",
"q. c #3E2D29",
"w. c #3E2D2A",
"e. c #3F2D2A",
"r. c #263A21",
"t. c #3A312C",
"y. c #3B322C",
"u. c #3C332D",
"i. c #3D332E",
"p. c #3E342E",
"a. c #3F352F",
"s. c #403631",
"d. c #433631",
"f. c #423732",
"g. c #493D37",
"h. c #4A3E38",
"j. c #2C4325",
"k. c #2C4426",
"l. c #2F4828",
"z. c #35512E",
"x. c #37542F",
"c. c #395731",
"v. c #395831",
"b. c #3A5832",
"n. c #3A5932",
"m. c #51443D",
"M. c #52453E",
"N. c #406237",
"B. c #436639",
"V. c #43663A",
"C. c #43673A",
"Z. c #44673A",
"A. c #486E3E",
"S. c #554740",
"D. c #564840",
"F. c #564941",
"G. c #574942",
"H. c #594B43",
"J. c #5A4C44",
"K. c #5E4F46",
"L. c #5E4F47",
"P. c #5F4F47",
"I. c #5F5047",
"U. c #63534B",
"Y. c #64544C",
"T. c #69584F",
"R. c #6F5D54",
"E. c #715F55",
"W. c #4D7643",
"Q. c #4E7844",
"!. c #4F7844",
"~. c #7A665C",
"^. c #7B685D",
"/. c #7C685D",
"(. c #7C695E",
"). c #806C60",
"_. c #857064",
"`. c #867065",
"'. c #867165",
"]. c #8A7468",
"[. c #8E776B",
"{. c #90796C",
"}. c #927A6E",
"|. c #558149",
" X c #59874D",
".X c #5C8C4F",
"XX c #5E8F51",
"oX c #5E9051",
"OX c #5F9152",
"+X c #609152",
"@X c #609252",
"#X c #609253",
"$X c #609353",
"%X c #619353",
"&X c #619454",
"*X c #9E8577",
"=X c #9F8678",
"-X c #A08678",
";X c #A48A7B",
":X c #A48A7C",
">X c #A58A7C",
",X c #A98E7F",
"<X c #AC9182",
"1X c #AD9282",
"2X c #B09485",
"3X c #B19485",
"4X c #B19585",
"5X c #B29686",
"6X c #B49787",
"7X c #B49888",
"8X c #B69989",
"9X c #B89B8B",
"0X c #BB9D8C",
"qX c #BB9D8D",
"wX c #C0A190",
"eX c #C1A291",
"rX c #C1A292",
"tX c #C1A392",
"yX c #C2A392",
"uX c #C3A393",
"iX c #C3A493",
"pX c #C4A493",
"aX c #C5A694",
"sX c #C6A695",
"dX c #C9A997",
"fX c #CAA998",
"gX c #CBAA99",
"hX c #CFAE9C",
"jX c #D0AF9D",
"kX c #D2B19E",
"lX c #D3B19F",
"zX c #D4B2A0",
"xX c #D7B4A2",
"cX c #D7B5A2",
"vX c #D8B5A3",
"bX c #D8B6A3",
"nX c #D9B6A3",
"mX c #D9B7A4",
"MX c #DAB7A4",
"NX c #DBB8A5",
"BX c #DCB9A6",
"VX c #DDB9A6",
"CX c #DDBAA6",
"ZX c #DDBAA7",
"AX c #DEBAA7",
"SX c #DEBBA7",
"DX c #DEBBA8",
"FX c #DFBBA8",
"GX c #DFBCA8",
"HX c #E0BCA9",
"JX c #E3BEAB",
/* pixels */
"                              . . . . . . . . . . . . . . . . . . . . . . . .                                           ",
"                            . . . . . . . . k W e . . . . . . . . . . . . . . . .                                       ",
"                          . . . . . . . . . U w.H . . . . . . . . . . . . . . . .                                       ",
"                    . . . . . W ! ! ! ! ! ! $.w.$.! ! ! ! ! ! ! ! ! ! ! ! ! ! k . . . . .                               ",
"                  . . . . . 7 $.w.w.w.w.w.w.w.w.w.w.w.w.w.w.w.w.w.w.w.w.w.w.w.H . . . . .                               ",
"                  . . . . W $.w.w.w.w.w.w.w.w.w.w.w.w.w.w.w.w.w.w.w.w.w.w.w.w.$.| e . . .                               ",
"                  . . . . $.s.w.w.w.w.w.w.2.2.2.2.2.2.2.2.2.2.2.2.2.2.2.w.w.w.w.w.c . . .                               ",
"                  . . . . $.w.w.w.w.w.w.! q q q q q q 7 7 7 7 7 7 q 7 H w.w.w.w.w.$.O.7 . . .                           ",
"                  . . . . $.w.w.w.$.$.$.U . . . . . . . H P P H . . . M w.w.w.w.w.w.2.e . . .                           ",
"                  . . . . $.w.w.$.q . . . . . . . . . e *XtXtX*Xe . . H w.w.w.w.w.w.2.e . . .                           ",
"                    . . . ! $.$.! . . . c +.O.O.O.O.O.t.qXFXFX5Xe . . H w.w.w.w.w.w.2.c q . .                           ",
"                      . . . . . . . . . M.jXhXhXhXhXhXhXnXAXAX5Xe . . H w.w.w.w.w.w.w.2.$.. . . .                       ",
"                      . . . . . e t.f.s.(.AXAXAXAXAXAXAXAXAXAX5Xe . . k | $.w.w.w.w.w.w.2.H e . .                       ",
"                      . . . . . O.hXnXnXcXAXnXnXnXnXAXAXAXAXAX5Xe . . . . U w.w.w.w.w.w.w.w.$.. . . .                   ",
"                      . . . e h.E.lXAXAXAXAXAXAXAXAXnXAXAXAXAXtXK.S.F.,.. k W $.w.w.w.w.w.w.$.. . . .                   ",
"                      . . . H tXAXAXAXAXAXnXnXAXAXAXnXnXAXAXAXAXAXAXFX_.. . . W w.w.w.w.w.w.$.. . . .                   ",
"                        . . H tXAXAXAXAXnXnXnXnXAXAXAXnXnXnXnXnXnXnXAX_.. . . W w.w.w.w.w.w.$.. . . .                   ",
"                          . H tXAXAXAXAXAXnXnXnXAXAXAXAXAXAXAXAXAXAXFX_.. . . W w.w.w.w.w.w.$.. . . .                   ",
"                          . H tXtXT.I.K.}.nXAXAXAXAXAXcX~.K.K.~.cXAXAX7X^.^.^.s.H $.w.w.w.w.2.W H . .                   ",
"                          . H tX5Xe . . F.AXAXAXAXAXAXhXO.. . O.hXAXAXAXFXFXJXK.. ! w.w.w.w.w.w.| . .                   ",
"                          . H tX7Xe . . K.AXAXAXAXAXAXhXO.. . O.hXAXAXAXAXAXAXK.. e H $.w.w.w.w.! . .                   ",
"                          . H tX7XM 7 . K.AXAXAXAXAXAXhX6.. . 6.hXAXAXAXAXAXAXK.. . . $.w.w.w.w.! . .                   ",
"                          . H tXlX,X>X>XqXAXAXAXAXAXAXnX5X>X>X5XcXnXnXnXAXAXAXK.. . . e k k k k e . .                   ",
"                          . H tXAXAXAXAXAXAXAXAXAXAXAXAXAXAXAXAXnXnXnXnXAXAXAXU.e c k . . . . . . . .                   ",
"                          . H tXFXAXAXAXAXAXAXAXAXAXAXAXAXAXAXAXAXAXAXnXnXnXAXtX7XqX1X] . . . . .                       ",
"                          . H ,XtXtXtXtXtXtXtXtXwXwXwXwXtXtXnXAXnXnXAXAXnXnXAXAXAXhX7X| . . . . .                       ",
"                          . . M H H H H H H H H H H H H H ,.tXAXAXAXAXAXnXAXAXAXnXF.M . .                               ",
"                          . . . . . . . . . . . . . . . . H tXAXAXAXAXAXAXAXAXtX1X,.. . .                               ",
"                          . . . . . . . . . . . . . . . . H tXAXAXAXAXAXFXFXFXU.e . . . .                               ",
"                          . . . . . . . . . P t.t.t.t.t.t.M.dXAXAXAXAXtX=X=X-Xs.. . . . .                               ",
"                                  . . . . . R.AXnXnXnXnXnXnXAXFXFXFXJX[.. . . . . . .                                   ",
"                                  . . . . . g.}.[.[.[.[.[.[.[.[.[.[.}.F.. . . . . . .                                   ",
"                                  . . . . . . . . . . . . . . . . . . . . . . . . . .                                   ",
"                                  . . . . . . . ` k.k.k.k.k.k.k.k.' . . . . . . . . .                                   ",
"                                          . . . b.@XOXOXOXOXOXOX@XV.. . . . .                                           ",
"                                          . . . c.@XXXXXXXXXXXXXOXV.. . . . .                                           ",
"                                          . . . c.@XXXXXXXXXXXXXOXV.. . . . .                                           ",
"                                          . . . c.@XXXXXXXXXXXXXOX|.N.r.. . .                                           ",
"                                          . . . c.@XXXXXXXXXXXXXXXOX@Xb.. . .                                           ",
"                                          . . . c.@XXXXXXXXXXXXXXXXX@Xb.. .                                             ",
"                                          . . . c.@XXXXXXXXXXXXXXX.X Xz.. .                                             ",
"                                          . . . c.@XXXXXXXXXXXXXOXA.L x . .                                             ",
"                                          . . . c.@XXXXXXXXXXXXX@XV.. . .                                               ",
"                                          . . . b.@XOXOXOXOXOXOX@XV.. .                                                 ",
"                                          . . . l.!.W.W.W.W.W.W.!.z.. .                                                 ",
"                                          . . . . 0 0 0 0 0 0 0 0 0 . .                                                 ",
"                                          . . . . . . . . . . . . . . .                                                 ",
"                                          . . . . . . . . . . . . . . . .                                               "
};
