/* XPM */
static char *poison[] = {
/* columns rows colors chars-per-pixel */
"60 60 199 2 ",
"   c None",
".  c #000300",
"X  c #040B02",
"o  c #080D03",
"O  c #061104",
"+  c #0B1506",
"@  c #0B1907",
"#  c #0D1C09",
"$  c #101706",
"%  c #131B07",
"&  c #141E08",
"*  c #0F220B",
"=  c #13230C",
"-  c #1A240A",
";  c #152A0E",
":  c #1E2A0C",
">  c #142D11",
",  c #1B2E10",
"<  c #1A3313",
"1  c #173D17",
"2  c #1E3A15",
"3  c #183B18",
"4  c #153513",
"5  c #212D0D",
"6  c #24320F",
"7  c #253411",
"8  c #283711",
"9  c #243B15",
"0  c #2C3D14",
"q  c #223D1A",
"w  c #293F19",
"e  c #1C4219",
"r  c #1E481C",
"t  c #2F4115",
"y  c #24441A",
"u  c #2C451A",
"i  c #254A1C",
"p  c #2A4B1D",
"a  c #314317",
"s  c #354817",
"d  c #334518",
"f  c #36491A",
"g  c #394D1C",
"h  c #2B521F",
"j  c #3C511E",
"k  c #224D21",
"l  c #294E20",
"z  c #324D25",
"x  c #255624",
"c  c #2E5522",
"v  c #2D5B24",
"b  c #275B24",
"n  c #345424",
"m  c #3A5522",
"M  c #325D24",
"N  c #3D5A24",
"B  c #355628",
"V  c #3A5D2C",
"C  c #2B6027",
"Z  c #2B622B",
"A  c #2F6E2E",
"S  c #356427",
"D  c #366228",
"F  c #3D632D",
"G  c #3C6C2B",
"H  c #3D712C",
"J  c #3F6531",
"K  c #306C31",
"L  c #327431",
"P  c #3E7330",
"I  c #377E37",
"U  c #3C733D",
"Y  c #405621",
"T  c #435B23",
"R  c #456226",
"E  c #486427",
"W  c #44642B",
"Q  c #496629",
"!  c #446A2C",
"~  c #4C6B2C",
"^  c #4E712E",
"/  c #41782F",
"(  c #51772F",
")  c #416732",
"_  c #456D35",
"`  c #4F6E31",
"'  c #476F3C",
"]  c #486D3F",
"[  c #506F32",
"{  c #447334",
"}  c #4D7131",
"|  c #447B33",
" . c #4E7936",
".. c #46733A",
"X. c #48773B",
"o. c #4B793A",
"O. c #457B38",
"+. c #527334",
"@. c #547C35",
"#. c #557738",
"$. c #567C3A",
"%. c #587F3D",
"&. c #437644",
"*. c #477B47",
"=. c #487F48",
"-. c #4F7E43",
";. c #3D843D",
":. c #3D873B",
">. c #478135",
",. c #468134",
"<. c #498537",
"1. c #478138",
"2. c #4B843B",
"3. c #408F3E",
"4. c #4E8C3B",
"5. c #56823A",
"6. c #59843D",
"7. c #5A8A3E",
"8. c #558036",
"9. c #52913E",
"0. c #4F8541",
"q. c #448F44",
"w. c #4C834C",
"e. c #478647",
"r. c #528644",
"t. c #5B8641",
"y. c #538B43",
"u. c #5C8C43",
"i. c #57854B",
"p. c #578E48",
"a. c #5B8B4E",
"s. c #469745",
"d. c #479348",
"f. c #4C934C",
"g. c #4A9B49",
"h. c #469844",
"j. c #5D9344",
"k. c #579B44",
"l. c #5A9D45",
"z. c #59904A",
"x. c #5C9948",
"c. c #529141",
"v. c #518C52",
"b. c #559255",
"n. c #5B9C5B",
"m. c #608E49",
"M. c #61944A",
"N. c #629B4B",
"B. c #639751",
"V. c #659C53",
"C. c #4EA44D",
"Z. c #5EA24B",
"A. c #51A94F",
"S. c #5DA447",
"D. c #53AB52",
"F. c #5BA55B",
"G. c #5EA95E",
"H. c #54A254",
"J. c #58B157",
"K. c #5DB35C",
"L. c #62A14E",
"P. c #64AA4E",
"I. c #64A352",
"U. c #68A455",
"Y. c #65AC52",
"T. c #69AC56",
"R. c #6AA35B",
"E. c #6CAC5B",
"W. c #6AB254",
"Q. c #6DB35B",
"!. c #69B652",
"~. c #72BD5B",
"^. c #62AA63",
"/. c #75AF66",
"(. c #64B364",
"). c #65BD64",
"_. c #69B769",
"`. c #6DBD6D",
"'. c #72B363",
"]. c #75BB63",
"[. c #79BD65",
"{. c #76BD6A",
"}. c #7DBD6B",
"|. c #79B569",
" X c #74C35E",
".X c #6CC46B",
"XX c #78C762",
"oX c #74C36D",
"OX c #7DC369",
"+X c #7ECC6A",
"@X c #7CCC67",
"#X c #72C772",
"$X c #76CA75",
"%X c #78CD78",
"&X c #81C46D",
"*X c #83D36E",
"=X c #89CB76",
"-X c #8BCE79",
";X c #86C872",
/* pixels */
"                                                                                                                        ",
"                                                                                                                        ",
"                                                                                                                        ",
"                                                                                                                        ",
"                                                                                                                        ",
"                                                                                                                        ",
"                                                                                                                        ",
"                                                    . . . .                                                             ",
"                                                . . . . . . .                                                           ",
"                                              . . . . . . . . . X                                                       ",
"                                            . . . . . . . . . . X O                                                     ",
"                                          X X . . . . . . . . X X + @ # #                                               ",
"                                        @ O X X . . . . . . X X O + # = ; > ;                                           ",
"                                    > * # O O X X X . . . . X + + # * = ; < 1 1                                         ",
"                                3 1 4 ; # @ + X X X X . . . . + & & & ; < 1 9 y i i                                     ",
"                              k i e 1 > * # @ + + $ & o . . . o & - & & = < y i p h M c                                 ",
"                          x Z b x r > = ; * # # & - - & X . X X & - - - & & = 1 h v M S G M                             ",
"                        K L A Z e = & > ; = = & - - - : & X X X + 5 0 6 - - - - 8 y S G H ,.P                           ",
"                      ;.3.;.L < & & ; < ; , = - : : 5 6 8 # O + # - 0 f t 8 8 t 0     S | ,.4.,.                        ",
"                    g.C.h.I   - - = 1 1 < < - 5 5 8 d j j : + @ # = = 8 a g s 0 6 &     v ,.9.k.c.                      ",
"                  H.K.D.;.    8 : < y 9 1 , 8 0 g R E g 0 8 = = = ; < : 8 0 8 5 : &         4.k.P.Z...                  ",
"                G.).K.q.      t 9 i y y 9 g T ~ ~ T d t t t 8 = ; , < 1 , 6 5 5 : - =         r.Y.Q.Q.V.                ",
"              (..X).f.        8 p h p y 8 d g m g d d d d d a 8 < < 1 y y 8 6 5 5 : k           0.T.].OX}.R.            ",
"          n.`.$X_.w.          9 M h h 9 8 0 t a d f f f g m T T w q y y p y 8 6 5 5 v A             r.B.V.i.            ",
"        b.$X#X^.            y S M M p 8 0 a d f g g g T E E T T g 0 p c c M u 8 6 8 C I I                               ",
"        w.n.w.            l H G S M 9 0 a d g g j Y E } ~ E E ~ E T u c M M D f f u L ;.3.q.K                           ",
"                        D | / H G u a d f g j T ~ #.#.#.#.$.$.5.$.@.` m D G G F g 8 Z :.s.g.C.;.                        ",
"                      { 4.<.,.| n T T T R ~ } 5.t.t.t.6.$.#.` ` #.#.@.#.V P { | p     Z s.A.D.J.f.                      ",
"                    2.k.9.4.<.l p R ~ ~ #.6.t.M.t.t.#.#.[ [ ` ~ ~ ~ ~ @.} G 2.2.|         d.K.K.).G.                    ",
"                  r.Y.Z.k.2.l c | m T T T E ~ #.#.[ [ #.#.#.#.#.` ~ ~ ~ #.! 2.9.k.{         e.K.)..X(.&.                ",
"                ..T.W.Y.2.    1.k.G N E E E ~ #.#.#.#.$.$.%.$.#.#.#.~ E ~ #.! k.L.x.          U K..XoX`.=.              ",
"                V.].Q.0.      k.S.k.n ~ #.#.$.6.6.t.t.M.B.m.t.t.6.$.#.~ ^ E q j.P.T.o.            G.#X$X`.*.            ",
"              ' ].[.p.      O.!.P.k.  z #.^ $.t.M.V.V.B.t.%.$.%.t.t.$.@. .    2.T.Q.U.              G.$X%X_.            ",
"              a.&XU.        Z.!.W.2.    } ^ ~ $.6.%.6.t.%.t.6.$.t.6.@.7.)       T.~.].-.              ^.%X%Xv.          ",
"              V.[.        2.~.~.Y.      { @.~ 5.t.6.t.t.6.M.t.6.t.5.#.t.)       z.[.OXE.                ^.$Xb.          ",
"              i.a.        Q.XX Xr.      { 6.#.5.t.t.t.M.t.V.t.t.t.5.@.t.)         '.&X&Xa.                &.            ",
"                        U.+X@XY.        o.7.@.5.6.t.M.V.t.U.M.M.t.6.5.j...        a.&X;X}.                              ",
"                      ..+X*X].        z t.6.@.$.7.M.N.U.M.R.V.M.t.6.5.t.j.V         E.=X=X'.                            ",
"                        ].Q...      ..j.N.7.8.5.t.M.U.E.N.E.U.V.M.t.7.t.N.L.o.        |.-X=XR.                          ",
"                                    j.N.j.t.7.7.M.N.E.'.E.'.U.N.M.7.7.j.j.N.r.        ] /.-X}.                          ",
"                                m  .j.6.5.7.7.t.N.N.E.{.{.'.U.N.M.6.7.7.5.5.t.@.N         a.a.                          ",
"                                ^ @.( ( 5.j.j.j.N.N.E.].oX].E.N.N.N.N.j.5.( ( @.!                                       ",
"                                d R ~ R E 5.L.N.j.N.Q.Q.T.Q.E.N.j.L.N.{ m N R N 9                                       ",
"                                            o.j.j.U.E.L.k.U.Q.U.j.t.F                                                   ",
"                                              } j.L.r.F n J r.L.t.F                                                     ",
"                                                F J           F B                                                       ",
"                                                                                                                        ",
"                                                                                                                        ",
"                                                                                                                        ",
"                                                                                                                        ",
"                                                                                                                        ",
"                                                                                                                        ",
"                                                                                                                        ",
"                                                                                                                        ",
"                                                                                                                        ",
"                                                                                                                        ",
"                                                                                                                        ",
"                                                                                                                        ",
"                                                                                                                        ",
"                                                                                                                        "
};
