/* XPM */
static char *right[] = {
/* columns rows colors chars-per-pixel */
"60 60 92 1 ",
"  c None",
". c #010101",
"X c #050709",
"o c #0B0B0C",
"O c #0C0F13",
"+ c #0F1217",
"@ c #131315",
"# c #1A1A13",
"$ c #14161A",
"% c #17191E",
"& c #222317",
"* c #292916",
"= c #36361A",
"- c #3D3E1E",
"; c #151B26",
": c #191D25",
"> c #171E29",
", c #191F29",
"< c #1B2027",
"1 c #1C222C",
"2 c #1D2532",
"3 c #1E2738",
"4 c #272A27",
"5 c #2B2C26",
"6 c #24262A",
"7 c #202734",
"8 c #222936",
"9 c #242C3B",
"0 c #282F3D",
"q c #27303F",
"w c #2D313B",
"e c #30333B",
"r c #4B4A1A",
"t c #777717",
"y c #797919",
"u c #232E42",
"i c #263143",
"p c #2B3343",
"a c #2C3649",
"s c #2D394D",
"d c #313641",
"f c #353A41",
"g c #333C4D",
"h c #2E3B50",
"j c #323D51",
"k c #3E4245",
"l c #354055",
"z c #394254",
"x c #374359",
"c c #39465C",
"v c #3C485E",
"b c #3E4B63",
"n c #424142",
"m c #42454D",
"M c #4A4D56",
"N c #414959",
"B c #5D5B50",
"V c #475163",
"C c #43526C",
"Z c #44526C",
"A c #45536D",
"S c #46536C",
"D c #43516A",
"F c #5A5B63",
"G c #51596B",
"H c #575D6C",
"J c #5B5E68",
"K c #4A5974",
"L c #4B5B77",
"P c #5A6171",
"I c #50617F",
"U c #686A75",
"Y c #676C79",
"T c #6A6E7B",
"R c #6A6E7C",
"E c #717178",
"W c #8A8A18",
"Q c #A7A713",
"! c #AAAA13",
"~ c #C3C315",
"^ c #4F6080",
"/ c #536484",
"( c #586A8B",
") c #596B8C",
"_ c #5A6D8F",
"` c #5A6D91",
"' c #6F7689",
"] c #707483",
"[ c #63779C",
"{ c #657A9F",
"} c #818087",
"| c #818798",
/* pixels */
"                                                            ",
"                                                            ",
"                                                            ",
"                                                            ",
"                                                            ",
"                                                            ",
"                                                            ",
"                                                            ",
"                                                            ",
"                                                            ",
"                                                            ",
"                                                            ",
"                                                            ",
"                                                            ",
"                                                            ",
"                        0pja                                ",
"                        v0jbl8                              ",
"                         0gvbx0                             ",
"                         0sxbbj7                            ",
"                         0axbAbp                            ",
"                         0avAKAs2                           ",
"                         120i0dw:>                          ",
"                         ;;;>>1e1>27                        ",
"                       222270pgNvbvjp0                      ",
"                     278pjbAK/((IAjw                        ",
"                      2880000kf84-@o                        ",
"                        ...o#!t@r~*o                        ",
"                        %+Oo#Qy%=W&%                        ",
"                        0pppkB5@%nmp                        ",
"                        8pajV}M@6EN0                        ",
"                        20pglYT:f]g0                        ",
"                        20iahV|gJPa0                        ",
"                        00iasj'GFzaq                        ",
"                       >30iassGTpiai7                       ",
"                        ;120uizUp221                        ",
"                       :>:::::18:%:%                        ",
"                       >>112711111<:                        ",
"                      >112278871111>                        ",
"                      11228888877111                        ",
"                      80000088872112                        ",
"                     >7igxvvxjjjljap7                       ",
"                       20svA^`[{(Aj01                       ",
"                         120ajxlji81                        ",
"                          .XOO;21                           ",
"                          ....                              ",
"                          .                                 ",
"                          .                                 ",
"                                                            ",
"                                                            ",
"                                                            ",
"                                                            ",
"                                                            ",
"                                                            ",
"                                                            ",
"                                                            ",
"                                                            ",
"                                                            ",
"                                                            ",
"                                                            ",
"                                                            "
};
