/* XPM */
static char *wall[] = {
/* columns rows colors chars-per-pixel */
"60 60 156 2 ",
"   c #020300",
".  c #060801",
"X  c #0B0D03",
"o  c #0E1105",
"O  c #121406",
"+  c #151807",
"@  c #131609",
"#  c #16190A",
"$  c #1A1D0C",
"%  c #1C1F10",
"&  c #1E220E",
"*  c #1E2210",
"=  c #21250E",
"-  c #23280F",
";  c #222612",
":  c #252A13",
">  c #292E15",
",  c #2A2E19",
"<  c #2C3116",
"1  c #2E3319",
"2  c #303617",
"3  c #31361A",
"4  c #353B1D",
"5  c #393F1F",
"6  c #383E1D",
"7  c #383E1E",
"8  c #363B20",
"9  c #383E20",
"0  c #383F20",
"q  c #393E21",
"w  c #39401E",
"e  c #39401F",
"r  c #3A401E",
"t  c #3A401F",
"y  c #3A411F",
"u  c #3B411F",
"i  c #3B421F",
"p  c #3C421F",
"a  c #3A411F",
"s  c #394020",
"d  c #3A4020",
"f  c #3B4120",
"g  c #3B4121",
"h  c #3B4220",
"j  c #3B4221",
"k  c #3B4122",
"l  c #3B4023",
"z  c #3C4220",
"x  c #3D4320",
"c  c #3C4221",
"v  c #3C4321",
"b  c #3D4322",
"n  c #3D4420",
"m  c #3D4421",
"M  c #3E4421",
"N  c #3E4521",
"B  c #3F4621",
"V  c #3D4422",
"C  c #3E4422",
"Z  c #3E4522",
"A  c #3F4522",
"S  c #3E4423",
"D  c #3E4523",
"F  c #3F4523",
"G  c #3F4622",
"H  c #3F4623",
"J  c #3E4324",
"K  c #3E4524",
"L  c #3F4524",
"P  c #3F4624",
"I  c #3D4322",
"U  c #404722",
"Y  c #404623",
"T  c #404723",
"R  c #414723",
"E  c #404624",
"W  c #404724",
"Q  c #414724",
"!  c #404526",
"~  c #404724",
"^  c #414822",
"/  c #414823",
"(  c #414923",
")  c #424923",
"_  c #414824",
"`  c #414825",
"'  c #424925",
"]  c #434A24",
"[  c #434A25",
"{  c #434B25",
"}  c #424826",
"|  c #434A26",
" . c #444B24",
".. c #444B25",
"X. c #444A26",
"o. c #444B26",
"O. c #454B26",
"+. c #444B27",
"@. c #454C26",
"#. c #454D26",
"$. c #454C27",
"%. c #454D27",
"&. c #464D26",
"*. c #464D27",
"=. c #464E26",
"-. c #464E27",
";. c #474E27",
":. c #474F27",
">. c #434A26",
",. c #424629",
"<. c #434A29",
"1. c #454C28",
"2. c #454C29",
"3. c #464D28",
"4. c #464C29",
"5. c #474E28",
"6. c #474E29",
"7. c #464D28",
"8. c #484F28",
"9. c #484F29",
"0. c #484F29",
"q. c #495028",
"w. c #485029",
"e. c #495029",
"r. c #495129",
"t. c #4A5229",
"y. c #49502A",
"u. c #49512A",
"i. c #4A512A",
"p. c #4A522A",
"a. c #4B532A",
"s. c #4A522B",
"d. c #4B532B",
"f. c #4C532B",
"g. c #4C542B",
"h. c #4D552B",
"j. c #4D562B",
"k. c #4B522C",
"l. c #4B522D",
"z. c #4C532D",
"x. c #4C542C",
"c. c #4D552C",
"v. c #4D542D",
"b. c #4E552D",
"n. c #4E562D",
"m. c #4F572E",
"M. c #4B532B",
"N. c #50572E",
"B. c #51592F",
"V. c #535B2F",
"C. c #51592E",
"Z. c #4E5530",
"A. c #535B31",
"S. c #5A6235",
"D. c #596135",
"F. c #5C6439",
/* pixels */
"3 3 n ;.p n n ; X ; n = 3 3 ;.a.a.n 3 n ; 3 a.3.3.;.; a.5 3 & @ ; # $ # O + # = $ $ X 3 3 1 n ;.n < 1 ;.3 3 n ;.;.; ; 3.",
"p 3 n ;.3 n ;.$ 1 a.1 5 n n < 5 3 ;.n n 3 > 9 a.a.3.; 3.3 > * ;.3 O + O + $ $ $ $ $ X n p 3 ;.;.;.;.; 3 a.3 n ;.n $ n 3 ",
"n ;.n n 3 5 ;.$ 3 3 n T n ;.3 n n ;.;.n n 3.> n S.8.# ; X $ 3.p ; X X O $ + O # $ O X n ;.3 a.;.;.n T 3 ; $ ; $ * n 3 p ",
"a.a.;.T p 3 ;.* ; n 3.n a.n 5 p ;.a.a.n n a.a.1 ; $ 8 3 @ ; 1 ; > X . o O O X $ O X X ;.n n ;.;.B.;.8.T < 1 3 ; 3 3 3 p ",
";.a.;.;.< 3 T $ n < T ;.n 3 3 ;.a.a.3.3.n a.a.n n ; a.T ; ; p > 1 X ; > 3 > > & ; ; 1 p 8.n 5 ;.;.;.;.n n a.n & = 3 3 3 ",
"a.a.8.;.< 8.1 ; n > p 3 T > 3 n 8.a.;.9 9 n ;.;.3 3 a.T ; > n < > & ;.;.a.A.a.n a.;.a.3 < 3 n n n ;.a.T T a.3 $ 1 T 5 p ",
"n 3 1 < 3 a.; ; 5 < 5 ;.3 > T a.a.8.n 3.T ;.n 3 3 3.n a.; > ;.> 3 ; > n ;.3.;.3 n T ;.3 ; n 1 3 ;.8.8.a.a.;.3 ; 1 n n ;.",
";.;.n ;.;.3 $ ; 3 < 3 < 1 ;.3 3 1 3 8.T a.3 ; * S.p ;.a.; ;.T > 3 n 3 3 ;.a.;.n n a.a.< & 3.a.a.3.a.a.a.;.1 n $ > ;.a.8.",
";.T 3.n 9 n O # 3 ; ; 3 3.a.3 3 3 T ;.;.a.3 ; ; $ # $ # n T 1 ; 3 T ;.1 > 5 1 1 3 ;.;., ; 3.a.B.a.;.n 9 3 3 n ; 3 a.n n ",
"a.;.3.T 8.$ n ;.$ < a.T ;.a.3 n ;.8.;.;.B.n & # $ ; ;.T ;.5 3 , 3 3 ;.n & & 3 3 5 n n 9 ; T 3.A.a.3.3 3 9 n n ; 1 ;.a.B.",
"; & ; , $ n a.3 3 & 3 a.a.8.3 T ;.;.5 ;.a.; @ $ ; > ;.T ;.n 9 3 ;.;.1 3 3.3 3 n 3 n 3.3 $ 3.a.a.a.a.a.3.3 3 n ; $ > ; > ",
"3 3 1 < ;.a.n T B.3 ; T 8.;.3 ;.n p B.a.; $ $ & ; < n ;.;.n ,.3 T n 3 a.;.8.< ; n 3 3 > $ a.a.a.a.a.;.9 T ;.;.* 3 3 3 ; ",
"a.n n ;.3.5 8.a.a.;.n < ; @ $ ; * 1 3 * $ & @ $ 1 < a.a.3.T ;.8 n 3.a.n ;.;.8.3 3 3.8.> @ 3 n ;.T n 3 9 5 n ; a.T ;.n ;.",
"n 3 n T a.8.n a.;.n a.3 & > 3 > > 1 > # & $ = & n ;.a.n 3.T ;.;.T 8.;.3 T 3.;.9 , ; # ; a.; & ; ; $ * $ $ O T n T ;.T 3 ",
"1 T n 3.a.;.a.;.T a.a.n 3.p n ;.a.;.< $ $ $ & ; 8 ;.n 8.;.B.a.a.a.;.3 3 n n 3 3.3 $ 9 a.;.9 A.a.A.;.a.a.a.; 3.3.A.a.;.n ",
"T 3 3.a.3.a.3.a.a.D.3 3 1 p ;.3.T 3 & # $ $ @ $ 9 3.a.3.a.a.8.;.a.a.a.3 T 9 n T 3 * 8.9 a.3 T a.3.3 n n ;.* 3.A.A.a.n 3.",
"n 3 a.;.8.3.8.;.n 5 9 n T 3 ;.T 3 1 1 O ; ; & ; a.a.a.a.3.8.a.a.a.a.a.3 a.;.3 ;.1 ; a.a.a.3 ;.a.;.T n 3 n # a.a.n n a.3.",
"1 3.3 n n 1 ;.n 8 n n 5 a.3 ;.p 3 3.3 @ $ & $ ; n 5 n ;.B.a.3.a.a.a.a.T a.n 3.a.3 ; A.n 5 n ;.;.;.3 9 3.n $ 3 ; ; & > > ",
"a.n > 3 3 T 9 n 3.3.T n 5 1 1 3 T n 5 ; ; ; & o n B.8.a.a.a.a.A.A.3.n a.3.a.a.9 > a.n 3 n 3.;.a.a.3 1 ;.a.$ 1 < 3 3 p n ",
"n n 1 3 n a.3 8.a.a.a.n 1 T T n n n 8.;.; 1 ; # n ;.;.a.3.;.a.B.3.T 3 ;.a.a.3 , A.3.3.T 3.a.3.;.3.3 n ;.5 # = ; ;.3 ;.3 ",
";.3 3 n 1 1 5 n a.a.a.9 3 ;.n n ;.a.;.n # ; < & T n n ;.;.3 n 3 ;.p ; n ;.;.; ; a.;.T 3.a.a.A.3 n ;.3 $ & O & 3 3 n T 3 ",
"> > n 3 3 3.n n a.8.;.3 > 1 9 3 5 3 n 1 o # = ; 3 < n ;.T n 1 p 3 > < n T ;.< ; ;.n ;.a.a.;.5 3 n 3 8 a.;.1 ; > ;.;.p n ",
"9 5 5 n 9 n a.a.a.a.; @ $ ; $ ; & & & $ n 1 = $ ; > ;.;.p ;.3 3 T n p n n ;.> ; a.n 3.a.n ,.n ;.1 $ ;.;.3 ; 5 & 3 a.3 1 ",
"n n n n ;.5 a.8.a.; n a.N.a.a.n 3.8.a.; 3 3 5 # ; p 3.;.n 3 1 3 3 p ;.n 3 n > * 3 ; 3 n 3.n T 3.1 ; 8.;.< ; 3 $ 3 3 3 3 ",
"n ;.;.:.a.n p ;.* T a.n 3 3 3 3 n 3 3 @ 1 n 3 ;.< 3 ;.3 n 3 3 3 n ;.T p n p & $ $ # $ 3 n ;.;.;.3 ; 8.5 1 3 n $ > > n 3 ",
"; ; 1 3 1 ; < & n A.5 n ; < ; 3 1 3 T % 3.n 3 n ;.> > 3 n 3 3 p :.a.n n 5 3 > @ & < & n ;.a.;.;.1 * a.n n n ;.# ; ; ; < ",
"& > < ; = ; 3 = a.;.a.;.> 3 n 3 n 5 ; 8.3.3 T ;.a.;.; ; n n ;.n p 3 1 3 ; 3 # O $ - $ 3 n 3.;.a.3 ; T T n ;.n * = & ; = ",
"; < ; & > 5 3 ; ;.n ;.;.& 3 9 T T * 3.a.3 n 3.a.;.;.n $ > p p 5 ; 5 3 * $ & ; ; & $ O a.n n ;.3 ; & a.;.a.n ;.* $ $ & > ",
"; ; > < 3 3 ; ; n 3 3 3 ; 9 < 3.; ,.;.3 8.3.a.3.n n n 5 < ; ;.n 3 n * T 1 ;.;.< $ # o 1 3 5 n n 1 $ n ;.n ;.3 ; 3 3 & > ",
"< < < > 3 < < & 9 3 3 3 ;.T 3 * 3.3.> 3 8.a.a.;.3 T p ;.n ; < n 3 & 3.3 < p n n @ = T 1 # * , < $ ; a.n ;.a.$ 3 5 3 # & ",
"& & = ; 3 3 p & ;.;.a.3 n ;.; n ;.9 T A.A.8.;.1 n p ;.;.5 n = < & 3 < < 3 3 3 5 o ;.3 3 3 ; ; ; 3 > 3 8.;.8.; ; 1 > X & ",
"T 3.n < 3 3 3 $ ;.;.3.3 ;.* 3.T 3 5 3.a.B.a.3 > 3 ;.a.n 3 p p # n 3 & < > 3 5 n & 3 3 9 n n 5 ;.;.n ; ; & < # $ @ # n n ",
"n n B.n ; 3 > & ;.;.3.n * ,.n 3 3 n A.a.a.3.;.;.9 a.3.;.n ;.n @ 3 ; 1 > 5 3 ; < 3 # 3 ;.;.a.n a.;.a.; @ & O n 3.3 n B.3 ",
"n n n n 3 ; < & 3 > 3 $ 3.T 3 3.3 3.a.a.a.;.8.9 n 3 3 3.3.8.3 @ p > 3 3 5 # = & 3 1 = p n n n 5 > ; @ ; & n n ;.3 1 ;.n ",
"3 n 3 n T T & $ ; $ $ n a.3 3 < ;.;.n a.a.a.3 3 9 5 3 a.3.T T # 3 3 > ; ; < < ; 3 ;.n & $ # @ X # $ ; $ 3 a.;.p 3 n 3 3 ",
"3 5 3 3 3 3 & 3.a.n 3.;.n 3 1 5 N.9 9 a.n 3 3 3.;.9 3 3.;.n > ; n > 9 3 3 3 < 3 p 5 n T a.T 3 $ = = < < 5 n ;.< n ;.;.T ",
"3 n 3 ;.a.;.> ; $ @ % $ & @ ; ; & $ n ;.T 9 T n ;.a.8.n 3 3 , a.3 1 ;.5 ;.3 ;.;.3 p ;.;.;.a.n # > = 3 < = 5 a.;.n ;.3.9 ",
"n n T n B.1 , 3 & 3 T a.3.a.3.n 3 * & & $ n ;.a.a.S.a.3 1 , A.n n n ;.T B.n n n 5 n a.3.n a.n o = & ; ; = ; 3 a.;.n 1 3 ",
"9 ,.3.A.1 $ > & # 1 ;.;.;.;.a.3., 3 > @ 1 n 3.a.a.A.;.3 ; a.T T ;.n 3 ;.n 1 p n a.a.;.;.n a.3 @ < 3 n 3 3 3 1 < 1 n 3.n ",
"n T A.;.; n 1 1 1 ; 1 ;.;.T a.3 n a.n * a.;.a.a.a.a.a.; $ 3.;.a.a.T ;.n 3 3 3 1 3 3 5 ;.;.;.@ 9 ;.a.;.3.;.n 3 # ; ; 3 1 ",
"; 1 3 ; Z.n ;.n n n ; 3 T ;.;.1 n 3.1 ; B.8.A.a.3.S.9 % 3 3 3.A.a.9 a.a.3.a.3 n 5 n 3 5 a.$ 3 & $ & & $ @ X $ 3.n n $ > ",
"$ # , 3.1 a.3 9 ;.;.;.; 3 n n 3 n 3 3 , 3.3.A.;.A.T , A.n 1 3 8.n n 3.n a.9 3 3.5 3 n 5 p O n # O & & & o & a.p 3 n ; . ",
"n 8.A.3 3 3.9 n a.8.;.3 $ 3 a.3 n n 3 * ;.;.n a.9 1 F.;.T a.; o # @ @ 1 n 8 8.3.n ;.n 3 < # n # O + + X @ 3.3 5 T n ;   ",
"a.;.;.n 3 a.3 3 a.;.a.5 1 3 a.n 5 T ; * T n B.9 , F.8.T n a.$ 3 3.T n * @ $ * & $ # @ @ @ O 5 $ X + o # a.1 < < ; 3 ,   ",
"S.n 9 3.;.a.3 3 3 T ;.3 T 8.n 3 a.n ; $ n n 3 3 F.5 n n 8 ;.1 1 3.9 3.a.a.T 3.3.3.a.a.n n T = X X O & a.n 3 3 3 < a.< . ",
"a.T a.3 5 1 n n a.a.n 5 5 a.;.; 3 3 3 # 1 * , a.> T n T 8 3.; 8 3.3.a.a.a.;.a.a.;.;.a.;.a.T n n ;.; > 3.3 3 n n 3 a.> X ",
"a.8.3.3 3 9 3.3.;.a.a.;.;.> < > ; 1 ; ; ; > Z.; > 3.a.3 ,.3.> n 3.N.A.8.A.T 3.a.A.a.;.a.;.a.;.n B.# 3 ;.5 5 ;.;.n 3.> X ",
"a.8.;.3 3 n 8.A.a.B.p 3.T 3 3 3 3 @ @ < ; > T ;.T a.8 n 8.a.a.3 9 S.A.a.T 3.A.A.A.;.a.;.;.a.a.n ; 1 ;.3 n ;.;.n ;.;.> O ",
"A.8.;.3 3 a.a.a.a.a.n ;.n 3 < & & & # = ; > 3.;.3.n 9 Z.A.A.A.3 8 3.a.3.T A.A.A.a.a.a.3.a.T 3 $ , A.> n ;.n 3 ;.;.;.;.; ",
"A.a.3.a.3 a.A.A.a.T a.n < < 1 n 3 3 1 = n ;.a.n a.3 3.a.A.A.A.n 8 > A.a.;.a.A.A.a.3.;.a.;.* ; # a.3 n p ;.< 3 ;.a.a.a.$ ",
"S.3.8.a.n a.a.3.5 5 ;.1 1 3 3.n n ;.a.1 > 3.;.a.a.8 8.a.A.A.8.;., 1 a.n ;.a.A.B.3.;.a.;.# n 3 3 1 ;.a.9 3 < n a.a.a.3 ; ",
";.a.;.a.3.;.3 9 3 ;.T 1 3 3 < 3 3 T 3.T ; A.3.a.8 ,.8.a.a.a.a.A.n 3 a.8.A.8.a.a.;.a.a.; ,.n ;.a.1 ; $ * > a.p n ;.a.& ;.",
"; > 3 9 T 3 1 1 9 n 3 3 3 n 1 a.a.;.a.n * B.n n 8 a.a.A.a.a.8.A.3 ; 3.a.A.A.a.;.;.;.@ T ;.8.A.N.> $ ;.;.n 3 ;.n p a.= n ",
"3 p ;.8.n n ;.T 5 < > 3 3 1 1 8.;.n 3.3 * a.n ;.n a.B.a.A.A.A.;.1 > A.A.A.A.a.1 n @ X n a.a.a.a.1 ; A.;.a.3 3 T ;.p & ; ",
"n < 3 3 3 n n n ;.3 n 5 3 3 < n ;.;.a.3 ; ;.3.a.;.B.a.;.A.B.3.3., 1 S.B.B.a.;.3 * X + ;.a.a.a.;.; > a.;.a.a.3 n n 3 ; ; ",
"> 3 3 < ;.;.n 3 5 9 ;.a.n n < ;.a.a.a.5 # ; & $ 3 8.T a.S.3.n 3.> ; 3.;.a.a.n # o $ o ;.a.a.a.a.; ; ;.n n 3.a.5 ; 5 @ > ",
"@ # $ = < n 5 3 3 3 T 3.;.;.> a.3.a.;.; 9 n n 3., > a.A.B.n 3 T 1 ; 3.3 < < @ o = # O 8.B.;.n ;.3 ; T ;.n ;.a.3.< & . # ",
"< > ; < = 2 5 n 3 < ;.3 $ # # ; # & $ 3.a.A.a.T 3.5 n 8.n ;.3 ;.; & ; $ ; @ . & = $ O n ;.;.5 9 1 > a.3.a.;.;.3 3 $ # @ ",
";.;.< 3 3 = 1 ;.p p 3 ; n 1 ;.T 3.T 3 3 n N.n T 3.;.; n n T 3 ;.>   X ;.n $ # & & # X 3 T ;.3 3 > ; ;.T ;.p 3 n 3 ; $ ; ",
"5 p 3 2 3 ;.< < T 3 * 3.n 3 T ;.a.a.;.; n 5 n 8.;.5 $ a.5 3 3 3 &   # 1 O $ # & & + o n 3 ;.n 3 > * 3 ; n n n p ;.> $ > "
};
