/* XPM */
static char *dr[] = {
/* columns rows colors chars-per-pixel */
"53 60 215 2 ",
"   c None",
".  c #000000",
"X  c #0A0605",
"o  c #070807",
"O  c #0A0906",
"+  c #0B0C0A",
"@  c #070908",
"#  c #110E0C",
"$  c #0E110E",
"%  c #12120F",
"&  c #1A120D",
"*  c #1B190C",
"=  c #0E1311",
"-  c #121613",
";  c #141914",
":  c #191C13",
">  c #151D1A",
",  c #1A1D1B",
"<  c #291E16",
"1  c #201E1E",
"2  c #17221D",
"3  c #1B221D",
"4  c #21230D",
"5  c #222515",
"6  c #24251D",
"7  c #252B1C",
"8  c #292A1E",
"9  c #2B2519",
"0  c #332D1D",
"q  c #2F331D",
"w  c #3A3216",
"e  c #3A3B1D",
"r  c #33361A",
"t  c #1D2422",
"y  c #1F2C26",
"u  c #232523",
"i  c #242B25",
"p  c #2C2C23",
"a  c #232C29",
"s  c #2A2E2A",
"d  c #282625",
"f  c #322F28",
"g  c #2C3224",
"h  c #24322B",
"j  c #2A342D",
"k  c #2F3B2C",
"l  c #273026",
"z  c #333522",
"x  c #343B25",
"c  c #3A3E26",
"v  c #32332E",
"b  c #3A3D2A",
"n  c #393627",
"m  c #2C3C34",
"M  c #2D3F38",
"N  c #333632",
"B  c #3A3731",
"V  c #333C34",
"C  c #3A3C33",
"Z  c #3A3E39",
"A  c #353E38",
"S  c #423D1E",
"D  c #423922",
"F  c #423E33",
"G  c #413E39",
"H  c #3C4329",
"J  c #374127",
"K  c #2E4139",
"L  c #344135",
"P  c #3A4335",
"I  c #34443B",
"U  c #3B443B",
"Y  c #3B493E",
"T  c #37483F",
"R  c #474016",
"E  c #424424",
"W  c #444A24",
"Q  c #41452B",
"!  c #454B2B",
"~  c #4A4D2C",
"^  c #484925",
"/  c #554C29",
"(  c #4C5128",
")  c #595B2B",
"_  c #595728",
"`  c #434633",
"'  c #434C34",
"]  c #41433C",
"[  c #49453D",
"{  c #434D3C",
"}  c #4A4B36",
"|  c #56473A",
" . c #4D5332",
".. c #46503E",
"X. c #4C533B",
"o. c #4A5535",
"O. c #535634",
"+. c #5B5436",
"@. c #5B5E33",
"#. c #54553C",
"$. c #545D3A",
"%. c #5A5C3A",
"&. c #5F563F",
"*. c #6E562E",
"=. c #605D2D",
"-. c #665E3D",
";. c #5C6235",
":. c #5D643C",
">. c #596339",
",. c #64612C",
"<. c #66692D",
"1. c #6B6C2E",
"2. c #6B6127",
"3. c #786827",
"4. c #6E752D",
"5. c #7A7425",
"6. c #73762C",
"7. c #7C752E",
"8. c #787B2A",
"9. c #636533",
"0. c #696336",
"q. c #6B6C33",
"w. c #62643B",
"e. c #6A663A",
"r. c #626A3E",
"t. c #6B6E3A",
"y. c #736932",
"u. c #73663D",
"i. c #736E3C",
"p. c #7A6C3D",
"a. c #796937",
"s. c #6D7132",
"d. c #6C7239",
"f. c #737334",
"g. c #7A7533",
"h. c #757934",
"j. c #7C7B33",
"k. c #74763D",
"l. c #727939",
"z. c #7D7B3A",
"x. c #374840",
"c. c #3D4C42",
"v. c #3E5044",
"b. c #4D4741",
"n. c #424C43",
"m. c #4A4B43",
"M. c #454640",
"N. c #524C45",
"B. c #534F48",
"V. c #435245",
"C. c #4B5245",
"Z. c #4D5A41",
"A. c #445549",
"S. c #4B5549",
"D. c #465A4A",
"F. c #4A5C4C",
"G. c #525245",
"H. c #535C42",
"J. c #5E5A43",
"K. c #53544A",
"L. c #5A544B",
"P. c #535C4E",
"I. c #595A4D",
"U. c #5F5047",
"Y. c #4B5F50",
"T. c #595C52",
"R. c #635947",
"E. c #685D52",
"W. c #4D604E",
"Q. c #566245",
"!. c #5A6444",
"~. c #5D6A44",
"^. c #5B624E",
"/. c #50624E",
"(. c #4F6352",
"). c #536555",
"_. c #5A6A51",
"`. c #5D6654",
"'. c #636745",
"]. c #636A41",
"[. c #6C6C42",
"{. c #6B6E4A",
"}. c #68664B",
"|. c #736B43",
" X c #7A6A4C",
".X c #6D7445",
"XX c #697349",
"oX c #797944",
"OX c #676354",
"+X c #686757",
"@X c #746653",
"#X c #917E1E",
"$X c #826C2D",
"%X c #8D7C24",
"&X c #877C2E",
"*X c #8C7C2B",
"=X c #857128",
"-X c #837631",
";X c #827B34",
":X c #8B7C33",
">X c #827D3B",
",X c #807138",
"<X c #827541",
"1X c #927846",
"2X c #7D8134",
"3X c #8B842D",
"4X c #8C8C2B",
"5X c #9A8D28",
"6X c #999126",
"7X c #969031",
"8X c #A08A27",
"9X c #A2932E",
"0X c #B09228",
"qX c #A78D39",
"wX c #9B8642",
/* pixels */
"                                                    i                                                     ",
"                                            3 u v [ [ p 3 ,                                               ",
"                                      3 u v ] N.E.L.L.L.m.B i u                                           ",
"                                  > v ] m.M.] m.m.A N.m.Z N.L.m.V i t                                     ",
"                            u p 3 > b.m.U U T T U A c.T a B C.S.K.C > 3 d 1                               ",
"                        u B U.@X[ t B N.M.m.n.c.x.T x.c.T c.V.S.I.C t Z K.] s ,                           ",
"                    u j n.K.T.E.N.i t N.m.n.c.c.x.T T T T T n.S.K.s t n.C.n.n.} D 5                       ",
"                  u V C.n.c.V.K.K.s t b.N.n.c.T T K K K K U n.n.U 3 i m.n.c.n.C.-.*.n                     ",
"                8 ' w.:.V.c.V.n.L.B t G N.m.U T K M m h m U T h t > j m.{ ..V.n.J.a.$XD                   ",
"              - 8 9.g.q.w.V.V.c.K.U a B N.n.T m K K K m m T m y 3 > T C.w.9.@.C.w.R.@.x > u               ",
"            z c > z y.7.f.Q.V.V.K.U , , U V m m m K K M M m h y > - V  .;.@.9.@.%.#.8 > ~ E p             ",
"          f =.s.H 3 x 9.7.t.c.V u + + + i h a g Q P m m m M h a = + + > z ~ ;.%...8 = J s.1.E             ",
"        8 O.q.4.s.` i i $.O.3 + + + + + - r r * 4 5 2 t a h j u o o o o o > c ~ 8 = j Z.s.q.y.c           ",
"      t Q f.f.s.s.Q. .g , - + + + + o o o o o o o o o o o o o o o o o o o + + > - H $.V.:.w.H._ p         ",
"      p -.d.t.O.1.r.g.^ + + + + o o o o o o o o o o o o o o o o o o o o o o o + 3 ;.d.:.H.P.F.y./         ",
"    u / i.d.9.` e.1.1.5 $ + o o o o o o o o o o o o o o o o o o o o o o o o o o $ ( h.q.;.V.r.:X=Xz       ",
"    p q.[.[.1.F b b 5 + o o o o o o o o o o o o o o o o o o o o o o o o o o o o o > { t.7.r.'.&X*X}       ",
"    Q |.|.].{ v v , + o o o o o o o o o o o o o o o o o o o o o o o o o o o o o o o 5 i.;Xg.&.0.1XI.a     ",
"  b $.f.f.^.w.~ 3 + + o o o o o o o o o o o o o o o o o o o o o o o o o o o o o o o + _ :XZ.s Z +X).m     ",
"  Q q.].'.[.3X6.8 + o o o o o o o o o o o o o o o o o o o o o o o o o o o o o o o o o 5 q.F.V C W.(.U     ",
"  i P { %.g.4X6.: + o o o o o o o o o o o o o o o o o o o o o o o o o o o o o o o o o o V V.P z ' j > -   ",
"x >.~ v j b ) E % + o o o o o o o o o o o o o o o o o o o o o o o o o o o o o o o o o o , T i 3 3 3 W e   ",
"~ 2Xl.:.O.V 5 - + o o o o o o o o o o o o o o o o o o o o o o o o o o o o o o o o o o o + > 8 j O.r.7X3.  ",
"} .X).XXoX{.2.- + o o o o o o o o o o o o o o o o o o o o o o o o o o o o o o o o o o o + R q.r.g.g.9X-X  ",
"L.{.(.).{.oX7.: o o o o o o o o o o o o o o o o o o o o o o o o o o o o o o o o o o o o + W q.t.z.3X5Xa.  ",
"#.:X.X}.P.`.e.: o o o o o o o o o o o o o o o o o o o o o o o o o o o o o o o o o o o o + x h.i.[.3X:Xu.  ",
"%.:X<X XOX@X0.- o o o o o o o o o o o o o o o o o o o o o o o o o o o o o o o o o o o o + c l.7./ *XwX,X  ",
"#.}.P.U u. X-.% o o o o o o o o o o o o o o o o o o o o o o o o o o o o o o o o o o o o + b [.<.<.2.qXp.  ",
"V._.Y S.#.^.V.% o o o o o o o o o o o o o o o o o o o o o o o o o o o o o o o o o o o o o x ) <.f.<.#Xy.  ",
";.1.<.oX-X..n.% o o o o o o o o o o o o o o o o o o o o o o o o o o o o o o o o o o o o o i ~ 6.d.7.3. .  ",
"_ ) d.XX}.F.n.# o o o o o o o o o o o o o o o o o o o o o o o o o o o o o o o o o o o o o 3 X.s.:.;X*Xb   ",
"S ;.).).T.Q.Q + o o o o o o o o o o o o o o o o o o o o o o o o o o o o o o o o o o o o o , ..f.r.g.5. .  ",
"P @.~.F.J.=.~ + o o o o o o o o o o o o o o o o o o o o o o o o o o o o o o o o o o o o o q O.<.d.1.q.>.  ",
"V J E k a i i o o o o o o o o o o o o o o o o o o o o o o o o o o o o o o o o o o o o o o * 8 5 r 8 g p   ",
"P V j j s j u o o o o o o o o o o o o o o o o o o o o o o o o o o o o o o o o o o o o o o * w w 0 v v s   ",
"V./.H.P C.r. .o o o o o o o o o o o o o o o o o o o o o o o o o o o o o o o o o o o o o o S 0X#X%X@XOXL.  ",
"F._.2X;.+.&X<.o o o o o o o o o o o o o o o o o o o o o o o o o o o o o o o o o o o o o o S 8X#X>Xm.P.K.  ",
"+XF...H.| 3.+.o o o o o o o o o o o o o o o o o o o o o o o o o o o o o o o o o o o o o o r 5.6X~.v.Y V.V ",
"B V :.].R.*.| o o o o o o o o o o o o o o o o o o o o o o o o o o o o o o o o o o o o o o 5 8.6Xl.(.n.U V ",
"3 V >X3XQ.C.F o o o o o o o o o o o o o o o o o o o o o o o o o o o o o o o o o o o o o o : 4.4Xl.(.V.P B ",
"h V f.g.Q.c.j o o o o o o o o o o o o o o o o o o o o o o o o o o o o o o o o o o o o o o , ~ s.~.F.c.V.B ",
"T T V.D.V.T Y o o o o o o o o o o o o o o o o o o o o o o o o o o o o o o o o o o o o o o : ' U F.c.F.V.v ",
"T V.Y F.U V.H.O o o o o o o o o o o o o o o o o o o o o o o o o o o o o o o o o o o o o o $ P V.V.V.P.n.v ",
"T F.c.V.V.D.Z.O o o o o o o o o o o o o o o o o o o o o o o o o o o o o o o o o o o o o o o V F.Y P.C.U v ",
"T F.F.n.F.V.V o o o o o o o o o o o o o o o o o o o o o o o o o o o o o o o o o o o o o o $ V.c.V.V.S.] v ",
"P V.V.F.c.F.i o o o o o o o o o o o o o o o o o o o o o o o o o o o o o o o o o o o o o o 8 V.V.F.U V.] v ",
"T c.T (.n.V.U o o o o o o o o o o o o o o o o o o o o o o o o o o o o o o o o o o o o o o 5 Y F.F.F.U c.v ",
"m m c.V.c.V V o o o o o o o o o o o o o o o o o o o o o o o o o o o o o o o o o o o o o o $ h k m m h t   ",
", 2 y t 2 2 - o o o o o o o o o o o o o o o o o o o o o o o o o o o o o o o o o o o o o o o > > > > > -   ",
"j a Y c.Y P j O o o o o o o o o o o o o o o o o o o o o o o o o o o o o o o o o o o o o o 3 j P Y U T U   ",
"m j V.F.v.V Y + o o o o o o o o o o o o o o o o o o o o o o o o o o o o o o o o o o o o o i c.T V.U V.n.B ",
"k l P V.U C.n.+ o o o o o o o o o o o o o o o o o o o o o o o o o o o o o o o o o o o o o t v.n.U n.C.] v ",
"i j v.T C.E.n.+ o o o o o o o o o o o o o o o o o o o o o o o o o o o o o o o o o o o o o i V.c.U D.D.c.B ",
"T.Y F.c.c.S.n.+ o o o o o o o o o o o o o o o o o o o o o o o o o o o o o o o o o o o o o i F.Y V.Y D.V.B ",
"+XD.c.V.T V.c.+ o o o o o o o o o o o o o o o o o o o o o o o o o o o o o o o o o o o o o i c.V.D.Y Y v.B ",
"Y Y Y V.c.T Y + o o o o o o o o o o o o o o o o o o o o o o o o o o o o o o o o o o o o o i c.D.D.V.T T B ",
"P U V.D.V.T m - o o o o o o o o o o o o o o o o o o o o o o o o o o o o o o o o o o o o o 3 V.F.D.F.c.j V ",
"j V.V.v.V.v.j - O o o o o o o o o o o o o o o o o o o o o o o o o o o o o o o o o o o o + a T V.D.D.T T V ",
"U Y D.V.V.T V - # # o o o o o o o o o o o o o o o o o o o o o o o o o o o o o o o o o o # V T Y F.U Y c.  ",
"Y c.c.D.T V Y - # 9 < + o o o o o o o o o o o o o o o o o o o o o o o o o o o o * < o # # V V.U V.V v.c.  "
};
