/* XPM */
static char *dr[] = {
/* columns rows colors chars-per-pixel */
"53 60 217 2 ",
"   c None",
".  c #070707",
"X  c #090707",
"o  c #070807",
"O  c #0A0807",
"+  c #070708",
"@  c #070908",
"#  c #0C0B0A",
"$  c #130E0C",
"%  c #0F100E",
"&  c #14110F",
"*  c #19110F",
"=  c #0F0F10",
"-  c #0D1311",
";  c #141412",
":  c #1C1412",
">  c #151915",
",  c #1C1A15",
"<  c #161C19",
"1  c #1A1C1C",
"2  c #211714",
"3  c #241A16",
"4  c #251D1A",
"5  c #2A1E19",
"6  c #1B221D",
"7  c #17221D",
"8  c #222414",
"9  c #24251C",
"0  c #2D211C",
"q  c #262C1D",
"w  c #292A1D",
"e  c #33251E",
"r  c #332D1D",
"t  c #2E301E",
"y  c #35361D",
"u  c #3B3719",
"i  c #1E1E20",
"p  c #1D2421",
"a  c #1F2C26",
"s  c #222523",
"d  c #2C2622",
"f  c #252B25",
"g  c #2B2B23",
"h  c #252728",
"j  c #242B2A",
"k  c #2B2C2B",
"l  c #362720",
"z  c #362921",
"x  c #3B2B23",
"c  c #322F2D",
"v  c #2B3224",
"b  c #25332C",
"n  c #2A332D",
"m  c #2F3A2B",
"M  c #273026",
"N  c #333523",
"B  c #343B25",
"V  c #3A3E26",
"C  c #32332D",
"Z  c #3A3D2A",
"A  c #3B3427",
"S  c #2C2F32",
"D  c #2D3235",
"F  c #2C3C34",
"G  c #2C3E38",
"H  c #333532",
"J  c #3A3731",
"K  c #333C34",
"L  c #3A3B33",
"P  c #3B3E3A",
"I  c #343939",
"U  c #402F25",
"Y  c #423127",
"T  c #453429",
"R  c #49362B",
"E  c #4C392D",
"W  c #423922",
"Q  c #513C2F",
"!  c #4E3C31",
"~  c #413E35",
"^  c #533E31",
"/  c #3A4227",
"(  c #2E4139",
")  c #344136",
"_  c #3A4335",
"`  c #34443B",
"'  c #3B443B",
"]  c #3B493E",
"[  c #3A493B",
"{  c #5B521F",
"}  c #424424",
"|  c #454A24",
" . c #42452C",
".. c #444B2B",
"X. c #494E2D",
"o. c #494A26",
"O. c #554D29",
"+. c #4C5128",
"@. c #585828",
"#. c #434C34",
"$. c #41433C",
"%. c #49443D",
"&. c #434D3C",
"*. c #474935",
"=. c #564133",
"-. c #5B4535",
";. c #5E4837",
":. c #5E4939",
">. c #56473A",
",. c #475134",
"<. c #4D5332",
"1. c #4C533B",
"2. c #48533D",
"3. c #535634",
"4. c #5B5E33",
"5. c #54553C",
"6. c #5A5C3A",
"7. c #595839",
"8. c #67592D",
"9. c #614937",
"0. c #644C3A",
"q. c #684F3C",
"w. c #67503E",
"e. c #6B513D",
"r. c #665E3D",
"t. c #70543F",
"y. c #5C6235",
"u. c #5D643C",
"i. c #596339",
"p. c #64612C",
"a. c #6B6C2E",
"s. c #68652A",
"d. c #786827",
"f. c #6E752D",
"g. c #7C752E",
"h. c #777729",
"j. c #636533",
"k. c #6B6C33",
"l. c #62643B",
"z. c #6A663A",
"x. c #626A3E",
"c. c #6B6E3A",
"v. c #696336",
"b. c #736932",
"n. c #766A3B",
"m. c #6D7132",
"M. c #6C7239",
"N. c #737334",
"B. c #7A7533",
"V. c #7C7B33",
"C. c #757839",
"Z. c #373C40",
"A. c #3C4145",
"S. c #374840",
"D. c #3D4C42",
"F. c #3E5044",
"G. c #434341",
"H. c #424C43",
"J. c #4A4B43",
"K. c #484847",
"L. c #524C45",
"P. c #534F48",
"I. c #435245",
"U. c #4B5245",
"Y. c #4D5A41",
"T. c #445549",
"R. c #4B5549",
"E. c #465A4A",
"W. c #4A5C4C",
"Q. c #525245",
"!. c #535C42",
"~. c #53544A",
"^. c #5A544B",
"/. c #535C4E",
"(. c #5C5848",
"). c #4B5F50",
"_. c #595C52",
"`. c #52565B",
"'. c #444B52",
"]. c #6F5440",
"[. c #635947",
"{. c #725741",
"}. c #755943",
"|. c #685D52",
" X c #4D604E",
".X c #566245",
"XX c #5D6A44",
"oX c #58634A",
"OX c #4F6352",
"+X c #536555",
"@X c #5B6852",
"#X c #636A41",
"$X c #6C6C42",
"%X c #6B6E4A",
"&X c #666648",
"*X c #736B43",
"=X c #7C674B",
"-X c #6B7347",
";X c #797944",
":X c #676656",
">X c #746653",
",X c #565E66",
"<X c #917E1E",
"1X c #877C2E",
"2X c #8C7C2B",
"3X c #8A7825",
"4X c #8B7C33",
"5X c #827935",
"6X c #826C2D",
"7X c #8A7744",
"8X c #7D8134",
"9X c #8B882C",
"0X c #9A8D28",
"qX c #969031",
"wX c #999126",
"eX c #A68F2E",
"rX c #9B8642",
/* pixels */
"                                                    f                                                     ",
"                                            6 s C %.%.g 6 6                                               ",
"                                      6 s C $.L.|.^.^.^.J.J f s                                           ",
"                                  < C $.J.G.$.J.J.I L.J.P L.^.J.K f p                                     ",
"                            s g 6 < J.J.' ' ` ` ' ` D.` j J U.R.~.L < 6 d 4                               ",
"                        s J ^.>X%.p J L.G.J.H.D.S.] S.D.` D.I.R./.L p P ~.$.k 1                           ",
"                    s k H.~./.|.L.f p L.J.H.D.D.D.` ` ` ` ` H.R.~.k p H.U.H.H.*.W 0                       ",
"                  s K U.H.D.T.~.~.k p J.L.H.D.` ` ( ( ( ( ' H.H.' 6 f J.H.D.H.U.r.8.A                     ",
"                q #.l.u.I.D.I.H.^.J p ~ L.J.D.` ( ( G b G ' ` b p < n J.&.&.I.H.(.n.6XW                   ",
"              ; q j.B.k.l.T.I.D.~.' j J L.J.` G ( ( ( G G ` G a 6 6 ` ^.l.j.4.U.l.[.4.B ; g               ",
"            N V < N b.g.N..XT.T.~.' 1 1 ' K G G G ( ( G G G b a < < K 2.y.4.j.4.7.5.q < X.} g             ",
"          z 8.m./ 6 B j.g.c.D.K s # # # f n b m X.[ G G G G b j ; # - , N X.y.6.2.q - / m.a.}             ",
"        g 3.k.f.m.*.f f 5.3.6 # # # # # < | @.| +.,.G G ( ` ` n # o . @ o < / ,.q - n Y.m.k.b.V           ",
"      s  .N.N.m.m..X<.v 1 ; # # # # . O ; y y , , 6 < < < < 1 ; O o . . o # # < < / 5.I.u.l.!.@.g         ",
"      g r.M.c.3.a.x.B.o.# # # # o O . @ # @ + + . . X . . . . o o o o o o o # # 6 y.M.u.!./.W.b.O.        ",
"    s O.n.M.j.*.z.a.a.8 % # o o o o o o o o o # $ $ # X O o o o o o o o o o O # % +.N.k.y.T.x.4X6XN       ",
"    g k.$X$Xa.~ L Z q # # o o o o o o o # # $ $ * * $ X $ $ # O o o o o o o o o . < &.c.g.x.#X1X2X<.      ",
"     .*X*X#X&.C C 1 % # o o o o o o . # $ * * * * : $ # : : : $ # # o o o o o o . . 9 n.5XB.7.v.7X/.f     ",
"  Z 5.N.N.oXl.X.9 * # o o o O O X # X $ : : : : * * $ # * : : : : : # X o o o o o . # @.4XY.k P :X+XK     ",
"   .k.#X#X$X9Xh.q % # o o o X X $ * # * : : 2 : ; ; = 1 ; : 2 : : 2 $ # # . o o o . . 8 k.W.K L  XOX'     ",
"  f _ &.6.B.9Xh., # . o O X # * : : $ : 2 2 5 : i i > s 1 : 2 2 2 2 $ * : # . o o o . # ) T.) N #.n < ;   ",
"B i.X.C n Z @.} * # o o X # * : 2 2 $ 2 4 2 5 : ; 1 k ; $ : 2 : : 2 * : 2 : $ X o o . . 6 ` M 6 6 6 | u   ",
"X.8XC.u.3.K s ; # o o X $ : : 2 2 2 $ 5 2 2 2 : : L k G.d : 4 h ; 2 * : 5 5 2 $ X o o . % < q m 3.x.qXd.  ",
"&.-X+X-X;X%Xs.< # o . O : 2 2 2 5 5 * 0 : s k ; G.I # S `.J s J 1 2 : 2 5 5 5 2 $ . o . # } k.$XB.B.eX5X  ",
"^.%X+X+X%X;Xg., # X X # 2 5 2 5 0 5 : 0 : P K.I A.; : # i '.I i ; 5 : 2 0 0 5 0 2 O o X # | k.c.V.9X0Xn.  ",
"5.4X-X&X/.@Xz., o X $ $ 5 0 5 5 e 0 : e : s A.,Xs 2 5 ; s D j '.k 5 : 2 e 0 0 0 0 : O o % B N.n.$X9X4Xz.  ",
"6.4X7X=X:X>Xv.; O # * * 5 0 5 5 e e : e 4 G.A.S Z.k 2 1 D ; < Z.s 0 : 2 e e 0 e e 4 # # ; V C.g.O.2XrX5X  ",
"5.:X/.' z.=Xr.* O $ : * 0 e 0 5 e e : e 1 h j # 1 D f k 1 ; ; : 2 e : 4 z e e e e 0 $ O ; Z $Xp.p.s.eXn.  ",
"I.@X] T.5.oXI.* # * 2 * e e e 5 e e : 0 0 , 2 2 ; 1 k p < , e e e e : 2 z e e e e e # X % B @.a.N.p.<Xb.  ",
"y.a.p.;X5X2.H.* $ : 2 : e e e 0 e e : 5 e e U e 1 k 1 ; S 4 e e e z : 4 z l e e l e $ O * v X.h.M.g.d.<.  ",
"@.@.M.-X&XW.H.* $ : 2 : e e e 0 e e : 2 l e U e ; < ; ; 1 : e e e z : 2 z z e e z e * # * f 1.m.u.5X2XZ   ",
"V y.+X+X_..X .* $ : 2 : e e e 0 e e : 2 l e U z 4 4 : # : 5 z e e z 2 2 U z e e z e * # % 6 2.N.x.B.h.3.  ",
"_ 4.XXW.(.8.X.; $ : 2 : e e e 0 z l : 2 l e U z l z 0 * 5 z z l l z 2 2 Y z e l z e * # * / @.a.M.a.k.i.  ",
"K / } m j f f # $ 2 5 : e l e e z l : 2 l z Y z z U e : l z z l l z 2 2 Y z e l z z * $ * 8 t 9 y w v g   ",
"_ B n n k n s $ $ 2 5 : e z e e z e : 5 z z R Y E R e : Y E E Y Y z 2 2 Y z e z z z * $ ; 8 u u e C c k   ",
"I. X!._ U.x.<.* * 2 0 : e z e e z z 2 z R Y E Y Y U 0 : U z z z -.-.0 0 Y z e z z e * * ; { eX<X2X>X:X^.  ",
"W.@X8Xy.3.1Xp.* * 5 0 : e z z z Y z 4 Y Y Y R z z U 0 2 -.=.E Y w.=.2 z -.Y l l z e * * ; O.0X3X5XJ./.~.  ",
":XW.2.!.>.d.3.; : 0 0 : e Y Y z R Y : z ^ Y E z z U 0 : E ^ :.=.0.Y 2 A ^ -.E z z e * * ; o.h.wXXXF.] I.K ",
"J K u.#X[.8.>.; : e 0 : Y E Y Y R z : e ^ z z z z U 0 : U z z :.=.U 0 z =.-.E E Y e * * * y h.wXC.OXH.' K ",
"6 K 5X9X.XU.~ * : e e 2 E R z Y R Y : 0 E Y Y U Y R e 2 Q R Y -.E E z 0 ! ! E =.-.Y * * # 9 f.9XC.OXI.) K ",
"b K N.B..XD.n * : e 0 : R =.E Y R Y 2 z Y z z z z U 0 : R Y Y R R 0.z 2 z z z z Y z * * # f X.M.XXW.D.I.J ",
"` ` I.E.T.` ] * ; e 0 * e ^ Q z Y z , 0 e e e e z U e : Y z l e z Q e 5 z z e e z e * * * f #.] W.D.W.I.J ",
"` I.] E.' I.!.* ; 0 0 * 0 z ^ E Y z : 4 e z Y R -.0.R 4 e.^ Y e 0 z 5 l R z e e z e $ * ; < ) I.I.I./.&.C ",
"` W.D.I.I.E.Y.; ; 0 0 : e l Y z z e : e ^ -.0.-.t.{.^ 0 =Xt.q.=.Y Y 5 0 R R z e z e $ * ; % ) W.] /.U.' C ",
"` W.W.H.W.T.K ; ; 0 0 ; e l z e z e 0 ! 0.9.=.R e.-.z 0 {.=.-.-.:.e.z 0 z z z e z e $ $ ; , I.D.T.T.R.$.C ",
") I.I.W.H.W.f $ ; 0 0 * e l e e R Y 0 ! R Y E E 0.Y e 5 {.=.R z E e.Y Y Q e e e z e $ $ $ B I.I.W.' I.$.C ",
"` D.' OXI.I.] * ; 0 0 * e l l Y 0.Y 2 l E -.-.=.e.^ z 0 {.;.-.Q Y R e Q {.Y e e z e $ $ $ N ] W.W.W.' D.J ",
"G G D.I.F.) ) ; ; 0 0 : e l R -.0.Y 4 E 0.^ -.-.e.{.^ 0 ].0.-.E -.=.0 Y }.;.z e z e $ # # < n m G G b p   ",
"1 6 a p 7 6 ; $ ; 0 0 : 0 Y 0.-.R e 4 Y 0.0.R E e.{.-.e e.E ^ -.=.-.z 5 -.0.-.z z e $ # * ; < 7 < < < ;   ",
"n j ] D.] ) n ; ; 0 0 : e -.0.-.-.Y 4 =.=.;.U Y 9.0.9.0 0.Y E ^ -.e.e 0 -.0.q.^ z e $ # $ n G ` ] ' ` '   ",
"G n I.W.F.K ] ; ; 0 0 : R e.-.Y =.E 0 ! z E -.=.E Q -.4 -.0.0.z Y {.A l E E w.e.Y e $ # * K I.' I.' I.H.J ",
"G b ) I.' ^.H.; ; 0 0 : =.0.Y 0 z z 2 =.-.-.-.-.0.{.E e 0.e.e.E -.{.z 2 l e -.e.-.e $ $ * G I.H.' H.U.$.J ",
"f n F.` U.|.H.; ; 0 0 4 =.0.^ l Y Y 4 =.Y -.0.-.Q -.Y 5 -.].{.E R {.z 5 U U ;.q.0.z $ $ * G I.D.' E.E.D.J ",
"_.] W.D.D.R.H.< ; 0 0 0 =.E ;.=.0.E 0 =.Y =.Q Y z -.R 4 U ^ 0.R E {.e z 0.0.-.=.0.Y $ $ * K W.] T.] E.I.J ",
":XE.D.I.` T.D.< ; 0 e d ^ Y -.=.e.E , Y 0.-.z z -.e.R 0 ^ Y E -.=.E 0 z e.0.=.R 0.^ $ $ * K D.I.E.] ] F.J ",
"] ] ] T.D.` ] ; ; 0 z z E R =.Q -.Y : z -.=.=.=.-.=.z 4 ;.q.0.^ Q z , 0 0.-.-.Y 0.-.$ $ * n D.E.E.I.` ` J ",
") ' T.E.I.` G ; ; 0 z z Y E Q E Y e 0 =.=.z ^ -.R z 5 2 =.].-.z -.-.0 , ^ =.-.Y 0.;.$ $ ; f T.W.W.W.D.n K ",
"n I.T.F.I.F.n ; ; 0 z z Y Q -.=.=.z 9 =.-.U -.-.z e 5 : Y {.-.R ;.=.0 0 ;.0.0.Y 0.:.$ $ ; n ` E.E.E.` ` K ",
"' ] E.I.I.` K ; * 0 z d Y E =.^ E z 0 =.^ z 0.-.z z 0 : E {.-.Y -.:.0 4 -.-.-.Y 0.-.$ $ * K ' D.W.' ] D.  ",
"] D.D.E.` K ] ; * 0 z d E E Q E Y e 4 ^ E z 0.-.E z e 2 -.].-.z =.-.5 2 ^ ^ -.Y 0.-.$ $ * K E.] I.K F.D.  "
};
