/* XPM */
static char *effect_w[] = {
/* columns rows colors chars-per-pixel */
"64 64 2 1 ",
"  c None",
". c white",
/* pixels */
"                                                                ",
"                                                                ",
"                                                                ",
"                                                                ",
"                                                                ",
"                                                                ",
"                                                                ",
"                                                                ",
"        ........            ........            ........        ",
"        ........            ........            ........        ",
"        ........            ........            ........        ",
"        ........            ........            ........        ",
"        ............        ........        ............        ",
"        ............        ........        ............        ",
"        ............        ........        ............        ",
"        ............        ........        ............        ",
"            ........        ........        ........            ",
"            ........        ........        ........            ",
"            ........        ........        ........            ",
"            ........        ........        ........            ",
"                    ....                ....                    ",
"                    ....                ....                    ",
"                    ....                ....                    ",
"                    ....                ....                    ",
"                                                                ",
"                                                                ",
"                                                                ",
"                                                                ",
"        ............                        ............        ",
"        ............                        ............        ",
"        ............                        ............        ",
"        ............                        ............        ",
"        ............                        ............        ",
"        ............                        ............        ",
"        ............                        ............        ",
"        ............                        ............        ",
"                                                                ",
"                                                                ",
"                                                                ",
"                                                                ",
"                    ....                ....                    ",
"                    ....                ....                    ",
"                    ....                ....                    ",
"                    ....                ....                    ",
"            ........        ........        ........            ",
"            ........        ........        ........            ",
"            ........        ........        ........            ",
"            ........        ........        ........            ",
"        ............        ........        ............        ",
"        ............        ........        ............        ",
"        ............        ........        ............        ",
"        ............        ........        ............        ",
"        ........            ........            ........        ",
"        ........            ........            ........        ",
"        ........            ........            ........        ",
"        ........            ........            ........        ",
"                                                                ",
"                                                                ",
"                                                                ",
"                                                                ",
"                                                                ",
"                                                                ",
"                                                                ",
"                                                                "
};
