/* XPM */
static char *enemy_03[] = {
/* columns rows colors chars-per-pixel */
"64 64 3 1 ",
"  c None",
". c #F2F000",
"X c white",
/* pixels */
"                                                                ",
"                                                                ",
"                                                                ",
"                                                                ",
"                                                                ",
"                                                                ",
"                                                                ",
"                                                                ",
"                                                                ",
"                                                                ",
"                                                                ",
"                                                                ",
"                    XXXX    XXXXXXXX    XXXX                    ",
"                    XXXX    XXXXXXXX    XXXX                    ",
"                    XXXX    XXXXXXXX    XXXX                    ",
"                    XXXX    XXXXXXXX    XXXX                    ",
"                                                                ",
"                                                                ",
"                                                                ",
"                                                                ",
"                        ................                        ",
"                        ................                        ",
"                        ................                        ",
"                        ................                        ",
"                ................................                ",
"                ................................                ",
"                ................................                ",
"                ................................                ",
"            ........................................            ",
"            ........................................            ",
"            ........................................            ",
"            ........................................            ",
"            ........................................            ",
"            ........................................            ",
"            ........................................            ",
"            ........................................            ",
"            ....    ........................    ....            ",
"            ....    ........................    ....            ",
"            ....    ........................    ....            ",
"            ....    ........................    ....            ",
"            ....        ................        ....            ",
"            ....        ................        ....            ",
"            ....        ................        ....            ",
"            ....        ................        ....            ",
"                ................................                ",
"                ................................                ",
"                ................................                ",
"                ................................                ",
"            ....        ....        ....        ....            ",
"            ....        ....        ....        ....            ",
"            ....        ....        ....        ....            ",
"            ....        ....        ....        ....            ",
"            ........                        ........            ",
"            ........                        ........            ",
"            ........                        ........            ",
"            ........                        ........            ",
"                ....                        ....                ",
"                ....                        ....                ",
"                ....                        ....                ",
"                ....                        ....                ",
"                                                                ",
"                                                                ",
"                                                                ",
"                                                                "
};
