/* XPM */
static char *enemy_01[] = {
/* columns rows colors chars-per-pixel */
"64 64 2 1 ",
"  c None",
". c #C50404",
/* pixels */
"                                                                ",
"                                                                ",
"                                                                ",
"                                                                ",
"                                                                ",
"                                                                ",
"                                                                ",
"                                                                ",
"                                                                ",
"                                                                ",
"                                                                ",
"                                                                ",
"                        ................                        ",
"                        ................                        ",
"                        ................                        ",
"                        ................                        ",
"                ................................                ",
"                ................................                ",
"                ................................                ",
"                ................................                ",
"            ........................................            ",
"            ........................................            ",
"            ........................................            ",
"            ........................................            ",
"            ........................................            ",
"            ........................................            ",
"            ........................................            ",
"            ........................................            ",
"            ........................................            ",
"            ........................................            ",
"            ........................................            ",
"            ........................................            ",
"            ....        ................        ....            ",
"            ....        ................        ....            ",
"            ....        ................        ....            ",
"            ....        ................        ....            ",
"            ....        ................        ....            ",
"            ....        ................        ....            ",
"            ....        ................        ....            ",
"            ....        ................        ....            ",
"                ................................                ",
"                ................................                ",
"                ................................                ",
"                ................................                ",
"            ....        ....        ....        ....            ",
"            ....        ....        ....        ....            ",
"            ....        ....        ....        ....            ",
"            ....        ....        ....        ....            ",
"            ........                        ........            ",
"            ........                        ........            ",
"            ........                        ........            ",
"            ........                        ........            ",
"                                                                ",
"                                                                ",
"                                                                ",
"                                                                ",
"                                                                ",
"                                                                ",
"                                                                ",
"                                                                ",
"                                                                ",
"                                                                ",
"                                                                ",
"                                                                "
};
