/* XPM */
static char *JumpPlant_2_00014[] = {
/* columns rows colors chars-per-pixel */
"60 60 164 2 ",
"   c None",
".  c #020501",
"X  c #040B03",
"o  c #071105",
"O  c #091506",
"+  c #0B1807",
"@  c #0C1B09",
"#  c #0F210B",
"$  c #11250E",
"%  c #13290F",
"&  c #0E2212",
"*  c #0B241B",
"=  c #0E2A1C",
"-  c #132C12",
";  c #132F19",
":  c #163114",
">  c #193717",
",  c #14311C",
"<  c #19371A",
"1  c #1A3A1A",
"2  c #082320",
"3  c #0E2D20",
"4  c #0C2D2A",
"5  c #102F23",
"6  c #0E342E",
"7  c #123426",
"8  c #193C24",
"9  c #10342A",
"0  c #13392D",
"q  c #0E3A34",
"w  c #113D35",
"e  c #123E3B",
"r  c #1C401E",
"t  c #1D4422",
"y  c #1E4829",
"u  c #1F4D33",
"i  c #12423C",
"p  c #1A4B3C",
"a  c #1F543E",
"s  c #204B28",
"d  c #22502E",
"f  c #235534",
"g  c #245B3C",
"h  c #144A44",
"j  c #1A4D40",
"k  c #164E49",
"l  c #194F49",
"z  c #1F5742",
"x  c #17524D",
"c  c #1A524E",
"v  c #1E5A4A",
"b  c #1A5455",
"n  c #1A5A53",
"m  c #175158",
"M  c #1A5359",
"N  c #1B5B59",
"B  c #255F43",
"V  c #205C4B",
"C  c #1E625C",
"Z  c #25654B",
"A  c #216253",
"S  c #256953",
"D  c #21645D",
"F  c #1B5E64",
"G  c #215E66",
"H  c #1D6662",
"J  c #1E626B",
"K  c #1E6C68",
"L  c #1D6871",
"P  c #216661",
"I  c #216A65",
"U  c #23636B",
"Y  c #226D69",
"T  c #247067",
"R  c #24726D",
"E  c #237573",
"W  c #267976",
"Q  c #287A77",
"!  c #247578",
"~  c #267C7B",
"^  c #297D7C",
"/  c #27807E",
"(  c #2A817F",
")  c #297781",
"_  c #2A7A84",
"`  c #278082",
"'  c #2B8383",
"]  c #2D8887",
"[  c #27868A",
"{  c #2A858B",
"}  c #2C8B8B",
"|  c #2D8591",
" . c #2D8E92",
".. c #2E8D9A",
"X. c #308590",
"o. c #328C97",
"O. c #308F9C",
"+. c #2D9294",
"@. c #2C949B",
"#. c #2E999A",
"$. c #30949B",
"%. c #309B9C",
"&. c #2B97A5",
"*. c #2E9CA2",
"=. c #2D9FAF",
"-. c #3194A1",
";. c #309DA3",
":. c #349DAB",
">. c #2FA1A3",
",. c #2FA4AA",
"<. c #31A3A6",
"1. c #31A4AA",
"2. c #30AAAC",
"3. c #2CA4B4",
"4. c #2FABB1",
"5. c #2CA6B9",
"6. c #2DABBC",
"7. c #33A5B3",
"8. c #38A5B3",
"9. c #32ACB4",
"0. c #38AAB7",
"q. c #32A7B8",
"w. c #33ACBD",
"e. c #38AEBD",
"r. c #33B0B5",
"t. c #33B4BB",
"y. c #2EAEC1",
"u. c #32AFC1",
"i. c #2DB1C5",
"p. c #34B3C2",
"a. c #3BB5C5",
"s. c #35BBC4",
"d. c #3BB8C5",
"f. c #31B7CA",
"g. c #35BBCB",
"h. c #3ABCCB",
"j. c #35BED1",
"k. c #31BDD1",
"l. c #35C2C7",
"z. c #35C3CA",
"x. c #3BC3CE",
"c. c #3DC2CE",
"v. c #35C7D4",
"b. c #3AC1D2",
"n. c #3DC2D1",
"m. c #3EC7D6",
"M. c #3DC9D5",
"N. c #36C5D8",
"B. c #37CBD8",
"V. c #3BCADB",
"C. c #3ECBDA",
"Z. c #3DCEDB",
"A. c #38CBDE",
"S. c #3CCBDC",
"D. c #3ACCDE",
"F. c #37CFE1",
"G. c #38D2E1",
"H. c #3AD1E2",
"J. c #3ED0E1",
"K. c #3AD2E4",
"L. c #3DD7E8",
"P. c #42C0D0",
"I. c #44D4E5",
"U. c #40DAEC",
/* pixels */
"                                                                                                                        ",
"                                                                                                                        ",
"                                                                                                                        ",
"                                                                                                                        ",
"                                                                                                                        ",
"                                                                                                                        ",
"                                                                                                                        ",
"                                                                                                                        ",
"                                                                                                                        ",
"                                                                                                                        ",
"                                                                                                                        ",
"                                                                                                                        ",
"                                                                                                                        ",
"                                                                                                                        ",
"                                                                                                                        ",
"                                                                                                                        ",
"                                                                                                                        ",
"                                                U X.o._         _ o.| U                                                 ",
"                                    U | -.O.m ) a.a.a.a.7.) _ 8.a.d.h.h._ m $.-.[ G                                     ",
"                                  ..e.e.0.7._ u.p.0.0.u.a.0.e.h.p.p.p.g.m.[ 9.0.e.0.|                                   ",
"                              J 0.h.g.0.0...:.u.5.5.5.y.,.I I 0.g.i.6.y.j.p.@.0.q.0.a.:.m                               ",
"                            L m.I.U.Z.g.7.| 0.3.3.5.5.f.[ v v +.j.i.y.6.i.v.&.7.0.p.h.P.7.F                             ",
"                          m 7.c.M.Z.L.K.3.7.h.p.p.p.y.j.W S S / N.j.j.g.g.Z.g.=.a.d.h.c.d.t.                            ",
"                          [ 1.;.<.<.p.g.0.h.m.c.m.h.g.m.R S S R Z.F.K.K.Z.Z.Z.0.p.s.s.l.t.z.@.                          ",
"                        F @.+.+.+.#.1.3.g.h.s.t.s.g.g.h.D Z Z R K.B.v.s.9.9.s.p.6.t.2.<.>.>.*.H                         ",
"                        ! } ..+.} +.;.@.p.t.2.4.9.9.r.p.A B B I K.t.1.*.@.@.1.7.@.1.+.} +.+.+.~                         ",
"                        ' } } } } } @.[ 9.2.>.,.,.>.<.7.V g g A p.<.+.+.+.+.@.;.[ *.+.} } } } '                         ",
"                      b ' [ } ' ' } } ! 1.>.>.>.*.#.%.@.a f f z *.%.+.} } } ..@.! +...] ' } } [ m                       ",
"                      b ^ ' ' ( ' } ~ N #.@.#.#.+.+.+.` u d d u [ +.} ' ' ' [ } b ` } ' ' ' ' ' N                       ",
"                      c ! W W Q Q ' H i } } } } } ' } P y s s y I } ( ^ ^ ^ ^ ^ w I ' Q Q ~ ~ W b                       ",
"                      e H I I I R ~ h 7 ! ~ ~ ~ ~ W ! p t t t t j ~ ! R R R R I 5 k ~ R I R ! K i                       ",
"                        x C C C I I 5 , n I I I I I b 8 r 1 1 r 8 n I P D D D l , 9 ! I H H H x                         ",
"                        4 h x N H k & < w n n n n x 7 1 1 > > 1 1 7 x n n c l 0 < & x K H n h 4                         ",
"                          * 6 e q   $ > ; q i i w = - : : : : : : - 3 w i i 6 ; > #   i h q 2                           ",
"                                    # : - - = * & - - % - - - % % - - & * = - - : #                                     ",
"                                    @ $ % % $ $ $ $ $ $ $ $ $ $ $ $ $ $ $ $ % % $ @                                     ",
"                                    o # # # # $ # @ @ @ # # # # @ @ @ # $ # # # @ o                                     ",
"                                      @ @ @ @ @ @ @ @ @ @ @ @ @ @ @ @ @ @ @ @ @ +                                       ",
"                                      o O O O O O O O O O O O O O O O O O O O O o                                       ",
"                                      X o O o o o o o o o o o o o o o o o o O o X                                       ",
"                                        X X X X X X X X X X X X X X X X X X X .                                         ",
"                                            . X X X X X X X X X X X X X X .                                             ",
"                                                        . . .                                                           ",
"                                                                                                                        ",
"                                                                                                                        ",
"                                                                                                                        ",
"                                                                                                                        ",
"                                                                                                                        ",
"                                                                                                                        ",
"                                                                                                                        ",
"                                                                                                                        ",
"                                                                                                                        ",
"                                                                                                                        ",
"                                                                                                                        ",
"                                                                                                                        ",
"                                                                                                                        ",
"                                                                                                                        ",
"                                                                                                                        ",
"                                                                                                                        ",
"                                                                                                                        "
};
