/* XPM */
static char *Plant3_00010[] = {
/* columns rows colors chars-per-pixel */
"60 60 175 2 ",
"   c None",
".  c #000200",
"X  c #040B03",
"o  c #061206",
"O  c #091406",
"+  c #091708",
"@  c #0C1C09",
"#  c #101F0B",
"$  c #0E240D",
"%  c #12240D",
"&  c #152A0F",
"*  c #102710",
"=  c #132B11",
"-  c #182E11",
";  c #153415",
":  c #1B3413",
">  c #173916",
",  c #1E3916",
"<  c #183718",
"1  c #1A3C19",
"2  c #203D16",
"3  c #213E18",
"4  c #1C431B",
"5  c #1E4A1D",
"6  c #234017",
"7  c #24441A",
"8  c #28471B",
"9  c #234B1F",
"0  c #294C1E",
"q  c #2D531F",
"w  c #1F4A20",
"e  c #224D21",
"r  c #245423",
"t  c #2D5422",
"y  c #255825",
"u  c #2D5A24",
"i  c #285628",
"p  c #2A5D2B",
"a  c #305522",
"s  c #335C25",
"d  c #345E29",
"f  c #2A6027",
"g  c #2C632A",
"h  c #2F6B2E",
"j  c #356427",
"k  c #386527",
"l  c #36642A",
"z  c #39662B",
"x  c #316F2E",
"c  c #3B6C2D",
"v  c #32722F",
"b  c #3E722D",
"n  c #2F6930",
"m  c #356C35",
"M  c #3D6A31",
"N  c #337332",
"B  c #3E7131",
"V  c #367C36",
"C  c #387D36",
"Z  c #3B7A3C",
"A  c #40742E",
"S  c #426F36",
"D  c #456C3A",
"F  c #417433",
"G  c #437A33",
"H  c #46723B",
"J  c #49773D",
"K  c #477C3B",
"L  c #4A7B3E",
"P  c #4E7743",
"I  c #447C45",
"U  c #4D7C42",
"Y  c #477B48",
"T  c #3B843A",
"R  c #3E893D",
"E  c #478134",
"W  c #4A8536",
"Q  c #4B8837",
"!  c #4B833C",
"~  c #418E3E",
"^  c #4E8C3C",
"/  c #528D3F",
"(  c #52923D",
")  c #4F8242",
"_  c #438E43",
"`  c #4C824C",
"'  c #4D8B4D",
"]  c #538446",
"[  c #528B43",
"{  c #568649",
"}  c #59864D",
"|  c #5A8D4C",
" . c #449443",
".. c #479945",
"X. c #499649",
"o. c #4C9D4B",
"O. c #559443",
"+. c #569A43",
"@. c #5A9C46",
"#. c #5A974B",
"$. c #5E9C4E",
"%. c #4F8850",
"&. c #508A51",
"*. c #5E8D52",
"=. c #549254",
"-. c #5F9550",
";. c #519B51",
":. c #5C9F5C",
">. c #639556",
",. c #639A55",
"<. c #6B9F5D",
"1. c #4CA24B",
"2. c #5CA046",
"3. c #5EA24A",
"4. c #51A84F",
"5. c #54A354",
"6. c #54AB53",
"7. c #5CA35C",
"8. c #5DAA5D",
"9. c #58B157",
"0. c #5BB35A",
"q. c #5FB85D",
"w. c #60A44B",
"e. c #62A84C",
"r. c #64A352",
"t. c #66AB51",
"y. c #69AF55",
"u. c #6CA55D",
"i. c #6DA95C",
"p. c #70AD5E",
"a. c #67B251",
"s. c #6BB157",
"d. c #6DBA56",
"f. c #6DB358",
"g. c #60B95E",
"h. c #72B65E",
"j. c #73B85D",
"k. c #61AD61",
"l. c #71AC62",
"z. c #61B461",
"x. c #65BC64",
"c. c #67B168",
"v. c #69B469",
"b. c #6BBC6B",
"n. c #74B761",
"m. c #77BD62",
"M. c #79BE64",
"N. c #7BBA6A",
"B. c #70BF70",
"V. c #72C15C",
"C. c #6CC36B",
"Z. c #77C761",
"A. c #78C663",
"S. c #7CCB67",
"D. c #7DC469",
"F. c #7FCF6A",
"G. c #73C573",
"H. c #72C971",
"J. c #76CA76",
"K. c #76CC75",
"L. c #78CC77",
"P. c #79CE78",
"I. c #7BD17B",
"U. c #83C76F",
"Y. c #81C66E",
"T. c #80CE6B",
"R. c #80CF6C",
"E. c #83D16F",
"W. c #82C070",
"Q. c #85C672",
"!. c #86C972",
"~. c #88CA75",
"^. c #8BCD78",
"/. c #8DCF7A",
"(. c #8ED37C",
/* pixels */
"                                                                                                                        ",
"                                                                                                                        ",
"                                                                                                                        ",
"                                                                                                                        ",
"                                                                                                                        ",
"                                                                                                                        ",
"                                                                                                                        ",
"                                                                                                                        ",
"                                                                                                                        ",
"                                                                                                                        ",
"                                                                              &.I                                       ",
"                                                                            %.I.v.                                      ",
"                                                                            v.I.c.                                      ",
"                                                              } l.        Y G.P.:.                                      ",
"                                        { ,.                  N.(.*.      =.H.H.&.                                      ",
"                            D           D.E.U                 W.^.<.      :.H.G.                                        ",
"                            u.u.      ] R.R.[                 W.^.<.      7.H.v.                                        ",
"                            ,.U.{     $.F.S.)               } W.~.>.      8.C.v.                                        ",
"                            | D.i.    $.S.A.L               ,.!.W.}       8.C.x.                                        ",
"                            ] M.n.D   $.Z.V.!               l.U.N.        8.x.z.                                        ",
"                            L j.j.)   #.V.V.!             H M.D.p.        5.g.0.                        P               ",
"                v.7.        H s.f.[   [ d.d.[             | M.M.-.        o.0.9.m                       N.}             ",
"              ` P.G.        F t.t.[   K a.a.O.            r.j.j.J         X.6.6.m                     -.U.|             ",
"              &.H.G.        F 3.3.!     e.e.+.          S y.s.r.          _ 1.1.p ` v.=.              j.D.]             ",
"                G.H.=.      B +.+.G     @.2.+.          ! t.e.[           R  . .m B.I.7.            #.m.n.D             ",
"                v.H.k.      B ( ^ B     ^ +.+.z         [ @.@.M           T R T ' L.G.`           K s.j.r.              ",
"                7.C.C.I     c Q W z     G ( ( B         ^ / /             V C C 7.H.v.          s 3.t.y.L               ",
"                I x.x.5.    c E G z     c ^ ^ G       s ! ! G             N v N z.H.8.          ^ 2.w.O.                ",
"                  5.q.0.Z   z A b s     s W W G       s F G c           r h f m z.C.7.        G ( O.O.                  ",
"                  Z 6.6.X.  u c c u       G G F       s c c s           y f u f 0.x.;.      z ^ W ^ z                   ",
"                     .1.o.  0 j j t       F A c       t s z t           y r r i 6.0.X.      G G E c                     ",
"                    N  .~ m 7 s s t       c c c       t a s 0         1 r 0 e e 1.4._     j b b c                       ",
"                      T C N 1 t q t       z k z       0 0 t 7         1 4 4 4 r  ...Z   7 j k c 0                       ",
"                      h x h 1 0 0 t ,     z s s       7 7 0 1         1 > 4 > f T T n   t s j u                         ",
"                      p f f 1 7 7 0 1     s a a       3 2 7 ,       - > > > - f N N   , t t s                           ",
"                      r y r 1 , 7 7 3     t 0 t       , , , ,       - - - - < f f f   7 0 q 0                           ",
"                      4 0 5 1 - 2 , ,   , 0 8 0       - - , -       $ $ $ = w r r e   7 7 0 ,                           ",
"                      1 4 4 > % , , , % - 7 7 7       % % & %     o @ @ @ > 5 4 5   , 7 6 7                             ",
"                      > > > >   , & - & - 3 , 3       # # % @     o o o @ > > 1 >   , , 2 ,                             ",
"                      - - - $   % & % % = , , ,     O @ O @       X o o @ - - >   @ , , , -                             ",
"                      $ $ $ @   @ % @ % % - & -     X O o O       X X X @ $ $ $   % & & ,                               ",
"                      + @ @ @     @ @ @ @ % % %     X X X X       X X X o + @ +   % % % &                               ",
"                        o o o     O O O + % # #     X . X X       . . X X X o   O @ @ % @                               ",
"                        X X X X   O X o O @ O @     . . . .     . . . . X X X   O O O @                                 ",
"                        . . . .   X X X X O O O X . . . . .     . . . . . . . X X X O O                                 ",
"                        . . . .   X X X X X X X X . . . . .     . . . . . . . X X X X                                   ",
"                        . . . . . . . . . X X X X . . . .       . . . . . . . . . X X                                   ",
"                        . . . . . . . . . . . . . . . . .       . . . . . . . . . .                                     ",
"                          . . . . . . . . . . . . . . . .     . . . . . . . . . . .                                     ",
"                          . . . .   . . . . . . . . . . .     . . . . . . . . . .                                       ",
"                          . . .       . .   . . .   . . .       . . .       . . .                                       ",
"                                                                                                                        ",
"                                                                                                                        ",
"                                                                                                                        ",
"                                                                                                                        ",
"                                                                                                                        ",
"                                                                                                                        ",
"                                                                                                                        ",
"                                                                                                                        ",
"                                                                                                                        "
};
