/* XPM */
static char *Plant3_00040[] = {
/* columns rows colors chars-per-pixel */
"60 60 169 2 ",
"   c None",
".  c #000200",
"X  c #040B03",
"o  c #061105",
"O  c #091406",
"+  c #0C1807",
"@  c #0A1708",
"#  c #0C1B09",
"$  c #101F0A",
"%  c #0D230D",
"&  c #12240D",
"*  c #152B0F",
"=  c #182E0F",
"-  c #132C11",
";  c #182E11",
":  c #153314",
">  c #1B3414",
",  c #163916",
"<  c #1D3A16",
"1  c #1B3B19",
"2  c #213E17",
"3  c #213E19",
"4  c #1B431B",
"5  c #1E4A1D",
"6  c #24431A",
"7  c #224B1E",
"8  c #294C1D",
"9  c #2C511E",
"0  c #224F21",
"q  c #2A4D21",
"w  c #324D2B",
"e  c #245323",
"r  c #2D5422",
"t  c #265926",
"y  c #2A5C25",
"u  c #295D29",
"i  c #315623",
"p  c #325B24",
"a  c #345C29",
"s  c #2C642B",
"d  c #2E692D",
"f  c #356327",
"g  c #386327",
"h  c #366329",
"j  c #39652D",
"k  c #326C2D",
"l  c #3A6B2B",
"z  c #31702F",
"x  c #3D712D",
"c  c #326C32",
"v  c #3C6F30",
"b  c #357434",
"n  c #3E7530",
"m  c #367B35",
"M  c #387F36",
"N  c #3C7A3C",
"B  c #40722E",
"V  c #426F37",
"C  c #43663A",
"Z  c #417433",
"A  c #447B33",
"S  c #487E37",
"D  c #457039",
"F  c #49753D",
"G  c #487F3A",
"H  c #457646",
"J  c #4B7440",
"K  c #457945",
"L  c #4E7843",
"P  c #507C44",
"I  c #3A813A",
"U  c #3F8A3C",
"Y  c #468034",
"T  c #498436",
"R  c #4C843B",
"E  c #408D3E",
"W  c #4E8C3B",
"Q  c #508E3C",
"!  c #42903F",
"~  c #4F903C",
"^  c #51913C",
"/  c #458D45",
"(  c #478348",
")  c #4A864A",
"_  c #4D8E4D",
"`  c #568F46",
"'  c #57864B",
"]  c #558849",
"[  c #469544",
"{  c #499D47",
"}  c #4C9C4B",
"|  c #549342",
" . c #569941",
".. c #5C9E46",
"X. c #5C954E",
"o. c #5C9C4A",
"O. c #528D52",
"+. c #5F8D52",
"@. c #5E9351",
"#. c #539B53",
"$. c #579658",
"%. c #589658",
"&. c #5B9D5B",
"*. c #639455",
"=. c #629B53",
"-. c #679A5A",
";. c #4DA14C",
":. c #5CA246",
">. c #50A74E",
",. c #5FA14B",
"<. c #52A552",
"1. c #54AA53",
"2. c #5DA45E",
"3. c #58B257",
"4. c #5CB45B",
"5. c #61A54C",
"6. c #63AA4C",
"7. c #65A254",
"8. c #67AD53",
"9. c #69AD53",
"0. c #6BA35B",
"q. c #6DAC5C",
"w. c #6BB256",
"e. c #6EBC56",
"r. c #60B75F",
"t. c #6EB45B",
"y. c #61BA5F",
"u. c #72B95E",
"i. c #60A561",
"p. c #62AA62",
"a. c #73AC64",
"s. c #63B163",
"d. c #64BC62",
"f. c #6BB76B",
"g. c #6BBC6C",
"h. c #75B563",
"j. c #76BC61",
"k. c #79BD65",
"l. c #7FBD6D",
"z. c #73C25C",
"x. c #67C067",
"c. c #68C167",
"v. c #6AC269",
"b. c #7AC465",
"n. c #7CCC66",
"m. c #71C56F",
"M. c #7DC168",
"N. c #7FCB6C",
"B. c #72C672",
"V. c #73CA73",
"C. c #74C873",
"Z. c #77CB77",
"A. c #76CA75",
"S. c #78CD78",
"D. c #79CF79",
"F. c #7CD37C",
"G. c #80BE6F",
"H. c #81C06F",
"J. c #81C76D",
"K. c #83C76E",
"L. c #81C56C",
"P. c #80CD6C",
"I. c #80D16A",
"U. c #83D36E",
"Y. c #86C972",
"T. c #87C974",
"R. c #88CA75",
"E. c #8CCE79",
"W. c #8DD07A",
/* pixels */
"                                                                                                                        ",
"                                                                                                                        ",
"                                                                                                                        ",
"                                                                                                                        ",
"                                                                                                                        ",
"                                                                                                                        ",
"                                                                                                                        ",
"                                                                                                                        ",
"                                                                                                                        ",
"                                                                                                                        ",
"                                                                                                                        ",
"                                                                                                                        ",
"                                                                                          $.O.                          ",
"                                                                                        i.F.f.                          ",
"                                              ] X.                      -.*.          O.A.S.i.                          ",
"                                        C   F P.N.                    +.W.G.          f.S.B.H                           ",
"                                      ' h.w 7.I.b.                    a.W.l.        O.A.A.2.                            ",
"                                      @.J.P t.I.u.                    J.E.a.        p.A.m.K                             ",
"                                      =.J.=.t.n.8.                  *.Y.R.*.        f.m.s.                              ",
"                                      7.b.7.w.b.,.                  h.Y.l.        ) v.v.#.                              ",
"                        O.)           q.j.7.8.z.o.                @.J.J.0.        #.d.x.)                               ",
"                      K A.f.        Z w.t.o.6.e.|                 h.M.k.L         <.y.r.                                ",
"                      &.S.f.        R 8.8.| 6.w.|               X.j.k.7.          <.4.<.                                ",
"                      i.S.f.        | ,.,.R 6.6.|             V w.t.t.D         c <.<.{                           L     ",
"                      i.A.f.        | | | j :.:.W             | 9.9.`           b ;.>./   O.&.                  q.a.    ",
"                      &.B.f.      l W W A r  . .W           j o.,.o.            I [ { c %.A.A.H               7.J.=.    ",
"                      _ v.v.)     n T T h   ~ ^ W           A | | G             I U E K B.S.p.              =.b.k.J     ",
"                      m d.d.{     n A A q   W W W           S R W a           t M I m 2.A.f.              o.u.j.=.      ",
"                        <.4.<.    x x x     Y T T         p A A Z             s b b m f.B.2.          j o.8.w.7.        ",
"                        [ <.<.    l l h     A A A         a l Z h           4 d s d / c.v.(         v | ..5.,.          ",
"                        m { { b 6 f f p     n B x         p g l q           e y y u { y.4.        x W Q | |             ",
"                        s E E b 6 p p r     l l l         i i h           , e e e e ;.3.<.      k Y Y W A               ",
"                          M M k 3 r r 8     j g h       , r 8 r           4 5 5 5 e { >./     p x x A l                 ",
"                          c k s < 8 8 8     h p p       3 8 8 8         - 4 < 4 , c ! [ b   8 f g x f                   ",
"                          s y t > 7 6 7   6 p i r       < 3 6 6         , , , 4 , M M I   , p p f y                     ",
"                          t e 0 - 6 2 6   6 r 8 8       > > < >       % , - , , e k z s   8 9 p y                       ",
"                        , 7 5 4 & 2 < 2 & 6 8 8 6       - ; > ;       % % % - , y y s , < 8 8 r <                       ",
"                        , 4 , ,   > > < & 3 6 6 3       & & - &       @ @ % - 5 7 e 7 & 6 6 8 6                         ",
"                        , , , ,   > * ; - < 2 2 >     @ & $ & @     o @ @ @ , < 4 4   > 2 2 6                           ",
"                        - - - %   & & & * > > > -     O @ + @       X o o % , , , - @ > > < >                           ",
"                        % % % @   @ & & & - - ; &     O O O O       X X o % % * -   * * = < &                           ",
"                        @ @ @ @   @ @ @ @ & & & @     X X X X       X X o @ @ %     & & * -                             ",
"                        o o o o   O O O O @ $ & @   . X . X X     . . . X X o o   @ @ $ & @                             ",
"                        X X X X   X o X o O O @ O   . . . .       . . . X X X X X O O @ @                               ",
"                        . . . .   X X X X o O O O   . . . .       . . . . . X . X o O O O                               ",
"                          . . . . X X X X X X X X . . . . .     . . . . . . . X X X X X                                 ",
"                          . . . . . . . . X X X X . . . . .     . . . . . . . X . X X                                   ",
"                          . . . . . . . . . . . . . . . . .     . . . . . . . . . . .                                   ",
"                          . . . . . . . . . . . . . . . . .     . . . . . . . . . .                                     ",
"                          . . . .   . . . . . . . . . . .       . . . . . . . . . .                                     ",
"                          . . .       . .   . . .   . . .       . . .       . . .                                       ",
"                                                                                                                        ",
"                                                                                                                        ",
"                                                                                                                        ",
"                                                                                                                        ",
"                                                                                                                        ",
"                                                                                                                        ",
"                                                                                                                        ",
"                                                                                                                        ",
"                                                                                                                        "
};
