/* XPM */
static char *Plant3_00089[] = {
/* columns rows colors chars-per-pixel */
"60 60 167 2 ",
"   c None",
".  c #000200",
"X  c #040B03",
"o  c #061206",
"O  c #091406",
"+  c #0C1807",
"@  c #0A1708",
"#  c #0C1B09",
"$  c #101F0B",
"%  c #0E230D",
"&  c #12230D",
"*  c #142A0F",
"=  c #112610",
"-  c #142C11",
";  c #182E11",
":  c #153414",
">  c #1B3413",
",  c #173916",
"<  c #1D3A16",
"1  c #1B3C18",
"2  c #213D16",
"3  c #213F19",
"4  c #1B431B",
"5  c #1F4A1D",
"6  c #24451B",
"7  c #25491D",
"8  c #2A4C1E",
"9  c #2C521F",
"0  c #214D21",
"q  c #2A4D20",
"w  c #245323",
"e  c #2D5423",
"r  c #2C5B25",
"t  c #295F29",
"y  c #315623",
"u  c #325C25",
"i  c #335E28",
"p  c #2A6027",
"a  c #2B612B",
"s  c #2E692C",
"d  c #366226",
"f  c #366329",
"g  c #39642C",
"h  c #316E2E",
"j  c #3B6C2C",
"k  c #31702F",
"l  c #3E732E",
"z  c #366136",
"x  c #3B6730",
"c  c #356C35",
"v  c #3C6E30",
"b  c #347333",
"n  c #3F7131",
"m  c #367B36",
"M  c #3A733A",
"N  c #3D7C3D",
"B  c #41742F",
"V  c #41782F",
"C  c #476C3D",
"Z  c #427533",
"A  c #437B33",
"S  c #487F37",
"D  c #467B39",
"F  c #4A7C3C",
"G  c #406F41",
"H  c #447545",
"J  c #4B7540",
"K  c #417942",
"L  c #4E7A42",
"P  c #537D49",
"I  c #398137",
"U  c #3B833A",
"Y  c #478135",
"T  c #498336",
"R  c #478338",
"E  c #4A873A",
"W  c #428F3F",
"Q  c #4E8B3B",
"!  c #518D3E",
"~  c #42903F",
"^  c #52923D",
"/  c #448345",
"(  c #448B44",
")  c #4F8A40",
"_  c #4B834B",
"`  c #4D8B4D",
"'  c #528245",
"]  c #518B42",
"[  c #568749",
"{  c #5A864E",
"}  c #459344",
"|  c #4D924D",
" . c #4C9E4B",
".. c #559542",
"X. c #579A43",
"o. c #599C45",
"O. c #5C914E",
"+. c #5C9B4B",
"@. c #5D8E50",
"#. c #549355",
"$. c #5E9650",
"%. c #569856",
"&. c #5B9C5B",
"*. c #609552",
"=. c #649F55",
"-. c #4DA24C",
";. c #5BA145",
":. c #56A355",
">. c #55AD54",
",. c #5DA35D",
"<. c #5FA95F",
"1. c #58B157",
"2. c #5DB65C",
"3. c #5EB85D",
"4. c #62A54D",
"5. c #62A94D",
"6. c #64A352",
"7. c #66AB53",
"8. c #6BAC57",
"9. c #69A25A",
"0. c #6CAE59",
"q. c #71AF5F",
"w. c #6AB254",
"e. c #6DBA56",
"r. c #6CB259",
"t. c #60B95F",
"y. c #72B75E",
"u. c #72B95E",
"i. c #60A460",
"p. c #64AB64",
"a. c #74AD64",
"s. c #64BC64",
"d. c #6BBD6B",
"f. c #78B467",
"g. c #76BB62",
"h. c #78BE64",
"j. c #7BB66A",
"k. c #7DBB6C",
"l. c #73C25D",
"z. c #66C065",
"x. c #68C067",
"c. c #6DC36C",
"v. c #7AC065",
"b. c #7BCB65",
"n. c #7EC36A",
"m. c #72C272",
"M. c #72C572",
"N. c #75C774",
"B. c #72C971",
"V. c #74CA73",
"C. c #75C974",
"Z. c #76C976",
"A. c #76CA76",
"S. c #77CC77",
"D. c #79CF79",
"F. c #7BD27B",
"G. c #7BD37C",
"H. c #7DD67D",
"J. c #82C56E",
"K. c #81D16B",
"L. c #84D46F",
"P. c #87CA72",
"I. c #8ACC76",
"U. c #8BCE78",
"Y. c #88D973",
"T. c #8DD07A",
"R. c #8FD47C",
/* pixels */
"                                                                                                                        ",
"                                                                                                                        ",
"                                                                                                                        ",
"                                                                                                                        ",
"                                                                                                                        ",
"                                                                                                                        ",
"                                                                                                                        ",
"                                                                                                                        ",
"                                                                                                                        ",
"                                                                                                                        ",
"                                                                        G p.H                                           ",
"                                                                        p.G.,.                                          ",
"                                                                        M.D.%.                                          ",
"                                                          { k.P       _ V.V.#.                                          ",
"                                      $.                  a.R.a.      #.V.V.`                                           ",
"                                    =.Y.=.                a.R.j.      #.V.M._                                           ",
"                        9.@.        y.L.r.                a.U.k.      %.V.c._                                           ",
"                        9.J.'       g.L.r.                f.I.j.      #.c.c.`                                           ",
"                        [ n.q.      u.b.r.                k.P.a.      ` c.c.|                                           ",
"                          g.h.'     r.b.w.              L n.J.9.      / s.s.|                       C                   ",
"                          0.g.+.    7.l.e.              O.n.n.O.      N 2.3. .                      a.*.                ",
"              i.H         6.r.6.    +.e.e.D             6.h.g.L       c >.1.-.                    J n.9.                ",
"            %.G.p.        +.7.5.    ) w.w.)             0.y.8.          -.>. .z %.                $.n.9.                ",
"            %.D.d.        ..5.+.g   Z 5.5...          F w.w.+.          }  .} p.G.%.              0.v.*.                ",
"            #.V.M._       E o...g     o.;.X.          ) 5.5.F           ( ~ ( M.V.#.            ] u.u.'                 ",
"              c.V.,.      S ^ Q g     Q X.X.j         ] o.o.x           U I ` V.M.            g 5.w.7.                  ",
"              <.c.d.K     S Q T i     S ^ ^ S         Q ! !             m b | V.d.            Q 5.5.]                   ",
"              / s.x.:.    l Y S y     g Q Q R         S T S             b s | c.d.          j ..o.X.                    ",
"                :.t.2./   g V l y       Y T Y       e Z Z n           0 s r ( z.s.          E Q ^ n                     ",
"                M >.>.-.  e j j y       S S S       e j j g           w p w N 2.2.N       j T T S                       ",
"                  ( -.-.b 6 g d y       j B B e     q d g i           w w w b >.>.N     8 l B S e                       ",
"                    } ~ U 1 d y y       g j j r     6 y y e           0 5 7 p  .-.N     y j l g                         ",
"                    m I m 6 e 9 r 1     e j g e     3 8 8 q         , 4 4 4 w W } b     d d j                           ",
"                    t b h w 6 8 9 6     e d y e     < 6 6 6         , < < , w I I p   8 y y r                           ",
"                    0 s p w < 8 6 7     q y y q     > 3 2 6         , , , , t h k     8 9 r 6                           ",
"                      r w w - 6 2 6 -   7 e 8 8     - > > <       % - * - , p r t   > 8 8 e                             ",
"                      w 5 5 = < 2 2 >   6 8 8 6     & ; ; >       # % % % 4 w w 0   < 6 7 6                             ",
"                      4 1 4 % > > > >   3 6 6 3     $ & & *       # # # % 4 4 5 1   < 2 6 <                             ",
"                      , , , % & > * > # > 2 2 <     # $ $ &       o o o - , , 1   & < > 2 -                             ",
"                      , - - %   * & & & ; > > >     o o o #       o o o - * - -   * > > >                               ",
"                      % % % #   & & & $ - ; - -     o o o o       X X o % % %     & * * -                               ",
"                      # # # @   # # # # & & & &     X X X X       X . X o # #   @ & & * &                               ",
"                      o o o o   o o o o # & $ $     X . X X     . . . X X o o   o # # &                                 ",
"                        X X X     o X o o # o #   . . . . .     . . . . . X X   o o + #                                 ",
"                        X . . .   X X X X o o o X . . . .       . . . . . . . X X X o o                                 ",
"                        . . . .   X X X X X X X X . . . .       . . . . . . . X X X X                                   ",
"                        . . . . . . . . . X X X X . . . .       . . . . . . . . . X X                                   ",
"                        . . . . . . . . . . . . . . . . .     . . . . . . . . . . .                                     ",
"                        . . . . . . . . . . . . . . . . .     . . . . . . . . . . .                                     ",
"                          . . .     . . . . . . . . . . .     . . . . . . . . . .                                       ",
"                          . . .       . .   . . .   . . .       . . .       . . .                                       ",
"                                                                                                                        ",
"                                                                                                                        ",
"                                                                                                                        ",
"                                                                                                                        ",
"                                                                                                                        ",
"                                                                                                                        ",
"                                                                                                                        ",
"                                                                                                                        ",
"                                                                                                                        "
};
