/* XPM */
static char *Plant3_00050[] = {
/* columns rows colors chars-per-pixel */
"60 60 174 2 ",
"   c None",
".  c #000200",
"X  c #040B03",
"o  c #061105",
"O  c #091406",
"+  c #091807",
"@  c #0A1708",
"#  c #0C1C0A",
"$  c #101F0A",
"%  c #0E230D",
"&  c #12240D",
"*  c #142B0F",
"=  c #182E0F",
"-  c #0F2810",
";  c #142B11",
":  c #182E11",
">  c #143314",
",  c #1B3414",
"<  c #173916",
"1  c #1D3A16",
"2  c #1B3D19",
"3  c #213E17",
"4  c #213E19",
"5  c #1B421A",
"6  c #1F491E",
"7  c #24441A",
"8  c #26491E",
"9  c #294B1D",
"0  c #2C511E",
"q  c #214E21",
"w  c #245322",
"e  c #2C5321",
"r  c #265A26",
"t  c #2A5B25",
"y  c #285D29",
"u  c #315623",
"i  c #315B25",
"p  c #345E29",
"a  c #2A6027",
"s  c #2B632A",
"d  c #2E692D",
"f  c #376327",
"g  c #386427",
"h  c #356429",
"j  c #38672C",
"k  c #306D2E",
"l  c #3B6B2B",
"z  c #31702F",
"x  c #3D722D",
"c  c #3F6435",
"v  c #336C33",
"b  c #3D6C31",
"n  c #386E38",
"m  c #357534",
"M  c #3E7431",
"N  c #377C35",
"B  c #387F36",
"V  c #39773A",
"C  c #397C3A",
"Z  c #40722D",
"A  c #406536",
"S  c #426639",
"D  c #446C3A",
"F  c #407432",
"G  c #437A33",
"H  c #487F37",
"J  c #47763A",
"K  c #477C38",
"L  c #487A3B",
"P  c #416F41",
"I  c #467746",
"U  c #517C46",
"Y  c #3B833A",
"T  c #3F8A3E",
"R  c #468036",
"E  c #4A8536",
"W  c #44823C",
"Q  c #4D8439",
"!  c #418E3E",
"~  c #4E8C3C",
"^  c #508F3C",
"/  c #52933D",
"(  c #448544",
")  c #4E8241",
"_  c #428F41",
"`  c #4C834D",
"'  c #4A8C49",
"]  c #518C42",
"[  c #5D8F4E",
"{  c #469545",
"}  c #479846",
"|  c #499D47",
" . c #4C944C",
".. c #4F9E4E",
"X. c #569542",
"o. c #569A42",
"O. c #5B9D46",
"+. c #5A944A",
"@. c #5D9D4B",
"#. c #528D53",
"$. c #5E8C52",
"%. c #559455",
"&. c #549A54",
"*. c #589758",
"=. c #5B9C5C",
"-. c #609352",
";. c #639C53",
":. c #669959",
">. c #689D5A",
",. c #4DA24B",
"<. c #5CA346",
"1. c #50A64E",
"2. c #5EA149",
"3. c #55A755",
"4. c #54AC52",
"5. c #5CA25C",
"6. c #5BA95B",
"7. c #58B157",
"8. c #5BB35A",
"9. c #61A74B",
"0. c #62AB4C",
"q. c #64A354",
"w. c #67AD51",
"e. c #69AD53",
"r. c #6BA45C",
"t. c #6CAC5A",
"y. c #66B251",
"u. c #6BB455",
"i. c #6DB359",
"p. c #61BA5F",
"a. c #6EBC59",
"s. c #73BB5E",
"d. c #6FA560",
"f. c #60AE60",
"g. c #71AC61",
"h. c #62B462",
"j. c #64BC63",
"k. c #68BA67",
"l. c #6CBB6C",
"z. c #76B564",
"x. c #76BA62",
"c. c #78BB64",
"v. c #79B469",
"b. c #7BBA6A",
"n. c #70BF70",
"m. c #73C15E",
"M. c #68C167",
"N. c #6EC46D",
"B. c #7BC167",
"V. c #7AC965",
"C. c #71C76F",
"Z. c #7EC36A",
"A. c #7DCC69",
"S. c #73C772",
"D. c #75C775",
"F. c #71C271",
"G. c #72C872",
"H. c #74C973",
"J. c #77CB77",
"K. c #76C876",
"L. c #77CC77",
"P. c #78CD78",
"I. c #79CE79",
"U. c #7AD17A",
"Y. c #80C36C",
"T. c #82C66D",
"R. c #83D26D",
"E. c #84C472",
"W. c #87C874",
"Q. c #86C972",
"!. c #88CA75",
"~. c #8BCE78",
"^. c #89DB74",
"/. c #8ED27B",
/* pixels */
"                                                                                                                        ",
"                                                                                                                        ",
"                                                                                                                        ",
"                                                                                                                        ",
"                                                                                                                        ",
"                                                                                                                        ",
"                                                                                                                        ",
"                                                                                                                        ",
"                                                                                                                        ",
"                                                                                                                        ",
"                                                                                                                        ",
"                                                                                                                        ",
"                                                                                          I #.                          ",
"                                                                                        ` F.H.P                         ",
"                                            A q.D                       r.$.            n.U.l.                          ",
"                                        S   t.^.q.                    :./.v.          5.I.H.*.                          ",
"                                      -.g.c A.R.q.                    v./.v.          l.H.l.                            ",
"                                      >.Y.[ V.A.+.                    E.~.d.        %.H.H.%.                            ",
"                                      r.Z.>.s.V.)                   >.Q.Q.$.        f.C.l.                              ",
"                                      t.B.>.i.m.                    b.Q.b.          j.N.f.                              ",
"                          =.          i.x.@.u.a.                  >.Y.Y.>.        ( j.M.&.                              ",
"                        5.U.=.      L i.i.+.w.u.                D x.Z.c.           .p.j.(                               ",
"                        l.I.=.      ] w.w.X.0.y.F               >.x.c.>.          ..8.8.n                               ",
"                        F.H.%.      X.2.@.] 9.0.F             J i.i.t.            ,.4.3.                          U     ",
"                        N.H.%.    p X.X.~ R <.<.G             +.e.e.]           n ,.1.{ ` l.#.                  z.r.    ",
"                        l.C.&.    x ~ ^ M b o.o.G           b @.2.@.            m { { &.H.U.*.                t.Y.[     ",
"                        h.N.6.    G E E p j / / R           K X.X.K             C T R l.I.l.                q.B.x.S     ",
"                        3.j.8.    G G G   f ~ ~ R           H Q ~               N N ' H.F.%.            b q.s.x.+.      ",
"                         .8.8.C   x x l   p E E G         p G G F             y m k 5.N.k.            b 2.w.u.>.        ",
"                        V 4.4.( 7 l l f     G G F         p l F p             a a a 8.M.6.          F o.O.9.@.          ",
"                          } | T 7 f f t     F Z l         p f l 8           q a t n 8.8. .        M ~ ^ X.~             ",
"                          Y ! Y 7 p p e     l l j         u u f             w w w m 4.7.(       l R R ~ G               ",
"                          m N m 7 e 0 9   8 l f f       4 e 9 e           2 6 6 q C ,.,.n     p x x G f                 ",
"                          d k d 7 9 9 8   8 f p p       2 9 9 9         - 5 2 5 6 Y ! _     e f f x p                   ",
"                          a a t 2 7 7 8   9 p u e       2 4 7 4         > < > 2 q N B m   4 p p f t                     ",
"                          r w w , 7 3 7   8 e 9 9       , , 2 ,       # > ; > 2 a d z w   9 0 p e                       ",
"                          q 6 6 ; 3 3 3 & 7 9 9 7       ; : , ;       % % % ; 6 r t t   2 9 9 e                         ",
"                        > 5 2 2 % , , 2 ; 7 7 7 2       & & ; &       # # % > 6 8 w 2   7 7 8 7                         ",
"                        ; > > >   , * : ; 2 2 4 ,     @ & $ & #     o # + # < 2 5 5   , 3 3 7                           ",
"                        - ; * ;   & & & * , , , ;     O # + #       X o o % > > <     , , 2 ,                           ",
"                        # % % #   # & & & ; * : &     O O O O       X X o % % * %   & * = , &                           ",
"                        @ # # @   # # # # & & & #     X X X X       X X o + # #   @ & & * ;                             ",
"                        X o o o   O O O O # $ & #   . X . X       . . . X X o o   # # $ * #                             ",
"                        X X X X   X o X o O O # O   . . . .       . . . X X X   X O O # #                               ",
"                          . . .   X X X X o O O O   . . . .       . . . . . X . X o O O                                 ",
"                          . . . . . X X X X X X X . . . . .     . . . . . . . X X X X X                                 ",
"                          . . . . . . . . X X X X . . . . .     . . . . . . . X . X X                                   ",
"                          . . . . . . . . . . . . . . . . .     . . . . . . . . . . .                                   ",
"                          . . . . . . . . . . . . . . . . .     . . . . . . . . . .                                     ",
"                          . . . .   . . . . . . . . . . .       . . . . . . . . . .                                     ",
"                          . . .       . .   . . .   . . .       . . .       . . .                                       ",
"                                                                                                                        ",
"                                                                                                                        ",
"                                                                                                                        ",
"                                                                                                                        ",
"                                                                                                                        ",
"                                                                                                                        ",
"                                                                                                                        ",
"                                                                                                                        ",
"                                                                                                                        "
};
