/* XPM */
static char *Plant3_00080[] = {
/* columns rows colors chars-per-pixel */
"60 60 172 2 ",
"   c None",
".  c #000200",
"X  c #040B03",
"o  c #061205",
"O  c #091406",
"+  c #0A1708",
"@  c #0C1C09",
"#  c #101F0B",
"$  c #0D230D",
"%  c #12240D",
"&  c #142A0F",
"*  c #132B11",
"=  c #182E12",
"-  c #153414",
";  c #1B3413",
":  c #173916",
">  c #1E3A16",
",  c #1B3D19",
"<  c #203D16",
"1  c #213E19",
"2  c #1C441C",
"3  c #1F4A1D",
"4  c #234017",
"5  c #24441B",
"6  c #28471C",
"7  c #254A1E",
"8  c #294C1E",
"9  c #2D531F",
"0  c #1F4920",
"q  c #214E21",
"w  c #2A4E21",
"e  c #245423",
"r  c #2D5422",
"t  c #275A25",
"y  c #2F5925",
"u  c #2B5F28",
"i  c #305523",
"p  c #325C25",
"a  c #345D29",
"s  c #2B6329",
"d  c #2F6C2E",
"f  c #366427",
"g  c #386627",
"h  c #36632A",
"j  c #39662D",
"k  c #306E2E",
"l  c #3A6B2C",
"z  c #32722F",
"x  c #3E722D",
"c  c #3E6F32",
"v  c #337433",
"b  c #3E7331",
"n  c #357935",
"m  c #387F36",
"M  c #3A723A",
"N  c #3B7D3A",
"B  c #40742E",
"V  c #406637",
"C  c #466B3C",
"Z  c #427733",
"A  c #447B34",
"S  c #45733A",
"D  c #477B3A",
"F  c #4A7B3D",
"G  c #3F6D40",
"H  c #467746",
"J  c #4C7640",
"K  c #437B43",
"L  c #4E7942",
"P  c #517C46",
"I  c #547E49",
"U  c #3A8237",
"Y  c #3D843D",
"T  c #3D883B",
"R  c #478134",
"E  c #4A8536",
"W  c #4B823B",
"Q  c #418D3E",
"!  c #4E8B3B",
"~  c #528D3E",
"^  c #4F913E",
"/  c #51913D",
"(  c #458544",
")  c #4F8441",
"_  c #428B42",
"`  c #4F8841",
"'  c #4B844C",
"]  c #4D8E4D",
"[  c #508642",
"{  c #528E42",
"}  c #568449",
"|  c #58844D",
" . c #568A48",
".. c #449442",
"X. c #4B934B",
"o. c #4C9C4B",
"O. c #549341",
"+. c #569942",
"@. c #5B9D47",
"#. c #5C924D",
"$. c #5D9D4C",
"%. c #528D52",
"&. c #5E8D52",
"*. c #549354",
"=. c #5F9550",
"-. c #559D55",
";. c #5C9F5D",
":. c #659657",
">. c #649D55",
",. c #669858",
"<. c #689F59",
"1. c #4DA24C",
"2. c #5CA346",
"3. c #5EA34A",
"4. c #51A750",
"5. c #55AD53",
"6. c #5BA45B",
"7. c #57B056",
"8. c #5CB45B",
"9. c #5FB85E",
"0. c #61A34E",
"q. c #63AA4D",
"w. c #64A454",
"e. c #65AB52",
"r. c #69AE55",
"t. c #69A559",
"y. c #6CAB5B",
"u. c #66B151",
"i. c #6CB157",
"p. c #6DBA56",
"a. c #6CB558",
"s. c #61BA5F",
"d. c #71B55D",
"f. c #72BA5D",
"g. c #61A661",
"h. c #65AD65",
"j. c #70A761",
"k. c #70AC60",
"l. c #67B167",
"z. c #64BB63",
"x. c #67B168",
"c. c #6BBB6A",
"v. c #74B262",
"b. c #76BC62",
"n. c #79BF65",
"m. c #7BBB69",
"M. c #73C25C",
"N. c #6DC36C",
"B. c #76C261",
"V. c #78C663",
"C. c #7CCC66",
"Z. c #7EC36A",
"A. c #72C472",
"S. c #74C973",
"D. c #75CA75",
"F. c #77CC77",
"G. c #72C871",
"H. c #79CF79",
"J. c #7AD17A",
"K. c #7BD27B",
"L. c #80BF6F",
"P. c #81C66D",
"I. c #80D06A",
"U. c #84D36E",
"Y. c #82C470",
"T. c #84C473",
"R. c #86C774",
"E. c #87C974",
"W. c #86CA73",
"Q. c #8BCE79",
"!. c #89DA74",
"~. c #8DD17A",
/* pixels */
"                                                                                                                        ",
"                                                                                                                        ",
"                                                                                                                        ",
"                                                                                                                        ",
"                                                                                                                        ",
"                                                                                                                        ",
"                                                                                                                        ",
"                                                                                                                        ",
"                                                                                                                        ",
"                                                                                                                        ",
"                                                                              H '                                       ",
"                                                                            G G.G.                                      ",
"                                                                            6.K.G.                                      ",
"                                                              &.j.          c.H.x.                                      ",
"                                      V >.                    L.~.|         G.F.;.                                      ",
"                            C         t.!.w.                  T.Q.:.      %.F.F.%.                                      ",
"                            k.>.      b.I.y.                I T.Q.,.      *.F.G.'                                       ",
"                            t.P.P     V.I.e.                &.E.E.&.      -.N.N.K                                       ",
"                            =.Z.t.    B.C.w.                <.E.T.I       -.N.N.K                                       ",
"                             .n.d.    f.V.e.                v.P.m.        -.z.z.K                                       ",
"                            ` f.d.F   a.M.e.              J n.Z.y.        o.s.9.m                       P               ",
"                %.G.'       F a.i.[   e.p.u.              #.n.n.#.        X.9.9.m                     J m.P             ",
"                h.K.g.      D e.e.`   @.u.u.c             e.d.d.S         _ 5.5.M                     >.P.}             ",
"                l.H.h.      A 3.3.W   { q.q.A           S r.i.0.          Y 1.o.] G.g.                b.Z.L             ",
"                g.F.c.      Z +.+.Z   A 2.2.!           ` q.q.W           Y .._ c.K.h.              >.b.d.              ",
"                *.G.N.'     b / ! l   j +.+.^           { @.@.j           m T ( G.F.*.            W a.f.@.              ",
"                  c.N.6.    b E E h     ! / /           ~ ~ !             n n ] F.N.            j 3.e.r.S               ",
"                  6.z.z.M   l R A p     A ! ! h       a W W A             n d X.N.c.            / @.0.{                 ",
"                  ( 9.9.o.  h B x y     b E E l       a Z A j           q d u X.N.z.          A / O.O.                  ",
"                    1.5.4.  p l l r     h A A l       a l l p           e s e X.s.9.        h ! E ! h                   ",
"                    m 1.o.n 8 g g r     p Z B j       i p j w           e e e _ 7.5.        A A R l                     ",
"                      _ Q m 5 p p r     w x l h       r i p 7         - e 7 q m 1.1.      g x x l                       ",
"                      n m n 5 r 9 r       l g h       8 8 r 5         , 2 2 2 n ....    7 g g l                         ",
"                      s z k 5 8 8 r     5 h p p       5 5 8 ,         , : , , n U m     r p g r                         ",
"                      e s s 2 5 5 8 >   5 p i r       1 < 5 ;       = - - : , n z d   , r r p                           ",
"                      0 t e 2 > 5 5 ,   1 r 8 w       ; ; > =       = = = - q s s e   5 8 9 7                           ",
"                      2 q 3 2 = < > >   , 8 6 5       = = ; =       $ $ $ - e e e     5 5 8 >                           ",
"                      - 2 , , % > ; ; % ; 5 5 5       % % & %       @ @ @ : 2 2 2   ; 5 4 5                             ",
"                      - : - -   ; & = & = 1 > 1       # # % @     o o o $ : - 2 -   ; > < >                             ",
"                      * = & =   % & % % = ; ; ;     O @ O @       X o o $ = = -   % ; ; > =                             ",
"                      @ $ $ $   @ % @ % % = = =     X O X O       X X X @ @ $ @   % & & ;                               ",
"                      + @ @ @   O @ @ @ @ % % %     X X X X       X X X o o @     % % % &                               ",
"                        o o o     O O O + % # #     X X X X       X X X X X X   O @ @ % @                               ",
"                        X X X X   X X X O @ O @     X X X X     X X X X X X X   O O O @                                 ",
"                        X X X X   X X X X o X O X X X X X X     X X X X X X X X X X O O                                 ",
"                        X X X X   X X X X X X X X X X X X X     X X X X X X X X X X X                                   ",
"                        X X X X X X X X X X X X X X X X X       X X X X X X X X X X X                                   ",
"                        X X X X X X X X X X X X X X X X X       X X X X X X X X X X                                     ",
"                          X X X X X X X X X X X X X X X X     X X X X X X X X X X X                                     ",
"                          X X X X   X X X X X X X X X X X     X X X X X X X X X X                                       ",
"                          X X X       X X   X X X   X X X       X X X       X X X                                       ",
"                                                                                                                        ",
"                                                                                                                        ",
"                                                                                                                        ",
"                                                                                                                        ",
"                                                                                                                        ",
"                                                                                                                        ",
"                                                                                                                        ",
"                                                                                                                        ",
"                                                                                                                        "
};
