/* XPM */
static char *Plant3_00060[] = {
/* columns rows colors chars-per-pixel */
"60 60 169 2 ",
"   c None",
".  c #000200",
"X  c #040B03",
"o  c #061105",
"O  c #091406",
"+  c #0A1807",
"@  c #091708",
"#  c #0C1B09",
"$  c #101F0B",
"%  c #0D240D",
"&  c #12230D",
"*  c #152A0F",
"=  c #122710",
"-  c #132C11",
";  c #182E12",
":  c #153414",
">  c #1B3413",
",  c #173B16",
"<  c #1D3A16",
"1  c #173818",
"2  c #1A3D18",
"3  c #203C16",
"4  c #213E19",
"5  c #1C441B",
"6  c #1F4A1D",
"7  c #24431A",
"8  c #254A1D",
"9  c #294B1E",
"0  c #22501F",
"q  c #2B511E",
"w  c #1F4A20",
"e  c #2C4625",
"r  c #214C20",
"t  c #294E20",
"y  c #255523",
"u  c #2D5322",
"i  c #275B25",
"p  c #2A5C26",
"a  c #2B5E2A",
"s  c #325723",
"d  c #325C24",
"f  c #325C29",
"g  c #2B632B",
"h  c #2E692C",
"j  c #346126",
"k  c #36632A",
"l  c #396429",
"z  c #306D2E",
"x  c #3B6C2C",
"c  c #3E732E",
"v  c #2F6B30",
"b  c #336B33",
"n  c #3E6E30",
"m  c #337233",
"M  c #3E7131",
"N  c #367B34",
"B  c #3D7D3C",
"V  c #41752F",
"C  c #45693C",
"Z  c #427532",
"A  c #457C33",
"S  c #47743B",
"D  c #49703F",
"F  c #467A39",
"G  c #4A7A3D",
"H  c #406D40",
"J  c #4C7A41",
"K  c #517C46",
"L  c #547E48",
"P  c #3E8A3C",
"I  c #498536",
"U  c #4B843B",
"Y  c #418D3E",
"T  c #4D8A3A",
"R  c #508D3F",
"E  c #4F903C",
"W  c #51923E",
"Q  c #448343",
"!  c #448B44",
"~  c #4B844C",
"^  c #478A48",
"/  c #4B8A4B",
"(  c #518444",
")  c #538C44",
"_  c #5A884E",
"`  c #459443",
"'  c #489647",
"]  c #469845",
"[  c #499D47",
"{  c #4A934A",
"}  c #4B9D4A",
"|  c #549342",
" . c #559843",
".. c #599E45",
"X. c #5B934D",
"o. c #5D9B4B",
"O. c #4F8850",
"+. c #528E52",
"@. c #569556",
"#. c #549D54",
"$. c #579658",
"%. c #5B9E5B",
"&. c #639C53",
"*. c #679B59",
"=. c #689F59",
"-. c #4CA04A",
";. c #5BA045",
":. c #5EA249",
">. c #53A553",
",. c #54AB52",
"<. c #5CA15C",
"1. c #5EAC5E",
"2. c #58B257",
"3. c #5DB55C",
"4. c #5EB85D",
"5. c #62A64D",
"6. c #63AB4C",
"7. c #66A455",
"8. c #66AB52",
"9. c #66A358",
"0. c #6CA25D",
"q. c #6DAB5C",
"w. c #67B251",
"e. c #6CB457",
"r. c #6DBB56",
"t. c #60B65F",
"y. c #6EB25A",
"u. c #61BA5F",
"i. c #70B25E",
"p. c #73BC5E",
"a. c #64AC64",
"s. c #6FAB60",
"d. c #70A761",
"f. c #73AF63",
"g. c #62B061",
"h. c #65BD64",
"j. c #68B967",
"k. c #6AB66A",
"l. c #6CBB6C",
"z. c #76BC62",
"x. c #79BC65",
"c. c #78B268",
"v. c #7CBA6A",
"b. c #72C15B",
"n. c #6CC36B",
"m. c #76C561",
"M. c #7AC266",
"N. c #7BCB65",
"B. c #70C66F",
"V. c #7DC26A",
"C. c #7FD06A",
"Z. c #71C471",
"A. c #77CC77",
"S. c #75CA74",
"D. c #78CD77",
"F. c #78CD78",
"G. c #79CE79",
"H. c #7CD37C",
"J. c #80BF6F",
"K. c #81C56D",
"L. c #81C66D",
"P. c #84D36E",
"I. c #86C673",
"U. c #85C971",
"Y. c #88CA74",
"T. c #8ACD78",
"R. c #89DA73",
"E. c #8FD37C",
"W. c #8DD07A",
/* pixels */
"                                                                                                                        ",
"                                                                                                                        ",
"                                                                                                                        ",
"                                                                                                                        ",
"                                                                                                                        ",
"                                                                                                                        ",
"                                                                                                                        ",
"                                                                                                                        ",
"                                                                                                                        ",
"                                                                                                                        ",
"                                                                                                                        ",
"                                                                                                                        ",
"                                                                                      H l.a.                            ",
"                                                                                      k.H.l.                            ",
"                                            9.J                     K J.*.          $.F.F.%.                            ",
"                                    D     &.R.y.                    d.W.c.          k.F.l.                              ",
"                                    s.=.e z.P.y.                    v.W.f.        ~ Z.S.<.                              ",
"                                    f.v.F M.C.7.                  L I.T.0.        <.S.Z.~                               ",
"                                    q.V.X.m.N.o.                  *.Y.I._         g.n.j.                                ",
"                                    y.M.&.p.m.X.                  x.U.v.          h.n.1.                                ",
"                        O.+.        y.z.o.e.b.|                 X.L.L.=.        Q h.h.#.                                ",
"                        Z.Z.      F e.y.o.w.r.|                 i.M.x.J         ! 4.u.^                                 ",
"                      @.F.Z.      U 8.8.| 6.w. .              ) p.z.7.          { 2.3.B                         C       ",
"                      <.D.l.      R :.:.F :.6. .              8.y.y.G           ' ,.,.b ~                     q.0.      ",
"                      %.S.l.      W | | f ..;. .            U 8.8.o.            ] -.{ a.F.@.                X.L.&.      ",
"                      @.B.n.    f T T U 8 | |  .            | o.:.Z           g ] Y #.F.S.O.              ( z.V.K       ",
"                      / n.n./   k I I c   T W W           k | | R             v P B l.S.a.              G y.x.q.        ",
"                        t.h.#.  x A A k   A T E k         n U T M             m N Q Z.Z.+.            F 8.y.y.J         ",
"                        >.3.,.  k c c u   M I I k         M Z A u           5 m h { n.l.            A :.5.8.)           ",
"                        ! ,.,.a j x x 9   x A A k         x x x             y h p #.h.3.          Z W | :.)             ",
"                        m [ [ b d j j     k Z V k       9 k l k             i i p >.3.>.        x T T W A               ",
"                          Y Y b u d d     d x x d       9 s d u           5 y 0 a -.,.[       j A A I x                 ",
"                          N N z 9 q u <   u x l d       8 9 u 9           6 5 6 a ] -.!     t x x V k                   ",
"                          z z g 9 9 q 4   u j d u       8 8 9 4         : 5 , 5 g P Y b     d j x j                     ",
"                          g p y 8 8 9 8   u d s 9       4 3 8 <         : : , 5 h N N     q d d d                       ",
"                          i y r < 8 8 4   t q u 8       < < 3 ;       & : - : w h h g   < q q d 4                       ",
"                        1 9 6 5 - 3 < < $ 9 9 9 4     $ ; ; < &       % % % : y y p r   8 9 q 9                         ",
"                        : 5 , , & < < < & 8 8 8 <     @ & & - $     o @ @ % , 6 9 r   < 8 8 9                           ",
"                        : : : : @ < * ; - 4 3 4 ;     @ $ $ &       o + @ = < , 5 :   < 3 8 4                           ",
"                        - - * %   * & & & < < < =     @ + @ @       o o o - - : :   & < < < -                           ",
"                        % % % @   & & & & - * ; &     O o O O       X X @ % % -     * * ; <                             ",
"                        @ @ @ @   @ @ @ @ & & & @   X X X X X       X X o O @ @   @ & & * *                             ",
"                        o o o o   O O O O @ $ & @   . X . X       . . X X o o o   @ @ & &                               ",
"                        X X X X   X o X o O O @ O   . . . .       . . . X X X   o O O @ @                               ",
"                        . . . .   X X X X O O O O   . . . .       . . . . . X . X o O O                                 ",
"                          . . . . X X X X X X X X . . . . .     . . . . . . . X X X X X                                 ",
"                          . . . . . . . . X X X X . . . . .     . . . . . . . X . X X                                   ",
"                          . . . . . . . . . . . . . . . . .     . . . . . . . . . . .                                   ",
"                          . . . . . . . . . . . . . . . .       . . . . . . . . . .                                     ",
"                          . . . .   . . . . . . . . . . .       . . . . . . . . .                                       ",
"                          . . .       . .   . . .   . . .       . . .       . . .                                       ",
"                                                                                                                        ",
"                                                                                                                        ",
"                                                                                                                        ",
"                                                                                                                        ",
"                                                                                                                        ",
"                                                                                                                        ",
"                                                                                                                        ",
"                                                                                                                        ",
"                                                                                                                        "
};
