/* XPM */
static char *Plant3_00020[] = {
/* columns rows colors chars-per-pixel */
"60 60 172 2 ",
"   c None",
".  c #000200",
"X  c #040B03",
"o  c #061205",
"O  c #091406",
"+  c #0B1708",
"@  c #0C1C09",
"#  c #101E0A",
"$  c #0D230D",
"%  c #12230D",
"&  c #152A0F",
"*  c #112610",
"=  c #132C11",
"-  c #182E12",
";  c #153414",
":  c #1B3413",
">  c #173A16",
",  c #1D3A16",
"<  c #193D1A",
"1  c #213E17",
"2  c #213E19",
"3  c #1B431B",
"4  c #1F491E",
"5  c #234017",
"6  c #24431A",
"7  c #264A1C",
"8  c #294C1E",
"9  c #2B501F",
"0  c #224F23",
"q  c #2B4F21",
"w  c #245422",
"e  c #2D5322",
"r  c #275A26",
"t  c #2C5A25",
"y  c #2B5C2B",
"u  c #315622",
"i  c #325C25",
"p  c #335E28",
"a  c #2C642B",
"s  c #2E692C",
"d  c #356226",
"f  c #36632A",
"g  c #38652C",
"h  c #306E2E",
"j  c #3A6A2B",
"k  c #3E732E",
"l  c #366736",
"z  c #3F6036",
"x  c #306E30",
"c  c #3E6A33",
"v  c #3B6C3B",
"b  c #347534",
"n  c #3F7330",
"m  c #367935",
"M  c #387D36",
"N  c #377338",
"B  c #397339",
"V  c #3C7D3D",
"C  c #41752E",
"Z  c #426E37",
"A  c #44673B",
"S  c #44693B",
"D  c #496F3F",
"F  c #427533",
"G  c #457C33",
"H  c #457439",
"J  c #477A3A",
"K  c #457D45",
"L  c #4F7C42",
"P  c #497C49",
"I  c #527C46",
"U  c #3A8339",
"Y  c #3E8A3C",
"T  c #458034",
"R  c #498436",
"E  c #4A8338",
"W  c #418E3F",
"Q  c #4D8B3B",
"!  c #538F3F",
"~  c #51913E",
"^  c #478147",
"/  c #438D44",
"(  c #4E864E",
")  c #4C894C",
"_  c #548646",
"`  c #548C46",
"'  c #558349",
"]  c #5A874F",
"[  c #568849",
"{  c #5A8E4D",
"}  c #459444",
"|  c #479946",
" . c #4C934C",
".. c #4C9D4B",
"X. c #549342",
"o. c #569A43",
"O. c #599C45",
"+. c #509D4F",
"@. c #5B9C49",
"#. c #4F8850",
"$. c #518D52",
"%. c #569356",
"&. c #5F9251",
"*. c #5A9B5A",
"=. c #608F53",
"-. c #639D54",
";. c #689D5A",
":. c #4DA14C",
">. c #5BA045",
",. c #5EA249",
"<. c #51A94F",
"1. c #56A455",
"2. c #54AC53",
"3. c #5DA15D",
"4. c #5AAB5A",
"5. c #57B055",
"6. c #5CB55B",
"7. c #63AA4E",
"8. c #64A553",
"9. c #66AA50",
"0. c #69AF54",
"q. c #68A458",
"w. c #6EAB5D",
"e. c #67B250",
"r. c #6BB256",
"t. c #6DBB55",
"y. c #60B35F",
"u. c #6DB35A",
"i. c #71B55E",
"p. c #73BB5E",
"a. c #61A761",
"s. c #63AC63",
"d. c #6FAA60",
"f. c #64B364",
"g. c #64BC63",
"h. c #6AB66A",
"j. c #6BBA6B",
"k. c #76B465",
"l. c #75BB62",
"z. c #79BD65",
"x. c #7DBC6C",
"c. c #73C25D",
"v. c #68C167",
"b. c #6CC36B",
"n. c #76C361",
"m. c #7CCC65",
"M. c #7EC36B",
"N. c #71C471",
"B. c #74CA73",
"V. c #75C875",
"C. c #76CA76",
"Z. c #76CA75",
"A. c #77CD77",
"S. c #73C972",
"D. c #78CD78",
"F. c #79CE78",
"G. c #7ACF79",
"H. c #7AD07A",
"J. c #80C56B",
"K. c #81C76E",
"L. c #81C66D",
"P. c #80D06A",
"I. c #84D36E",
"U. c #85C573",
"Y. c #86C673",
"T. c #85C870",
"R. c #88CB74",
"E. c #89CB76",
"W. c #8ACC77",
"Q. c #8ACE78",
"!. c #8CCF79",
"~. c #87D872",
/* pixels */
"                                                                                                                        ",
"                                                                                                                        ",
"                                                                                                                        ",
"                                                                                                                        ",
"                                                                                                                        ",
"                                                                                                                        ",
"                                                                                                                        ",
"                                                                                                                        ",
"                                                                                                                        ",
"                                                                                                                        ",
"                                                                                                                        ",
"                                                                                  %.j.v                                 ",
"                                                                                P A.H.(                                 ",
"                                                                  A ]           s.F.S.                                  ",
"                                            -.'                   k.Q.I         S.F.s.                                  ",
"                                A D       { ~.l.                  Y.Q.=.      $.A.A.%.                                  ",
"                                &.z.z     u.I.l.                ] R.R.=.      3.A.S.K                                   ",
"                                { K.&.    n.I.u.                ;.R.Y.'       s.S.j.                                    ",
"                                [ M.w.    n.m.8.                k.R.x.        f.b.f.                                    ",
"                                _ z.i.    c.n.,.              L M.T.d.        f.v.4.                                    ",
"                    P           _ p.i.  J p.c.@.              -.K.M.{       v 6.g.1.                                    ",
"                  *.A.$.        _ u.r.H F r.t.@.              i.z.k.        B 6.6.+.                        S           ",
"                  h.H.3.        X.9.7.c   7.e.@.            _ p.p.-.        N 2.5. .                        k.I         ",
"                  h.F.a.        X.,.@.    ,.7.O.            8.r.u.H         b :.<./                       8.K.I         ",
"                  f.A.f.        ~ X.~     o.>.o.          H 9.9.@.          b | ..V   *.A.3.            _ z.z.S         ",
"                  3.A.j.      p Q Q R     ~ o.o.          Q @.,.J           m W } a #.A.F.*.          Z u.z.q.          ",
"                  ) b.b. .    g Q R n     R ~ ~ g         Q ! X.            m U U y f.A.j.          g 8.u.i.L           ",
"                    y.g.4.    g T J j     J Q ~ j       p E E J             b b b l b.A.*.          o.7.0.@.            ",
"                    ..6.6.V   p k k p     j R R j       g F J g           0 h s a K b.b.^         Q O.,.@.              ",
"                    B 2.2.}   t j j t     g J J g       g j n e           r a a w  .g.g.        T Q ~ X.g               ",
"                      } ..|   e d d e     p F C g       p p j 6           r w t 3 ..6.4.      k R R Q g                 ",
"                      m W W y 7 p p 9     t j j p       u u p           3 w 7 w < ..2.:.    p C C J p                   ",
"                      a U m a 6 9 9 8     e j g p       q 8 e           3 3 4 3 0 } :./   6 j j k p                     ",
"                        b h a , 8 8 8     e d p e     , 6 6 8         - 3 > 3 - a Y W b   t d d d                       ",
"                        a t r - 6 6 7     e p u 8     , 2 1 6         ; ; ; > * x m M 0 6 e p d                         ",
"                        r w w - 6 1 6 ,   q 9 e 6     - < , <         - - ; - 3 s s s - 7 8 e 7                         ",
"                        0 4 4   < < 1 ,   8 8 8 2     - - - ,       @ $ $ - * w w t 4 , 7 7 9                           ",
"                        3 < 3   , , , , @ 6 6 6 ,     % % % -       @ @ @ $ > 4 7 0 * 1 5 6 6                           ",
"                      - > ; ;   & , & - % 2 < 2 -     @ # % %       O o @ $ < > 3 ; % < < 6 -                           ",
"                      $ - & -   @ & % % % , , , *     @ O @ +       o o o - - ; ;   - , , <                             ",
"                        $ $ $     % @ % % - & - %   X O o O X     X X X + $ $ - $ @ & & , -                             ",
"                        @ @ @     @ @ @ @ % % % @   X X X X       . X X o O @ @   @ % % - @                             ",
"                        o o o X   O O O O # # % +   X X X X       . . . X X o o   @ @ % %                               ",
"                        X X X X   o o X o + O @ O   . . . .       . . . X X X   O O O @ +                               ",
"                        . . . .   X X X X O O O O . . . . .     . . . . . . X X X X O O                                 ",
"                        . . . .   X X X X X X X X . . . . .     . . . . . . . X X X X X                                 ",
"                        . . . . . . . . . X X X X . . . . .     . . . . . . . . . X X                                   ",
"                        . . . . . . . . . . . . . . . . . .     . . . . . . . . . .                                     ",
"                          . . . . . . . . . . . . . . . .     . . . . . . . . . . .                                     ",
"                          . . . .   . . . . . . . . . . .     . . . . . . . . . .                                       ",
"                          . . .       . .   . . .   . . .       . . .       . . .                                       ",
"                                                                                                                        ",
"                                                                                                                        ",
"                                                                                                                        ",
"                                                                                                                        ",
"                                                                                                                        ",
"                                                                                                                        ",
"                                                                                                                        ",
"                                                                                                                        ",
"                                                                                                                        "
};
