/* XPM */
static char *Plant3_00070[] = {
/* columns rows colors chars-per-pixel */
"60 60 177 2 ",
"   c None",
".  c #000200",
"X  c #040B03",
"o  c #061206",
"O  c #091506",
"+  c #0B1708",
"@  c #0C1B09",
"#  c #101E0A",
"$  c #0D240D",
"%  c #0F280F",
"&  c #12230C",
"*  c #152A0F",
"=  c #142710",
"-  c #142B11",
";  c #182E11",
":  c #153314",
">  c #1B3414",
",  c #173916",
"<  c #1D3A16",
"1  c #173818",
"2  c #1A3C19",
"3  c #213E17",
"4  c #213E19",
"5  c #1B431B",
"6  c #1E491D",
"7  c #234017",
"8  c #24441A",
"9  c #28471C",
"0  c #254A1D",
"q  c #2A4D1E",
"w  c #2A501F",
"e  c #244E22",
"r  c #2B4F22",
"t  c #245423",
"y  c #2D5422",
"u  c #265925",
"i  c #2D5924",
"p  c #2A5F28",
"a  c #315622",
"s  c #325C25",
"d  c #345E2A",
"f  c #2C642A",
"g  c #2E6A2D",
"h  c #356327",
"j  c #36642A",
"k  c #38662A",
"l  c #316F2F",
"z  c #3A6B2B",
"x  c #3E722E",
"c  c #3C6432",
"v  c #326D32",
"b  c #3E6B33",
"n  c #396139",
"m  c #337432",
"M  c #3F7330",
"N  c #357833",
"B  c #387D36",
"V  c #397C39",
"C  c #40752E",
"Z  c #406935",
"A  c #426539",
"S  c #466C3C",
"D  c #496F3F",
"F  c #427234",
"G  c #447B33",
"H  c #47723B",
"J  c #4A763F",
"K  c #4B7F3E",
"L  c #4D7543",
"P  c #457E45",
"I  c #477A48",
"U  c #557F4A",
"Y  c #3B833A",
"T  c #3E8A3D",
"R  c #478237",
"E  c #488335",
"W  c #4A8837",
"Q  c #478238",
"!  c #4B8438",
"~  c #408D3D",
"^  c #4F8D3B",
"/  c #518E3F",
"(  c #41903F",
")  c #51913E",
"_  c #418140",
"`  c #448C44",
"'  c #488947",
"]  c #4B824B",
"[  c #4E8B4E",
"{  c #538147",
"}  c #538D44",
"|  c #59854D",
" . c #449243",
".. c #479945",
"X. c #4A934A",
"o. c #4B9C4A",
"O. c #569543",
"+. c #579A43",
"@. c #5A9C46",
"#. c #5C954C",
"$. c #5B9C49",
"%. c #518D52",
"&. c #529552",
"*. c #569D56",
"=. c #579658",
"-. c #5A9C5B",
";. c #629654",
":. c #639C54",
">. c #699F5A",
",. c #4DA14D",
"<. c #5BA246",
"1. c #50A64F",
"2. c #5EA34A",
"3. c #51A84F",
"4. c #54A754",
"5. c #58A557",
"6. c #55AB54",
"7. c #5FA35F",
"8. c #58AD58",
"9. c #5DB55C",
"0. c #61A54E",
"q. c #62A94D",
"w. c #63A552",
"e. c #66AB51",
"r. c #69AD56",
"t. c #67A458",
"y. c #69A15A",
"u. c #6CAC5B",
"i. c #70AF5F",
"p. c #67B150",
"a. c #6AB255",
"s. c #6DBA55",
"d. c #6EB35A",
"f. c #6FBC59",
"g. c #71B45E",
"h. c #74BA5F",
"j. c #61A761",
"k. c #63AB63",
"l. c #71AB61",
"z. c #67B567",
"x. c #64BC63",
"c. c #69B569",
"v. c #6CBA6C",
"b. c #73B261",
"n. c #78B467",
"m. c #74BA61",
"M. c #7ABF65",
"N. c #7CBC6B",
"B. c #73C25D",
"V. c #68C067",
"C. c #6CC36B",
"Z. c #77C661",
"A. c #79C265",
"S. c #7CCC66",
"D. c #70C66F",
"F. c #7EC26A",
"G. c #71C471",
"H. c #75CA74",
"J. c #76C976",
"K. c #77CB77",
"L. c #77CC76",
"P. c #72C971",
"I. c #79CE79",
"U. c #7AD07A",
"Y. c #7DD57D",
"T. c #80C46B",
"R. c #82C66E",
"E. c #80D06A",
"W. c #84D36E",
"Q. c #82C170",
"!. c #84C770",
"~. c #86C774",
"^. c #87C975",
"/. c #89CB77",
"(. c #88CB74",
"). c #8ACC77",
"_. c #89DA74",
/* pixels */
"                                                                                                                        ",
"                                                                                                                        ",
"                                                                                                                        ",
"                                                                                                                        ",
"                                                                                                                        ",
"                                                                                                                        ",
"                                                                                                                        ",
"                                                                                                                        ",
"                                                                                                                        ",
"                                                                                                                        ",
"                                                                                                                        ",
"                                                                                  n j.%.                                ",
"                                                                                  j.U.j.                                ",
"                                                                  L |           ] P.I.-.                                ",
"                                          t.J                     N.!.S         j.I.G.I                                 ",
"                                D A     :._.u.                  | (.(.U         v.P.c.                                  ",
"                                y.l.    m.E.d.                  ;.(.^.U       ] G.P.-.                                  ",
"                                :.R.{   A.E.r.                  l.(.!.        &.C.D.'                                   ",
"                                ;.F.:.c Z.S.w.                  N.(.n.        *.C.C.P                                   ",
"                                #.A.u.b B.Z.0.                | R.!.>.        5.V.x.                                    ",
"                      %.        #.h.u.b f.B.2.                u.R.F.{         4.x.9.                                    ",
"                    -.I.=.      $.d.r.c a.s.0.              H m.M.g.          4.9.8.                        L           ",
"                    c.U.7.      $.e.0.d q.p.q.              #.h.h.#.          1.6.4.                      { N.S         ",
"                    v.I.7.      +.2.@.r @.q.2.              e.a.r.Z           ,.1.X.%.j.                  i.F.S         ",
"                    c.P.j.      O.O.^   ) <.<.b           K e.e.O.          f .. .&.P.P.                #.F.b.          ",
"                    j.P.z.    j ^ ^ G   R +.+.G           } @.$.F           v ( Y z.I.c.              K g.M.:.          ",
"                    &.C.C.P   j W E x   z ) ) Q           / / /             v Y _ G.P.-.            F e.d.d.S           ",
"                    P x.x.o.  j G G j   d ^ ^ !         j ! ! G             N N ' D.C.P           j $.q.r.}             ",
"                      6.9.6.  j x x i     R E R         k F G j             l f X.C.x.          s ) @.2.O.              ",
"                      ` 6.6.v i z z y     G G G         j z M r           t f i X.x.9.          R ^ ) /                 ",
"                      v o.o.V y h h y     x C x         s s k             u u t X.9.6.        M E E E y                 ",
"                        T ~ V r s s q     z z z         a a s           < t q t  .3.,.      h C C G y                   ",
"                        N B N e w w q     j k k q     1 r q y           5 5 6 t T .. .    q z z x y                     ",
"                        f l g q q q q     s s s 8     1 q 8 q         = 5 2 5 e Y T N     s s k s                       ",
"                        u f p 5 8 8 q     s a a 4     1 4 3 8         : : : 2 t N N f   8 y s s                         ",
"                        t t t 1 8 3 8 ;   y q y <     ; 1 1 2         = = : 2 f f g     q q i 8                         ",
"                        6 6 6 : 2 3 3 1 = q 9 q       = ; ; 1       @ $ $ % 5 u t t   2 8 q w                           ",
"                        5 2 5 = 1 1 1 1 = 8 8 8       & & & =       @ @ @ = 6 5 q <   4 7 8 8                           ",
"                        , : : $ * 1 * = = 4 3 4       @ # & &       o o @ : , 2 <   = 2 2 8 =                           ",
"                        = * = @ @ * & & = 1 1 1       @ O @ +       o o @ = = : =   ; 1 1 2                             ",
"                        $ $ $ @   & @ & & ; * =     X O o O X     X X X @ $ $ $   @ * * 1 =                             ",
"                        @ @ @ o   @ @ @ @ & & &     X X X X       . X X o + @ @   @ & & = @                             ",
"                        o o o X   O O O O # # #     X X X X       . . X X X o     @ @ $ &                               ",
"                        X X X X   o o X o O O @     . . . .       . . . X X X   O O O @ +                               ",
"                        . . . .   X X X X O O O X . . . . .     . . . . . . . X X X O O                                 ",
"                        . . . . . X X X X X X X X . . . . .     . . . . . . . X X X X X                                 ",
"                        . . . . . . . . . X X X X . . . . .     . . . . . . . . . X X                                   ",
"                          . . . . . . . . . . . . . . . . .     . . . . . . . . . .                                     ",
"                          . . . . . . . . . . . . . . . .       . . . . . . . . . .                                     ",
"                          . . . .   . . . . . . . . . . .     . . . . . . . . . .                                       ",
"                          . . .       . .   . . .   . . .       . . .       . . .                                       ",
"                                                                                                                        ",
"                                                                                                                        ",
"                                                                                                                        ",
"                                                                                                                        ",
"                                                                                                                        ",
"                                                                                                                        ",
"                                                                                                                        ",
"                                                                                                                        ",
"                                                                                                                        "
};
