/* XPM */
static char *Plant3_00000[] = {
/* columns rows colors chars-per-pixel */
"60 60 167 2 ",
"   c None",
".  c #000200",
"X  c #040B03",
"o  c #061206",
"O  c #091406",
"+  c #0C1807",
"@  c #0A1708",
"#  c #0C1B09",
"$  c #101F0B",
"%  c #0D230D",
"&  c #12230C",
"*  c #14290F",
"=  c #142C11",
"-  c #182D11",
";  c #153414",
":  c #1B3413",
">  c #173916",
",  c #1D3A16",
"<  c #1C3D19",
"1  c #203D16",
"2  c #213E19",
"3  c #1C431B",
"4  c #1F491D",
"5  c #25451B",
"6  c #26491D",
"7  c #2A4C1D",
"8  c #2C521F",
"9  c #214D21",
"0  c #2A4D21",
"q  c #235322",
"w  c #2D5423",
"e  c #2D5B25",
"r  c #295C29",
"t  c #305624",
"y  c #325B25",
"u  c #2B6027",
"i  c #2C632B",
"p  c #2E692C",
"a  c #356226",
"s  c #35632A",
"d  c #386428",
"f  c #336C2C",
"g  c #3B6C2C",
"h  c #3E732D",
"j  c #316A32",
"k  c #3B683C",
"l  c #337431",
"z  c #3E7430",
"x  c #377C36",
"c  c #397F36",
"v  c #39773A",
"b  c #3B7B3C",
"n  c #41752F",
"m  c #406537",
"M  c #416B36",
"N  c #486F3D",
"B  c #417533",
"V  c #447B34",
"C  c #47743C",
"Z  c #49753D",
"A  c #467839",
"S  c #496D40",
"D  c #417641",
"F  c #4E7743",
"G  c #477A48",
"H  c #527D46",
"J  c #398037",
"K  c #3C873B",
"L  c #468036",
"P  c #498336",
"I  c #4B833D",
"U  c #418F3F",
"Y  c #4E8B3C",
"T  c #518E3E",
"R  c #42903F",
"E  c #52923E",
"W  c #448544",
"Q  c #458D45",
"!  c #4D854E",
"~  c #4D8F4D",
"^  c #508043",
"/  c #538F43",
"(  c #568649",
")  c #578A49",
"_  c #449243",
"`  c #489B47",
"'  c #4B934B",
"]  c #4B9D49",
"[  c #549343",
"{  c #569A42",
"}  c #599A44",
"|  c #5B934C",
" . c #5D9D4B",
".. c #518B51",
"X. c #529652",
"o. c #539B53",
"O. c #5B9D5C",
"+. c #619654",
"@. c #639C53",
"#. c #689B5B",
"$. c #4CA24B",
"%. c #5BA146",
"&. c #50A64F",
"*. c #5EA14C",
"=. c #55AD54",
"-. c #5DA35D",
";. c #59AA58",
":. c #57B056",
">. c #58B257",
",. c #5CB55C",
"<. c #5EB85D",
"1. c #61A54C",
"2. c #63A94D",
"3. c #65A454",
"4. c #66AB54",
"5. c #6BA55C",
"6. c #69A958",
"7. c #69B254",
"8. c #6DBA56",
"9. c #6FB45A",
"0. c #60B95F",
"q. c #6FB95B",
"w. c #71B65D",
"e. c #71B85C",
"r. c #5FA760",
"t. c #61A762",
"y. c #65AD65",
"u. c #73AD64",
"i. c #64B364",
"p. c #65BB64",
"a. c #68B369",
"s. c #6DBD6C",
"d. c #74B262",
"f. c #75BB62",
"g. c #78BE64",
"h. c #7BB76B",
"j. c #7CBB6B",
"k. c #73C25D",
"l. c #67C066",
"z. c #68C067",
"x. c #6CC26B",
"c. c #76C263",
"v. c #7BCB65",
"b. c #70C36F",
"n. c #7EC369",
"m. c #72C472",
"M. c #73C972",
"N. c #74CA73",
"B. c #75CB75",
"V. c #76C976",
"C. c #77CB77",
"Z. c #77CC77",
"A. c #78CD78",
"S. c #7AD07A",
"D. c #7BD27B",
"F. c #80C16D",
"G. c #81C66D",
"H. c #82C56E",
"J. c #81C56D",
"K. c #80D16B",
"L. c #84D46E",
"P. c #86C972",
"I. c #89CC76",
"U. c #8BCE78",
"Y. c #87D873",
"T. c #8DD07A",
"R. c #8FD47C",
/* pixels */
"                                                                                                                        ",
"                                                                                                                        ",
"                                                                                                                        ",
"                                                                                                                        ",
"                                                                                                                        ",
"                                                                                                                        ",
"                                                                                                                        ",
"                                                                                                                        ",
"                                                                                                                        ",
"                                                                                                                        ",
"                                                                        ! y.                                            ",
"                                                                        s.S...                                          ",
"                                                                      ! M.M...                                          ",
"                                                          +.j.S       O.A.m.G                                           ",
"                                    m |                   h.R.#.      -.M.m.                                            ",
"                                    6.Y.|                 j.R.u.      r.M.s.                                            ",
"                        5.H         f.L.6.                j.U.d.      -.M.s.                                            ",
"                        d.j.N       c.L.4.                j.I.u.      -.z.z.D                                           ",
"                        +.H.5.      c.v.4.                H.P.5.      o.z.z.W                                           ",
"                        ^ g.f.Z     q.v.7.              ( H.H.+.      ' p.p.W                       F                   ",
"                          9.f.|     7.k.7.              @.n.n.(       W <.<.'                       j.(                 ",
"            G O.          4.9. .    *.8.8.B             6.g.d.        c :.>.'                     ( H.+.                ",
"            t.S.O.        *.4.*.    / 7.7.Y           M 9.w.3.        j &.=._ k O.                3.n.+.                ",
"            y.S.a.        { 2. .    A 2.2.[           I 7.7.[           ` ] Q a.S...              w.g.)                 ",
"            -.M.z.        Y } [       %.%.{           / 2.2.A           _ U ~ M.M.!             | e.w.C                 ",
"            ! m.M.X.      I E Y y     T { { g         [ } }             K c X.M.b.            B 4.7.3.                  ",
"              a.b.p.      A I L e     A E E A         Y T Y             x l o.M.s.            [ 2.2.I                   ",
"              ~ z.l.o.    z L A w     s Y Y L         L L A           9 l i X.z.p.          B { } [                     ",
"                ;.0.,.v   d n h e       L L L       t B B g           q p e ' l.a.        w Y Y E g                     ",
"                c =.=.]   y g g e       A A A       w g g s           q e q W <.,.        z L L B                       ",
"                  _ $.$.j 6 d a e       g n n w     0 a d y           q q q v =.=.c     w B n A                         ",
"                  j _ R c < y y e       s g g w     6 t y w         > q 4 6 i ] $.v     a g h a                         ",
"                    x J x 3 w 8 e       e g d w     6 7 7 0         > 3 3 3 r U _ j   6 a a d                           ",
"                    i l d 9 6 7 8 6     w a y w     < 6 6 6         > > > > r x c r   7 y a w                           ",
"                    9 p u q , 7 6 6     0 y t 0     : 2 1 2         > > > > i p d     8 8 e 2                           ",
"                      e q 9 - 6 1 6 -   6 w 7 6     - : : ,       % - * - > i e r   , 7 7 w                             ",
"                      q 4 4 & 1 1 1 :   6 7 7 6     & - - :       # % % % 3 q q 9   1 6 6 6                             ",
"                      3 3 3 % : : : :   2 6 6 2     $ & & *       # # # % 3 3 4 >   1 1 6 :                             ",
"                      > > > % & : * - # : 1 1 ,     # $ $ &       o o o - > > <   * , : 1                               ",
"                      > - - %   * & & & - : : :     o o o #       o o o - * > -   - : : :                               ",
"                      % % % #   & & & $ - - - -     o o o o       X X o % % %     * * * -                               ",
"                      # # # @   # # # # & & & &     X X X X       X . X o # #   @ & & * &                               ",
"                      o o o o   o o o o # & $ $     X . X .     . . . X X o o   o # # &                                 ",
"                        X X X     o X o o # o #   . . . . .     . . . . . X X   o o + #                                 ",
"                        X . . .   X X X X o o o X . . . .       . . . . . . . X X X o X                                 ",
"                        . . . .   X X X X X X X X . . . .       . . . . . . . X X X X                                   ",
"                        . . . . . . . . . X X X X . . . .       . . . . . . . . . X X                                   ",
"                        . . . . . . . . . . . . . . . . .     . . . . . . . . . . .                                     ",
"                        . . . . . . . . . . . . . . . . .     . . . . . . . . . . .                                     ",
"                          . . .     . . . . . . . . . . .     . . . . . . . . . .                                       ",
"                          . . .       . .   . . .   . . .       . . .       . . .                                       ",
"                                                                                                                        ",
"                                                                                                                        ",
"                                                                                                                        ",
"                                                                                                                        ",
"                                                                                                                        ",
"                                                                                                                        ",
"                                                                                                                        ",
"                                                                                                                        ",
"                                                                                                                        "
};
