/* XPM */
static char *Plant3_00030[] = {
/* columns rows colors chars-per-pixel */
"60 60 177 2 ",
"   c None",
".  c #000200",
"X  c #040B03",
"o  c #061106",
"O  c #091406",
"+  c #081807",
"@  c #0A1608",
"#  c #0C1B09",
"$  c #101F0B",
"%  c #0D230D",
"&  c #12240D",
"*  c #142A0F",
"=  c #132C11",
"-  c #182E11",
";  c #153414",
":  c #1B3414",
">  c #173917",
",  c #1D3A16",
"<  c #173918",
"1  c #1A3D19",
"2  c #203C16",
"3  c #203E19",
"4  c #1C431C",
"5  c #1F4A1E",
"6  c #24431B",
"7  c #254A1D",
"8  c #2A4C1E",
"9  c #2B511E",
"0  c #1F4B20",
"q  c #214B21",
"w  c #294D20",
"e  c #245423",
"r  c #2D5321",
"t  c #275823",
"y  c #2C5B25",
"u  c #2A542A",
"i  c #275B28",
"p  c #295E2A",
"a  c #305421",
"s  c #325B24",
"d  c #335D28",
"f  c #2A6027",
"g  c #2B6329",
"h  c #2E6A2C",
"j  c #356226",
"k  c #386227",
"l  c #366429",
"z  c #386228",
"x  c #346B2D",
"c  c #3B6B2C",
"v  c #31702F",
"b  c #3E732E",
"n  c #3E6435",
"m  c #316A31",
"M  c #3E6D32",
"N  c #327232",
"B  c #3E7231",
"V  c #367A35",
"C  c #387F36",
"Z  c #3B723B",
"A  c #3B7C3B",
"S  c #40752E",
"D  c #436739",
"F  c #427633",
"G  c #447C33",
"H  c #45723A",
"J  c #467A39",
"K  c #457645",
"L  c #427A42",
"P  c #4F7843",
"I  c #487C49",
"U  c #507F44",
"Y  c #3B833A",
"T  c #3E8A3D",
"R  c #478237",
"E  c #498435",
"W  c #4B853A",
"Q  c #418E3E",
"!  c #4C8A3B",
"~  c #528F3F",
"^  c #51913D",
"/  c #468147",
"(  c #4F8341",
")  c #428B42",
"_  c #4F8D40",
"`  c #4E854E",
"'  c #4D8D4D",
"]  c #518344",
"[  c #518D42",
"{  c #558549",
"}  c #578D49",
"|  c #588C4C",
" . c #449343",
".. c #479845",
"X. c #4A9D47",
"o. c #4E924E",
"O. c #4D9D4D",
"+. c #559442",
"@. c #569941",
"#. c #5A9D46",
"$. c #5B904C",
"%. c #5D9B4B",
"&. c #518D52",
"*. c #5D8E50",
"=. c #549554",
"-. c #5E9150",
";. c #519D51",
":. c #589759",
">. c #5A9D5B",
",. c #609452",
"<. c #649A55",
"1. c #659658",
"2. c #4EA24C",
"3. c #5CA246",
"4. c #50A74E",
"5. c #5EA149",
"6. c #52A451",
"7. c #54AB53",
"8. c #5DA15D",
"9. c #5AAC5A",
"0. c #58B257",
"q. c #5CB35B",
"w. c #5FB85D",
"e. c #61A54D",
"r. c #62AA4B",
"t. c #65A454",
"y. c #66AC51",
"u. c #68AC55",
"i. c #6CAB5B",
"p. c #70AB5F",
"a. c #67B150",
"s. c #68B451",
"d. c #6DBA56",
"f. c #6EB459",
"g. c #61BA5F",
"h. c #71B65E",
"j. c #73B95E",
"k. c #60A560",
"l. c #6FA661",
"z. c #62AA62",
"x. c #73AD63",
"c. c #64B064",
"v. c #65BD64",
"b. c #69B569",
"n. c #6CBB6C",
"m. c #73B460",
"M. c #76BB60",
"N. c #7ABF65",
"B. c #78B369",
"V. c #7EBB6E",
"C. c #72C15B",
"Z. c #68C167",
"A. c #6CC36B",
"S. c #76C461",
"D. c #7AC166",
"F. c #7CCC66",
"G. c #70C66F",
"H. c #7EC46A",
"J. c #70C371",
"K. c #75CB75",
"L. c #76C975",
"P. c #77CC77",
"I. c #73C972",
"U. c #78CD78",
"Y. c #79CE79",
"T. c #7ACF7A",
"R. c #80BE6E",
"E. c #81BF70",
"W. c #81C56D",
"Q. c #80C16D",
"!. c #80D06A",
"~. c #84D36F",
"^. c #86C972",
"/. c #88CA75",
"(. c #8BCE78",
"). c #8DCF79",
"_. c #8DD17A",
/* pixels */
"                                                                                                                        ",
"                                                                                                                        ",
"                                                                                                                        ",
"                                                                                                                        ",
"                                                                                                                        ",
"                                                                                                                        ",
"                                                                                                                        ",
"                                                                                                                        ",
"                                                                                                                        ",
"                                                                                                                        ",
"                                                                                                                        ",
"                                                                                        K                               ",
"                                                                                      k.T.`                             ",
"                                                                                    =.T.T.&.                            ",
"                                              $.|                     B.l.          n.T.n.                              ",
"                                    D D     ] ~.H.                  1._.E.        &.K.K.>.                              ",
"                                    <.x.    i.~.D.                  x.(.V.        z.K.J.                                ",
"                                    <.W.P   S.~.f.                  R.(.x.        n.K.c.                                ",
"                                    t.H.$.n S.F.t.                *.^./.<.      / A.A.>.                                ",
"                                    t.D.<.H S.S.%.                x.^.W.        o.A.A.'                                 ",
"                      &.K           u.M.%.J C.C.+.              { H.W.i.        ;.v.v.L                                 ",
"                    I K.b.          u.f.$.J d.d.[               i.D.N.{         6.w.0.                                  ",
"                    >.T.n.        J y.y.( J a.s._             ( j.M.i.          6.0.7.                          n       ",
"                    k.T.n.        W 5.5.F F r.r.!             t.f.f.]           2.7.O.                        ,.x.      ",
"                    8.K.n.        ! +.+.d B 3.3.!           J y.y.%.          m X.2...    :.8.              U H.p.      ",
"                    =.J.A.L       ! ! !   c @.@.!           [ 5.e.J           N ....A   z.T.J.            H h.H.-.      ",
"                    / n.A.=.    d R R F     ^ ^ !           ~ +.+.            V Y T p &.K.K.>.          M u.N.m.D       ",
"                      0.v.9.    l G G l     ! ! !         c W ! F             V V V u b.K.b.          M e.f.h.}         ",
"                      O.0.0.Z   l b b y     R R R         c F G d           e N v h Z A.G.=.        M #.e.u.%.          ",
"                      A 7.7.)   s c c r     G G G         c c B             p g h e o.Z.v.L       c ^ +.%.+.            ",
"                        ..X.)   s j l 7     B S b       6 l z l           1 p t y 4 6.g.9.      l ! ! ^ W               ",
"                        Y Q T 4 r s j 6     c c c       6 s s s           0 e e q q 6.0.O.    y G G R F                 ",
"                        N C V q 8 9 y 6     c k l       6 8 r w         = 5 4 7 1 m O.2.)   7 c c S c                   ",
"                        p v l q 6 8 9 6   6 l s s       6 6 8 6         > 4 1 4   V Q ..m   s j c l                     ",
"                        e g f 4 3 6 7 6   6 s a r       3 2 6 :       % > ; > ; 1 V C Y   8 s s j                       ",
"                        q e e 1 : 6 6 3   6 r 8 8       , : 2 :       = = = ; % i h v g : 9 9 s 6                       ",
"                        4 5 5 < = 2 2 ,   6 8 8 6       - - : &       % % * = 1 y y g : 6 7 9 7                         ",
"                        1 1 4 ; & : : , & 6 6 6 3     # & & = $     @ # # % = 5 7 e 4 - 6 6 8 :                         ",
"                        ; ; ; =   : * : & 1 , 2 :     # $ $ &       O + # # > , 4 4 % , 2 6 6                           ",
"                        = * = %   * & * & : : : =     @ # # #       O O O % ; ; > = & : : , =                           ",
"                        % % % #   % & & & = * - &     O O O O       X X O % % * =   * * - :                             ",
"                        # # # O   # # # # & & & #   X X X X X     . X X O # # %   # & & * *                             ",
"                        O O O X   O O O O # $ & #   . X . X       . . . X X O O   # # % &                               ",
"                        X X X X   X O X O O O # O   . . . .       . . . X X X X O O O # #                               ",
"                        . . . .   X X X X O O O O   . . . .       . . . . . X . X O O O                                 ",
"                        . . . . . X X X X X X X X . . . . .     . . . . . . . X X X X X                                 ",
"                          . . . . . . . . X X X X . . . . .     . . . . . . . X . X X                                   ",
"                          . . . . . . . . . . . . . . . . .     . . . . . . . . . . .                                   ",
"                          . . . . . . . . . . . . . . . .       . . . . . . . . . .                                     ",
"                          . . . .   . . . . . . . . . . .       . . . . . . . . .                                       ",
"                          . . .       . .   . . .   . . .       . . .       . . .                                       ",
"                                                                                                                        ",
"                                                                                                                        ",
"                                                                                                                        ",
"                                                                                                                        ",
"                                                                                                                        ",
"                                                                                                                        ",
"                                                                                                                        ",
"                                                                                                                        ",
"                                                                                                                        "
};
